<!-- Generator: Adobe Illustrator 19.0.0, SVG Export Plug-In  -->
<svg version="1.1"
	 xmlns="http://www.w3.org/2000/svg" xmlns:xlink="http://www.w3.org/1999/xlink" xmlns:a="http://ns.adobe.com/AdobeSVGViewerExtensions/3.0/"
	 x="0px" y="0px" width="362px" height="497.1px" viewBox="0 0 362 497.1" enable-background="new 0 0 362 497.1"
	 xml:space="preserve">
<defs>
</defs>
<g>
	<linearGradient id="SVGID_1_" gradientUnits="userSpaceOnUse" x1="169.3198" y1="110.5128" x2="273.1945" y2="110.5128">
		<stop  offset="0" style="stop-color:#D1361A"/>
		<stop  offset="0.4717" style="stop-color:#D53918"/>
		<stop  offset="0.9385" style="stop-color:#E14110"/>
		<stop  offset="1" style="stop-color:#E3420F"/>
	</linearGradient>
	<path fill="url(#SVGID_1_)" d="M259.6,200c-16.8,3.8-86.6,26.4-90.2,19.8c-3.5-6.6,59.4-215.1,83.3-219.7
		c27.9-5.4,19.2,186.2,19.2,186.2S269.3,197.7,259.6,200z"/>
	<path fill="#F79E81" d="M262.2,8c12.7,53.1,7.6,108.7,3.2,162.8c-0.8,9.5-2.2,21.4-8.6,30c1-0.3,2-0.5,2.8-0.7
		c9.7-2.3,10.2-14.9,10.2-14.9S278.4,43.5,262.2,8z"/>
	<linearGradient id="SVGID_2_" gradientUnits="userSpaceOnUse" x1="197.3285" y1="99.1504" x2="225.4605" y2="99.1504">
		<stop  offset="0" style="stop-color:#D1210F"/>
		<stop  offset="0.3458" style="stop-color:#D62B12"/>
		<stop  offset="0.9381" style="stop-color:#E24719"/>
		<stop  offset="1" style="stop-color:#E34A1A"/>
	</linearGradient>
	<path fill="url(#SVGID_2_)" d="M204.2,175.2c13-55.9,30.6-123.9,40.6-161.2c-1.3-0.3-3.3-0.2-4.9,0.3
		c-20.1,34-48.8,120.9-62.6,170.2C189,182.3,202.5,182.9,204.2,175.2z"/>
	<path fill="#C92918" d="M207.8,155.7c0.2,0,8.1-31.8,18.2-70.9C236.2,45.6,244.8,14,244.8,14c0,0-7.8,31.9-17.9,71
		C216.7,124.2,208,155.8,207.8,155.7z"/>
	<linearGradient id="SVGID_3_" gradientUnits="userSpaceOnUse" x1="26.287" y1="225.2412" x2="82.3529" y2="225.2412">
		<stop  offset="0" style="stop-color:#C42112"/>
		<stop  offset="0.3257" style="stop-color:#C82513"/>
		<stop  offset="0.6483" style="stop-color:#D23115"/>
		<stop  offset="0.969" style="stop-color:#E4451A"/>
		<stop  offset="1" style="stop-color:#E6471A"/>
	</linearGradient>
	<path fill="url(#SVGID_3_)" d="M79.8,241.2c0,0,10.7-49.7-11.5-46.5s-42,61.2-42,61.2L79.8,241.2z"/>
	<path fill="#F7A181" d="M76.3,196.6c7.7,10,4.7,31.6-1.4,46l3.6-1.6C78.5,241,87.5,208.6,76.3,196.6z"/>
	<linearGradient id="SVGID_4_" gradientUnits="userSpaceOnUse" x1="177.5939" y1="302.5561" x2="191.5939" y2="164.5562">
		<stop  offset="0" style="stop-color:#C42112"/>
		<stop  offset="0.2815" style="stop-color:#C72513"/>
		<stop  offset="0.5604" style="stop-color:#D23114"/>
		<stop  offset="0.8374" style="stop-color:#E34518"/>
		<stop  offset="1" style="stop-color:#F0541A"/>
	</linearGradient>
	<path fill="url(#SVGID_4_)" d="M7.5,267.2c-1-5.5,8-16.5,19-22.5c20.5-14.5,277-95.5,303-99c7,0,9,0,12.5,2
		c19.5,14.5,23.6,73.6,13,87c-1.8,2.2-5.5,7-16,9.5c-31.5,8-281.6,36.1-315,33C17.4,276.6,8.5,272.7,7.5,267.2z"/>
	<linearGradient id="SVGID_5_" gradientUnits="userSpaceOnUse" x1="174.7478" y1="277.0241" x2="186.6394" y2="159.8074">
		<stop  offset="6.060610e-03" style="stop-color:#DB4A12"/>
		<stop  offset="0.2207" style="stop-color:#DD4D16"/>
		<stop  offset="0.4335" style="stop-color:#E25722"/>
		<stop  offset="0.6456" style="stop-color:#EA6836"/>
		<stop  offset="0.856" style="stop-color:#F58051"/>
		<stop  offset="1" style="stop-color:#FF9469"/>
	</linearGradient>
	<path fill="url(#SVGID_5_)" d="M348.5,156.2c-2.8-6.3-2.3-5.4-6.5-8.5c-3.5-2-3.5,1-10.5,1c-26,3.5-290.3,86.7-305,96
		c-3.9,2.1-7.6,4.9-10.7,7.9c16.9-5.9,35.8-15.9,53.7-21.9C153,207.2,261,178.2,348.5,156.2z"/>
	<linearGradient id="SVGID_6_" gradientUnits="userSpaceOnUse" x1="336.7718" y1="242.9428" x2="323.7205" y2="148.0701">
		<stop  offset="0" style="stop-color:#D1C9C4"/>
		<stop  offset="0.2962" style="stop-color:#D4CCC8"/>
		<stop  offset="0.5898" style="stop-color:#DCD6D4"/>
		<stop  offset="0.8814" style="stop-color:#E9E7E8"/>
		<stop  offset="1" style="stop-color:#F0F0F2"/>
	</linearGradient>
	<path fill="url(#SVGID_6_)" d="M342,147.7c-3.5-2-6.1-3-12.5-2.4c-3,0.4-13.9,3.2-17.6,4.5c-20.7,11.9-12.4,94.5,13.3,97
		c4.9-0.5,10.9-1.9,13.8-2.7c10.5-2.5,14.2-7.3,16-9.5C365.6,221.4,361.5,162.2,342,147.7z"/>
	<path fill="#F7F7F7" d="M342,147.7c-1.7-1-3.2-1.7-5-2.1c-9.7,3.1-20.1,4.6-29.5,8.4c-2.6,3.6-4.5,8.7-5.7,14.7
		c15.7-4.8,31.6-8.1,47.3-12.9C347,152.5,344.6,149.7,342,147.7z"/>
	<linearGradient id="SVGID_7_" gradientUnits="userSpaceOnUse" x1="18.7579" y1="297.1319" x2="77.8496" y2="297.1319">
		<stop  offset="0" style="stop-color:#D1361A"/>
		<stop  offset="0.3603" style="stop-color:#D53A1A"/>
		<stop  offset="0.7167" style="stop-color:#E1451A"/>
		<stop  offset="1" style="stop-color:#F0541A"/>
	</linearGradient>
	<path fill="url(#SVGID_7_)" d="M74.5,262.2c-5-2-52.5,11-52.5,11s-12,60,10.5,59s45-62,45-62S79.5,264.2,74.5,262.2z"/>
	<path fill="#F7A181" d="M73.8,263.1c-0.9-0.7-3.6-0.6-7.8,0.1c17.5-0.3-5.8,41.5-12.6,51.3c-6,8-9.5,12.1-16.2,16.7
		c21-9.3,38.6-58.4,39-60.3C76.7,268.9,77.5,265.7,73.8,263.1z"/>
	<linearGradient id="SVGID_8_" gradientUnits="userSpaceOnUse" x1="18.7606" y1="301.2381" x2="35.4545" y2="301.2381">
		<stop  offset="0" style="stop-color:#D1361A"/>
		<stop  offset="0.5987" style="stop-color:#D8401A"/>
		<stop  offset="1" style="stop-color:#DE4A1A"/>
	</linearGradient>
	<path fill="url(#SVGID_8_)" d="M21.6,275.3c-1.6,9.1-7.3,46,4.3,55c3.3-20.8,6.3-41.3,9.6-58C30.2,273,25.7,274,21.6,275.3z"/>
	<linearGradient id="SVGID_9_" gradientUnits="userSpaceOnUse" x1="0" y1="217.4269" x2="83.413" y2="217.4269">
		<stop  offset="0" style="stop-color:#C4210D"/>
		<stop  offset="0.2815" style="stop-color:#C7250E"/>
		<stop  offset="0.5604" style="stop-color:#D23111"/>
		<stop  offset="0.8374" style="stop-color:#E34516"/>
		<stop  offset="1" style="stop-color:#F0541A"/>
	</linearGradient>
	<path fill="url(#SVGID_9_)" d="M14.3,256.2c0,0,59.2-9.7,67.5-22.5c2.5-4.3,1.5-7.3,1-8.5s-44-57.2-71.3-44.8
		C-15.9,192.7,14.3,256.2,14.3,256.2z"/>
	<path fill="#F7A181" d="M81.6,225.7c-1-2.5-42.8-57.7-70.2-45.3c-0.1,0.1-0.2,0.1-0.3,0.2c23.2-10,62.3,34.7,67.7,46.3
		c2.2,6.3-2.3,10.5-6.2,13.6c4.4-2.1,6.9-4.9,8.4-7.3C83.5,228.9,82.1,226.9,81.6,225.7z"/>
	<linearGradient id="SVGID_10_" gradientUnits="userSpaceOnUse" x1="5.541163e-03" y1="216.2738" x2="34.7045" y2="216.2738">
		<stop  offset="0" style="stop-color:#D1361A"/>
		<stop  offset="0.5987" style="stop-color:#D8401A"/>
		<stop  offset="1" style="stop-color:#DE4A1A"/>
	</linearGradient>
	<path fill="url(#SVGID_10_)" d="M9.9,181.2c-20.3,11.6-4,55.4,2.2,70.1c7.3-1.4,13.8-2.6,22.6-5.4C27.1,225.1,18.4,202.2,9.9,181.2
		z"/>
	<linearGradient id="SVGID_11_" gradientUnits="userSpaceOnUse" x1="5.541163e-03" y1="216.2738" x2="34.7045" y2="216.2738">
		<stop  offset="0" style="stop-color:#D1361A"/>
		<stop  offset="0.5987" style="stop-color:#D8401A"/>
		<stop  offset="1" style="stop-color:#DE4A1A"/>
	</linearGradient>
	<path fill="url(#SVGID_11_)" d="M9.9,181.2c-20.3,11.6-4,55.4,2.2,70.1c7.3-1.4,13.8-2.6,22.6-5.4C27.1,225.1,18.4,202.2,9.9,181.2
		z"/>
	<path fill="#212121" d="M155.3,206.6c-4.3,12.8,11.4,16.6,28.7,16.2c5.6-13.4,10.7-27.1,15.8-40.8
		C177.9,189.2,158.2,198,155.3,206.6z"/>
	<path fill="#633001" d="M199.7,182c-5,13.7-10.1,27.4-15.8,40.8c10.2-0.2,20.9-1.8,28.5-3.7c20.5-5.3,50.8-54,50.8-54
		S229.6,172.1,199.7,182z"/>
	<linearGradient id="SVGID_12_" gradientUnits="userSpaceOnUse" x1="159.0545" y1="368.482" x2="268.8494" y2="368.482">
		<stop  offset="0" style="stop-color:#D12E0F"/>
		<stop  offset="0.4632" style="stop-color:#D83813"/>
		<stop  offset="1" style="stop-color:#E34A1A"/>
	</linearGradient>
	<path fill="url(#SVGID_12_)" d="M262.5,240.9c-16.1-6.2-101.5,16.9-103.1,22.3c-1.6,5.4,0.3,236.8,32.3,233.8
		c41.8-1.9,76.3-241.3,76.3-241.3S271.8,244.6,262.5,240.9z"/>
	<path fill="#F79E81" d="M262.5,240.9c-2.2-0.9-5.7-1.1-10.2-1c2.4,0.4,4.2,1.2,5.1,2.8c8,9.3-2.7,64.3-9,97c-9,46.6-18,91-36,134
		c-1.8,4.7-4.2,9.7-7.1,14.7c33.1-44.2,60.9-231.9,60.9-231.9S268.2,243.2,262.5,240.9z"/>
	<linearGradient id="SVGID_13_" gradientUnits="userSpaceOnUse" x1="159.0668" y1="372.4544" x2="187.4545" y2="372.4544">
		<stop  offset="0" style="stop-color:#C4210D"/>
		<stop  offset="0.2842" style="stop-color:#CC2B0F"/>
		<stop  offset="0.7584" style="stop-color:#E24416"/>
		<stop  offset="1" style="stop-color:#F0541A"/>
	</linearGradient>
	<path fill="url(#SVGID_13_)" d="M183.5,468.7c2-65,3-128.8,4-195c-10.8,1.2-24,6.5-28.4,9.6c0.2,42.4,3.5,140.8,16,187.9
		C179.3,470,181,469.2,183.5,468.7z"/>
	<radialGradient id="SVGID_14_" cx="221.4545" cy="131.7303" r="79.1743" gradientUnits="userSpaceOnUse">
		<stop  offset="0" style="stop-color:#F2C280"/>
		<stop  offset="0.4919" style="stop-color:#F1C07E"/>
		<stop  offset="0.6691" style="stop-color:#EEB978"/>
		<stop  offset="0.7954" style="stop-color:#E8AE6D"/>
		<stop  offset="0.8975" style="stop-color:#E09D5E"/>
		<stop  offset="0.9839" style="stop-color:#D6874A"/>
		<stop  offset="1" style="stop-color:#D48245"/>
	</radialGradient>
	<circle fill="url(#SVGID_14_)" cx="188.7" cy="164.5" r="43.5"/>
	<linearGradient id="SVGID_15_" gradientUnits="userSpaceOnUse" x1="138.7085" y1="174.922" x2="217.7045" y2="174.922">
		<stop  offset="0" style="stop-color:#702605"/>
		<stop  offset="0.2396" style="stop-color:#7A2605"/>
		<stop  offset="0.6393" style="stop-color:#932605"/>
		<stop  offset="1" style="stop-color:#B02605"/>
	</linearGradient>
	<path fill="url(#SVGID_15_)" d="M217.7,129.5c-6.2,2.8-13.8,10.8-19.8,21.2c-5.8,10.2-9.8,19.2-3.2,34c5.1,11.5,6.2,14,7,27.2
		s-14.8,23.2-20.2,23.5s-0.5-8-5-14.5s-22.3-18.8-30.2-31.8c-11.5-18.8-12.2-54.8,15.2-68.8C188.5,106.7,210.7,119,217.7,129.5z"/>
	<path fill="#441E01" d="M214.5,153.4l3.5-5.5c0,0,2.3,2.7,2.4,3.3s-3.2,5.2-3.2,5.2L214.5,153.4z"/>
	<path fill="#702605" d="M195.7,174.2c-0.5-4.8,10.5-20.2,14.5-21.8c0.9-0.3,3.2-0.2,4.2,0.8c3.5,3.2,4.2,13.4,4,16.5
		c-0.2,2.8-3.6,11.7-7.2,15.8c-1.5,1.6-3.8,1.2-4.8,1.2C203.2,186.7,196.2,179,195.7,174.2z"/>
	<path fill="#DCFBFF" d="M199.2,173.2c-0.5-4.8,9-19,13-20.5s10,12,9.8,16s-8.8,17-12,17S199.7,178,199.2,173.2z"/>
	<path fill="#702605" d="M216,145c-0.5-2.8,0.4-8.5,2.5-13c0.6-1.3,3.5-1.5,5.2-0.8c3.5,3.3,6.7,12.1,6.5,14.8
		c-0.2,2.7-0.3,6.9-1.7,8.9c-0.7,1-2,1.1-3,1.1C222.2,156,216.5,148,216,145z"/>
	<path fill="#DCFBFF" d="M217.5,144.5c-0.5-2.8,1.2-8.8,4.5-13c2.6-3.4,10,10,9.8,14s-1.5,10-4.8,10S218,147.5,217.5,144.5z"/>
	<path fill="#441E01" d="M197.2,178.1c-7.4,2.5-42.6,17.4-50,12.4c0.8,1.1,3.6,5.8,6,7.8c7.8,5,48.5-14.2,48.5-14.2
		S198.1,179.4,197.2,178.1z"/>
	<path fill="#DCFBFF" d="M242,151c8,2.5,19.2,11.2,19.2,11.2s4.9,3.3,4.2,10.8c-3.2,32-53.2,46.2-53.2,46.2S234,148.5,242,151z"/>
	<path fill="#F3FEFF" d="M264.4,178.6c0.5-1.8,0.9-3.7,1.1-5.6c0.2-2.7-0.3-4.9-1-6.5c-8.3-5.2-17.9-8.9-27.9-10.7
		c-3.4,5.5-7.4,15-11.2,24.9C238.2,178.8,251.3,178.2,264.4,178.6z"/>
	
		<ellipse transform="matrix(0.993 -0.1182 0.1182 0.993 -20.4551 42.0588)" fill="#B79F9F" cx="344.3" cy="193.4" rx="16.9" ry="46.4"/>
	<g>
		<path fill="#C42112" d="M34.7,246c0,0-6-14.3-12.8-32.2c-6.9-17.9-12-32.5-12-32.5s6,14.3,12.8,32.2S34.7,246,34.7,246z"/>
		<path fill="#C42112" d="M12.1,251.3c0,0,5.2-0.8,11.4-2.3c6.2-1.5,11.2-3.1,11.2-3.1c0,0-4.8,2-11.1,3.5
			C17.3,251,12.1,251.3,12.1,251.3z"/>
		<path fill="#C42112" d="M26.1,330.1c0,0,1.7-13,4.3-28.9c2.6-15.9,5.1-28.8,5.1-28.8s-1.7,13-4.3,28.9
			C28.6,317.2,26.1,330.1,26.1,330.1z"/>
		<path fill="#C42112" d="M21.6,275.2c0,0,3-1,6.8-1.9c1.9-0.4,3.7-0.7,5-0.9c1.3-0.2,2.1-0.1,2.1-0.1c0,0-0.8,0.1-2,0.4
			c-1.3,0.3-3,0.6-4.9,1.1C24.7,274.6,21.6,275.2,21.6,275.2z"/>
		<path fill="#C42112" d="M183.5,468.7c0,0,0.4-43.8,1.5-97.8c1.1-54,2.4-97.7,2.4-97.7S187,317,185.9,371
			C184.9,425,183.5,468.7,183.5,468.7z"/>
		<path fill="#C42112" d="M159.1,283.1c0,0,5.8-3.5,13.7-6.2c3.9-1.3,7.6-2.2,10.3-2.6c2.7-0.4,4.4-0.5,4.4-0.5c0,0-1.7,0.2-4.3,0.7
			c-2.7,0.5-6.3,1.5-10.2,2.8C165.1,280,159.1,283.1,159.1,283.1z"/>
		<path fill="#C42112" d="M175.2,471.1c0,0,1.8-0.8,4.1-1.5c2.3-0.7,4.3-0.9,4.3-0.9c0,0-1.8,0.6-4.1,1.3
			C177.1,470.7,175.2,471.1,175.2,471.1z"/>
		<path fill="#C42112" d="M159.6,263.1c0,0,0.2-0.3,0.7-0.7c0.5-0.4,1.4-0.9,2.5-1.5c2.2-1.2,5.6-2.6,9.8-4.3
			c8.5-3.2,20.4-7,33.9-10.2c13.5-3.2,25.9-5.1,34.9-5.9c9-0.8,14.6-0.7,14.6-0.7c0,0-5.6,0.1-14.6,1.1c-9,1-21.3,3.1-34.7,6.3
			c-13.4,3.2-25.4,6.7-33.9,9.7c-4.3,1.5-7.7,2.9-9.9,4c-1.1,0.6-2,1-2.5,1.4C159.8,262.7,159.6,263.1,159.6,263.1z"/>
		<path fill="#C42D1E" d="M240.1,14.1c0,0,1-0.4,2.2-0.5c0.6-0.1,1.2,0,1.6,0.1c0.4,0.1,0.6,0.3,0.6,0.3c0,0-0.3-0.1-0.7,0
			c-0.4,0-1,0.1-1.6,0.1C241.2,14.2,240.1,14.1,240.1,14.1z"/>
		<path fill="#B70D0D" d="M76,238.7c0,0-3,2.1-8.4,4.5c-5.4,2.4-13.1,5-21.9,7c-17.6,4-32.2,4.7-32.2,4.8c0,0,14.5-1.4,32-5.4
			c8.7-2,16.5-4.4,21.9-6.7C72.8,240.7,75.9,238.7,76,238.7z"/>
		<path fill="#B70D0D" d="M69.2,262.3c0,0-2.7,0.4-7,1.2c-4.3,0.9-10.2,2.2-16.7,3.8c-13,3.2-23.5,5.9-23.5,5.9
			c0,0,10.4-3.2,23.4-6.3c6.5-1.6,12.5-2.8,16.8-3.6C66.5,262.5,69.2,262.3,69.2,262.3z"/>
	</g>
</g>
</svg>
