<!-- Generator: Adobe Illustrator 18.1.1, SVG Export Plug-In  -->
<svg version="1.1"
	 xmlns="http://www.w3.org/2000/svg" xmlns:xlink="http://www.w3.org/1999/xlink" xmlns:a="http://ns.adobe.com/AdobeSVGViewerExtensions/3.0/"
	 x="0px" y="0px" width="22.6px" height="22.6px" viewBox="0 0 22.6 22.6" enable-background="new 0 0 22.6 22.6"
	 xml:space="preserve">
<defs>
</defs>
<g>
	<circle fill="#C1392B" cx="11.3" cy="11.3" r="11.3"/>
	<circle fill="#4EC7CC" cx="11.3" cy="11.3" r="9.2"/>
	<path fill="#2AABB1" d="M4.4,10.5c1.4-4.9,6.4-7.7,11.3-6.3c1,0.3,1.9,0.7,2.7,1.3c-1.1-1.4-2.7-2.5-4.6-3C8.9,1.1,3.9,4,2.5,8.8
		c-1.1,3.9,0.5,7.9,3.7,10C4.3,16.6,3.5,13.6,4.4,10.5z"/>
	<g>
		<g>
			<g>
				<polygon fill="#A1423E" points="18.1,8.9 11.8,8.9 11.8,4.1 5.5,11.6 11.8,19 11.8,14.3 18.1,14.3 				"/>
			</g>
		</g>
	</g>
</g>
</svg>
