<!-- Generator: Adobe Illustrator 18.1.1, SVG Export Plug-In  -->
<svg version="1.1"
	 xmlns="http://www.w3.org/2000/svg" xmlns:xlink="http://www.w3.org/1999/xlink" xmlns:a="http://ns.adobe.com/AdobeSVGViewerExtensions/3.0/"
	 x="0px" y="0px" width="348.8px" height="265.8px" viewBox="0 0 348.8 265.8" enable-background="new 0 0 348.8 265.8"
	 xml:space="preserve">
<defs>
</defs>
<g opacity="0.1">
	<path fill="#F1F2F2" d="M316.6,191.1l-28.5,46.2c-23.4-4.6-55.1-8.9-91.7-8.9c-51.4,0-82.2,18.1-108.2,37.5l-37.9-54.2L19.7,55.1
		c0,0,89.7-27.8,183.2-27.8S321.9,73,321.9,73L316.6,191.1z"/>
	<path fill="#231F20" d="M316.6,191.1l-28.5,46.2c-23.4-4.6-55.1-8.9-91.7-8.9c-51.4,0-82.2,18.1-108.2,37.5l-37.9-54.2L19.7,55.1
		c0,0,89.7-27.8,183.2-27.8S321.9,73,321.9,73L316.6,191.1z"/>
</g>
<g>
	<path fill="#F1F2F2" d="M321.5,230.9c0,0-59.3-19.8-137.9-19.8S32.3,232.4,32.3,232.4L0,58.1c0,0,60.6-61.9,187.3-58
		C281.5,3.1,348.8,55,348.8,55L321.5,230.9z"/>
	<path fill="#FFFFFF" d="M321.5,230.9c0,0-59.3-19.8-137.9-19.8S32.3,232.4,32.3,232.4L0,58.1c0,0,60.6-61.9,187.3-58
		C281.5,3.1,348.8,55,348.8,55L321.5,230.9z"/>
</g>
<g>
	<g>
		<path fill="#00AEEF" d="M95.4,202.5c-1.5,0.2-2.8,0.2-4,0c-1.2-0.2-2.2-0.4-3.2-0.8c-0.9-0.3-1.8-0.8-2.5-1.3
			c-0.7-0.5-1.3-1-1.8-1.5c-2.6-2.6-4.3-6.6-4.9-11.9l-3.2-25.7c-0.7-5.3,0-9.6,1.9-12.8c0.7-1.2,1.9-2.4,3.5-3.6
			c1.6-1.2,3.8-2,6.7-2.4c2.9-0.4,5.3-0.1,7.1,0.7c1.8,0.8,3.2,1.7,4.2,2.7c2.7,2.7,4.4,6.7,5,11.9l0.5,3.8l-7.7,1l-0.5-3.8
			c-0.3-2.3-0.7-4.1-1.4-5.4c-0.6-1.2-1.3-2.1-2.1-2.6c-0.7-0.5-1.5-0.7-2.3-0.7c-0.8,0-1.4,0-2,0.1c-0.6,0.1-1.3,0.2-2,0.4
			c-0.7,0.2-1.4,0.6-2,1.3c-0.6,0.7-1.1,1.7-1.4,3c-0.3,1.4-0.3,3.2,0,5.5l3.2,25.7c0.4,3.5,1.4,6,2.8,7.4c0.3,0.3,0.9,0.7,1.6,1
			c0.8,0.3,1.9,0.4,3.3,0.2c1.5-0.2,2.5-0.5,3.1-1c0.6-0.5,1.1-1,1.4-1.4c1-1.8,1.3-4.4,0.8-7.9l-0.5-3.8l7.7-1l0.5,3.8
			c0.7,5.2,0,9.5-2,12.8c-0.7,1.2-1.9,2.4-3.4,3.7C100.6,201.4,98.3,202.2,95.4,202.5z"/>
		<path fill="#00AEEF" d="M126.3,199.3c-2.9,0.2-5.2-0.1-7-1c-1.8-0.9-3.2-1.9-4.1-2.9c-2.5-2.8-3.9-6.8-4.3-12.1l-1.9-25.9
			c-0.4-5.3,0.4-9.5,2.5-12.7c0.4-0.6,0.9-1.2,1.5-1.7c0.6-0.6,1.3-1.1,2.2-1.7c0.9-0.5,1.9-1,3-1.4c1.1-0.4,2.4-0.6,3.9-0.7
			c2.9-0.2,5.3,0.1,7.1,1c1.8,0.9,3.2,1.9,4.1,2.9c2.5,2.8,3.9,6.8,4.3,12.1l1.9,25.9c0.4,5.3-0.4,9.5-2.5,12.7
			c-0.8,1.2-2,2.3-3.6,3.5C131.5,198.4,129.2,199.1,126.3,199.3z M122.4,146.9c-0.6,0-1.3,0.1-2,0.3c-0.7,0.2-1.4,0.6-2.1,1.2
			c-0.7,0.6-1.2,1.6-1.6,2.9c-0.4,1.3-0.5,3.1-0.3,5.5l1.9,25.9c0.2,2.4,0.5,4.2,1.1,5.5c0.6,1.2,1.2,2.1,2,2.6
			c0.7,0.5,1.5,0.8,2.2,0.9c0.7,0.1,1.4,0.1,2,0c0.5,0,1.2-0.1,1.9-0.3c0.8-0.2,1.5-0.6,2.1-1.2c0.7-0.6,1.2-1.6,1.6-2.9
			c0.4-1.3,0.5-3.2,0.3-5.6l-1.9-25.9c-0.2-2.3-0.5-4.1-1.1-5.4c-0.6-1.2-1.2-2.1-2-2.6c-0.7-0.5-1.5-0.8-2.3-0.9
			C123.6,146.9,123,146.9,122.4,146.9z"/>
		<path fill="#00AEEF" d="M167,167.8c1.5,1.4,2.7,3,3.5,5c0.8,1.9,1.3,4.2,1.4,6.7l0.5,17.8l-7.8,0.2l-0.5-17.8
			c-0.1-5.3-2.8-7.9-7.9-7.7l-3.8,0.1l-1,0l0.7,25.8l-7.7,0.2l-1.6-60.3l12.5-0.3c5.2-0.1,9.1,1.3,11.8,4.3
			c2.5,2.7,3.8,6.9,3.9,12.5c0.1,5.6-0.9,9.8-3.3,12.8c-0.1,0.1-0.2,0.3-0.4,0.4S167.2,167.7,167,167.8z M156,164.1
			c2.1-0.1,3.5-0.3,4.3-0.8c0.8-0.5,1.3-0.9,1.5-1.2c1.2-1.6,1.7-4.1,1.6-7.7c-0.1-2-0.3-3.6-0.6-4.9c-0.4-1.2-0.9-2.2-1.5-2.8
			c-0.6-0.7-1.4-1.1-2.4-1.3c-1-0.2-2.1-0.3-3.3-0.2l-4.8,0.1l0.5,19l1,0L156,164.1z"/>
		<path fill="#00AEEF" d="M185.5,197.2l-7.7-0.2l1.4-60.3l6.5,0.2l13.8,36.8l0.9-36.5l7.8,0.2l-1.4,60.3l-6.5-0.2l-13.8-36.8
			L185.5,197.2z"/>
		<path fill="#00AEEF" d="M223.5,146.1l-1.5,18.5l17.2,1.4l-0.6,7.7l-17.2-1.4l-1.5,18.6l17.2,1.4l-0.6,7.7l-24.9-2l4.7-60.1l24.9,2
			l-0.6,7.7L223.5,146.1z"/>
		<path fill="#00AEEF" d="M268.5,174c1.3,1.6,2.2,3.4,2.7,5.5c0.5,2.1,0.6,4.3,0.3,6.8l-2.4,17.7l-7.7-1.1l2.4-17.7
			c0.7-5.2-1.5-8.2-6.5-8.9l-3.8-0.5l-1-0.1l-3.5,25.5l-7.6-1l8.2-59.7l12.4,1.7c5.1,0.7,8.8,2.7,11,6.1c2,3.1,2.6,7.4,1.9,13
			c-0.8,5.5-2.5,9.5-5.3,12.1c-0.1,0.1-0.3,0.2-0.4,0.4C268.8,173.8,268.7,173.9,268.5,174z M258.3,168.6c2.1,0.3,3.5,0.2,4.4-0.1
			c0.8-0.4,1.4-0.7,1.7-0.9c1.4-1.3,2.3-3.8,2.8-7.4c0.3-2,0.3-3.6,0.2-4.9c-0.2-1.3-0.5-2.3-1-3c-0.5-0.8-1.3-1.3-2.2-1.7
			c-0.9-0.3-2-0.6-3.2-0.8l-4.8-0.7l-2.6,18.8l1,0.1L258.3,168.6z"/>
	</g>
</g>
<g>
	<g>
		<path fill="#00AEEF" d="M129.5,125.2L100.4,88l-4,9.1l5.1,32.5l-12.7,2l-5.7-36.1l-0.1,0l0.1-0.3L73.2,32l12.7-2l6.8,43.5
			l21.4-47.9l15.3-2.4l-22.9,51.3l37.6,48.3L129.5,125.2z"/>
		<path fill="#00AEEF" d="M151,123.2l-4.4-100.7l12.8-0.6l4.4,100.7L151,123.2z"/>
		<path fill="#00AEEF" d="M192.1,122.7l-20.1-1.2l6.1-100.6l20.1,1.2c8.6,0.5,15,3.6,19,9.2c3.7,5.1,5.3,12.2,4.7,21.4l-2.6,42.3
			c-0.6,9.2-3,16.1-7.3,20.8C207.4,121,200.8,123.3,192.1,122.7z M185.7,109.5l7.2,0.4c1.6,0.1,3.2,0,4.7-0.2
			c1.5-0.2,2.9-0.9,4.1-1.9c1.2-1,2.2-2.6,3.1-4.7c0.9-2.1,1.4-5.1,1.6-8.8L209,52c0.2-3.7,0-6.7-0.6-8.9c-0.6-2.2-1.4-3.9-2.5-5.1
			c-1.1-1.2-2.3-1.9-3.8-2.3c-1.5-0.4-3-0.6-4.7-0.7l-7.2-0.4L185.7,109.5z"/>
		<path fill="#00AEEF" d="M246,128.9c-7.9-1.6-13.3-5.3-16.3-11.2c-2.9-5.5-3.5-12.7-1.7-21.5l1.3-6.3l12.6,2.5l-1.3,6.3
			c-1.2,5.8-1,10.2,0.6,13.1c0.3,0.7,1,1.5,2,2.4c1,0.9,2.8,1.6,5.3,2.1c2.4,0.5,4.4,0.4,6.1-0.4c1.6-0.7,3-1.8,4-3.1
			c1.1-1.3,1.9-2.8,2.4-4.5c0.6-1.7,1-3.2,1.3-4.6c0.5-2.3,0.5-4.4,0.1-6.1c-0.4-1.8-1.1-3.3-2-4.7c-0.9-1.3-2-2.5-3.3-3.6
			c-1.3-1-2.6-2-3.9-2.9l-2.2-1.6c-1.3-0.9-2.9-2.1-4.9-3.7c-2-1.6-3.8-3.6-5.6-6.1c-4.3-6.3-5.7-13.4-4.1-21.4
			c0.8-4.2,2.2-7.9,4-11.2c1.8-3.3,4-5.9,6.6-8c2.6-2,5.5-3.5,8.7-4.3c3.2-0.8,6.5-0.9,10-0.2c4.8,1,8.5,2.6,11,4.8
			c2.5,2.3,4.2,4.4,5.3,6.5c2.9,5.7,3.4,12.9,1.7,21.7l-1.3,6.3l-12.7-2.5l1.3-6.3c0.8-3.8,1-6.9,0.7-9.2c-0.3-2.3-1-4-2-5.2
			c-1-1.2-2.1-2-3.3-2.4c-1.2-0.4-2.3-0.7-3.2-0.9c-2.6-0.5-4.7-0.3-6.4,0.7c-1.7,1-3.1,2.2-4.2,3.8c-1.1,1.6-1.9,3.2-2.5,4.9
			c-0.5,1.7-0.9,3-1.1,3.9c-0.5,2.3-0.5,4.4-0.1,6.2c0.4,1.8,1,3.4,2,4.9c0.9,1.4,2,2.7,3.3,3.9c1.3,1.1,2.7,2.2,4.2,3.1l2,1.4
			c1.1,0.8,2.7,1.9,4.7,3.4c2,1.5,3.8,3.4,5.6,5.9c4.5,6.2,6,13.3,4.4,21.4c-1.5,7.6-4.7,13.5-9.4,17.8
			C260.2,128.8,253.6,130.4,246,128.9z"/>
	</g>
</g>
</svg>
