<!-- Generator: Adobe Illustrator 18.1.1, SVG Export Plug-In  -->
<svg version="1.1"
	 xmlns="http://www.w3.org/2000/svg" xmlns:xlink="http://www.w3.org/1999/xlink" xmlns:a="http://ns.adobe.com/AdobeSVGViewerExtensions/3.0/"
	 x="0px" y="0px" width="229.4px" height="98.3px" viewBox="0 0 229.4 98.3" enable-background="new 0 0 229.4 98.3"
	 xml:space="preserve">
<defs>
</defs>
<path fill="#F1F2F2" d="M119.1,97.6c10.9-0.2,20.7-5,27.6-12.5c5.5,3.8,12.2,5.9,19.5,5.8c8.4-0.1,16-3.3,21.8-8.5
	c4.3,5.5,11.1,9,18.6,8.8c12.9-0.2,23.1-10.8,22.9-23.6c-0.2-12.9-10.8-23.1-23.6-22.9c-3,0-5.8,0.7-8.4,1.7
	c-4.6-13.4-17.4-23-32.4-22.7c-3.5,0.1-6.9,0.6-10,1.7C149.2,10.3,134.4-0.3,117.3,0c-16.6,0.3-30.6,10.7-36.3,25.2
	c-4.5-1.8-9.4-2.7-14.6-2.7c-15.2,0.2-28.1,9.4-34,22.4c-3-1.3-6.2-2-9.7-1.9C10.1,43.2-0.2,53.7,0,66.6
	c0.2,12.9,10.8,23.1,23.6,22.9c5.4-0.1,10.3-2,14.2-5.1c7.1,8.6,17.9,14.1,29.9,13.9c9.9-0.2,18.8-4.1,25.4-10.3"/>
</svg>
