<!-- Generator: Adobe Illustrator 18.1.1, SVG Export Plug-In  -->
<svg version="1.1"
	 xmlns="http://www.w3.org/2000/svg" xmlns:xlink="http://www.w3.org/1999/xlink" xmlns:a="http://ns.adobe.com/AdobeSVGViewerExtensions/3.0/"
	 x="0px" y="0px" width="358.8px" height="269.3px" viewBox="0 0 358.8 269.3" enable-background="new 0 0 358.8 269.3"
	 xml:space="preserve">
<defs>
</defs>
<g>
	<g opacity="0.2">
		<path d="M358.8,221c0,26.7-21.7,48.4-48.4,48.4H54.4C27.7,269.3,6,247.7,6,221V54.4C6,27.7,27.7,6,54.4,6h256.1
			c26.7,0,48.4,21.7,48.4,48.4V221z"/>
		<path d="M145.5,54.8c-0.9-2.1-2.9-3.4-5.1-3.4h-4.2c-2.2,0-4.2,1.3-5.1,3.4l-10.6,25.4c-1.5,3.6-2.3,7.4-2.3,11.3v89.7h40V91.5
			c0-3.9-0.8-7.7-2.3-11.3L145.5,54.8z"/>
		<path d="M138.3,51.4v129.7h20V91.5c0-3.9-0.8-7.7-2.3-11.3l-10.6-25.4c-0.9-2.1-2.9-3.4-5.1-3.4H138.3z"/>
		<path d="M142.9,55.2c1.3-0.1,2.3-0.8,2.5-1.7c0.6-3.2-9.4-2.6-11.6-2.2c-3.2,0.6-2.8,3.6,0.5,3.9C137,55.5,140.2,55.5,142.9,55.2z
			"/>
		<path d="M158.3,90.7c-1.8,3.2-5.2,5.2-8.8,5.2h-22.4c-3.7,0-7-2-8.8-5.2v90.4h40V90.7z"/>
		<path d="M158.3,90.7c-1.8,3.2-5.2,5.2-8.8,5.2h-11.2v85.3h20V90.7L158.3,90.7z"/>
		<rect x="118.2" y="117.1" width="40" height="5.5"/>
		<rect x="118.2" y="107.1" width="40" height="5.5"/>
		<rect x="118.2" y="127.1" width="40" height="5.5"/>
		<rect x="118.2" y="90.7" width="40" height="5.6"/>
		<path d="M320.6,80.1c-0.9-2.1-2.9-3.4-5.1-3.4h-4.2c-2.2,0-4.2,1.3-5.1,3.4l-10.6,25.4c-1.5,3.6-2.3,7.4-2.3,11.3v89.7h40v-89.7
			c0-3.9-0.8-7.7-2.3-11.3L320.6,80.1z"/>
		<path d="M313.4,76.7v129.7h20v-89.7c0-3.9-0.8-7.7-2.3-11.3l-10.6-25.4c-0.9-2.1-2.9-3.4-5.1-3.4H313.4z"/>
		<path d="M318,80.4c1.3-0.1,2.3-0.8,2.5-1.7c0.6-3.2-9.4-2.6-11.6-2.2c-3.2,0.6-2.8,3.6,0.5,3.9C312.1,80.7,315.3,80.7,318,80.4z"
			/>
		<path d="M333.4,116c-1.8,3.2-5.2,5.2-8.8,5.2h-22.4c-3.7,0-7-2-8.8-5.2v90.4h40V116z"/>
		<path d="M333.4,116c-1.8,3.2-5.2,5.2-8.8,5.2h-11.2v85.3h20V116L333.4,116z"/>
		<rect x="293.4" y="142.4" width="40" height="5.5"/>
		<rect x="293.4" y="132.3" width="40" height="5.5"/>
		<rect x="293.4" y="152.4" width="40" height="5.5"/>
		<rect x="293.4" y="116" width="40" height="5.6"/>
		<path d="M101.4,36.7c-0.9-2.1-2.9-3.4-5.1-3.4h-4.2c-2.2,0-4.2,1.3-5.1,3.4L76.4,62.1c-1.5,3.6-2.3,7.4-2.3,11.3v119.9h40V73.4
			c0-3.9-0.8-7.7-2.3-11.3L101.4,36.7z"/>
		<path d="M94.2,33.3v160h20V73.4c0-3.9-0.8-7.7-2.3-11.3l-10.6-25.4c-0.9-2.1-2.9-3.4-5.1-3.4H94.2z"/>
		<path d="M98.8,37.1c1.3-0.1,2.3-0.8,2.5-1.7c0.6-3.2-9.4-2.6-11.6-2.2c-3.2,0.6-2.8,3.6,0.4,3.9C92.9,37.4,96.1,37.4,98.8,37.1z"
			/>
		<path d="M114.2,72.6c-1.8,3.2-5.2,5.2-8.8,5.2H83c-3.7,0-7-2-8.8-5.2v120.7h40V72.6z"/>
		<path d="M114.2,72.6c-1.8,3.2-5.2,5.2-8.8,5.2H94.2v115.5h20V72.6L114.2,72.6z"/>
		<rect x="74.1" y="99" width="40" height="5.5"/>
		<rect x="74.1" y="89" width="40" height="5.5"/>
		<rect x="74.1" y="109" width="40" height="5.5"/>
		<rect x="74.1" y="72.6" width="40" height="5.6"/>
		<path d="M277.1,94.7c-0.9-2.1-2.9-3.4-5.1-3.4h-4.2c-2.2,0-4.2,1.3-5.1,3.4l-10.6,25.4c-1.5,3.6-2.3,7.4-2.3,11.3v119.9h40V131.4
			c0-3.9-0.8-7.7-2.3-11.3L277.1,94.7z"/>
		<path d="M269.9,91.3v160h20V131.4c0-3.9-0.8-7.7-2.3-11.3l-10.6-25.4c-0.9-2.1-2.9-3.4-5.1-3.4H269.9z"/>
		<path d="M274.5,95.1c1.3-0.1,2.3-0.8,2.5-1.7c0.6-3.2-9.4-2.6-11.6-2.2c-3.2,0.6-2.8,3.6,0.4,3.9
			C268.6,95.4,271.8,95.3,274.5,95.1z"/>
		<path d="M290,130.6c-1.8,3.2-5.2,5.2-8.8,5.2h-22.4c-3.7,0-7-2-8.8-5.2v120.7h40V130.6z"/>
		<path d="M290,130.6c-1.8,3.2-5.2,5.2-8.8,5.2h-11.2v115.5h20V130.6L290,130.6z"/>
		<rect x="249.9" y="157" width="40" height="5.5"/>
		<rect x="249.9" y="146.9" width="40" height="5.5"/>
		<rect x="249.9" y="167" width="40" height="5.5"/>
		<rect x="249.9" y="130.6" width="40" height="5.6"/>
		<path d="M57.3,69c-0.9-2.1-2.9-3.4-5.1-3.4H48c-2.2,0-4.2,1.3-5.1,3.4L32.3,94.4c-1.5,3.6-2.3,7.4-2.3,11.3v89.7h40v-89.7
			c0-3.9-0.8-7.7-2.3-11.3L57.3,69z"/>
		<path d="M50.1,65.6v129.7h20v-89.7c0-3.9-0.8-7.7-2.3-11.3L57.3,69c-0.9-2.1-2.9-3.4-5.1-3.4H50.1z"/>
		<path d="M54.7,69.4c1.3-0.1,2.3-0.8,2.5-1.7c0.6-3.2-9.4-2.6-11.6-2.2c-3.2,0.6-2.8,3.6,0.5,3.9C48.8,69.7,52,69.6,54.7,69.4z"/>
		<path d="M70.1,104.9c-1.8,3.2-5.2,5.2-8.8,5.2H38.9c-3.7,0-7-2-8.8-5.2v90.4h40V104.9z"/>
		<path d="M70.1,104.9c-1.8,3.2-5.2,5.2-8.8,5.2H50.1v85.3h20V104.9L70.1,104.9z"/>
		<rect x="30.1" y="131.3" width="40" height="5.5"/>
		<rect x="30.1" y="121.2" width="40" height="5.5"/>
		<rect x="30.1" y="141.3" width="40" height="5.5"/>
		<rect x="30.1" y="104.9" width="40" height="5.6"/>
		<path d="M175.2,69c0.9-2.1,2.9-3.4,5.1-3.4h4.2c2.2,0,4.2,1.3,5.1,3.4l10.6,25.4c1.5,3.6,2.3,7.4,2.3,11.3v89.7h-40v-89.7
			c0-3.9,0.8-7.7,2.3-11.3L175.2,69z"/>
		<path d="M182.4,65.6v129.7h20v-89.7c0-3.9-0.8-7.7-2.3-11.3L189.6,69c-0.9-2.1-2.9-3.4-5.1-3.4H182.4z"/>
		<path d="M177.8,69.4c-1.3-0.1-2.3-0.8-2.5-1.7c-0.6-3.2,9.4-2.6,11.6-2.2c3.2,0.6,2.8,3.6-0.4,3.9
			C183.6,69.7,180.5,69.6,177.8,69.4z"/>
		<path d="M162.3,104.9c1.8,3.2,5.2,5.2,8.8,5.2h22.4c3.7,0,7-2,8.8-5.2v90.4h-40V104.9z"/>
		<path d="M202.4,104.9c-1.8,3.2-5.2,5.2-8.8,5.2h-11.2v85.3h20V104.9L202.4,104.9z"/>
		<rect x="162.3" y="131.3" width="40" height="5.5"/>
		<rect x="162.3" y="121.2" width="40" height="5.5"/>
		<rect x="162.3" y="141.3" width="40" height="5.5"/>
		<rect x="162.3" y="104.9" width="40" height="5.6"/>
		<path d="M219.2,69c0.9-2.1,2.9-3.4,5.1-3.4h4.2c2.2,0,4.2,1.3,5.1,3.4l10.6,25.4c1.5,3.6,2.3,7.4,2.3,11.3v89.7h-40v-89.7
			c0-3.9,0.8-7.7,2.3-11.3L219.2,69z"/>
		<path d="M226.4,65.6v129.7h20v-89.7c0-3.9-0.8-7.7-2.3-11.3L233.6,69c-0.9-2.1-2.9-3.4-5.1-3.4H226.4z"/>
		<path d="M221.8,69.4c-1.3-0.1-2.3-0.8-2.5-1.7c-0.6-3.2,9.4-2.6,11.6-2.2c3.2,0.6,2.8,3.6-0.5,3.9
			C227.7,69.7,224.5,69.6,221.8,69.4z"/>
		<path d="M206.4,104.9c1.8,3.2,5.2,5.2,8.8,5.2h22.4c3.7,0,7-2,8.8-5.2v90.4h-40V104.9z"/>
		<path d="M246.5,104.9c-1.8,3.2-5.2,5.2-8.8,5.2h-11.2v85.3h20V104.9L246.5,104.9z"/>
		<rect x="206.4" y="131.3" width="40" height="5.5"/>
		<rect x="206.4" y="121.2" width="40" height="5.5"/>
		<rect x="206.4" y="141.3" width="40" height="5.5"/>
		<rect x="206.4" y="104.9" width="40" height="5.6"/>
		<path d="M358.8,134.2c0,26.7-21.7,48.4-48.4,48.4H54.4C27.7,182.5,6,160.9,6,134.2V221c0,26.7,21.7,48.4,48.4,48.4h256.1
			c26.7,0,48.4-21.7,48.4-48.4V134.2z"/>
	</g>
	<g>
		<g>
			<g>
				<path fill="#4C091C" d="M352.8,215c0,26.7-21.7,48.4-48.4,48.4H48.4C21.7,263.3,0,241.7,0,215V48.4C0,21.7,21.7,0,48.4,0h256.1
					c26.7,0,48.4,21.7,48.4,48.4V215z"/>
				<path fill="#23BEBE" d="M139.5,48.8c-0.9-2.1-2.9-3.4-5.1-3.4h-4.2c-2.2,0-4.2,1.3-5.1,3.4l-10.6,25.4
					c-1.5,3.6-2.3,7.4-2.3,11.3v89.7h40V85.5c0-3.9-0.8-7.7-2.3-11.3L139.5,48.8z"/>
				<path fill="#00A0A0" d="M132.3,45.4v129.7h20V85.5c0-3.9-0.8-7.7-2.3-11.3l-10.6-25.4c-0.9-2.1-2.9-3.4-5.1-3.4H132.3z"/>
				<path fill="#FFFFFF" d="M136.9,49.2c1.3-0.1,2.3-0.8,2.5-1.7c0.6-3.2-9.4-2.6-11.6-2.2c-3.2,0.6-2.8,3.6,0.5,3.9
					C131,49.5,134.2,49.5,136.9,49.2z"/>
				<path fill="#FFBE23" d="M152.3,84.7c-1.8,3.2-5.2,5.2-8.8,5.2h-22.4c-3.7,0-7-2-8.8-5.2v90.4h40V84.7z"/>
				<path fill="#FFAA28" d="M152.3,84.7c-1.8,3.2-5.2,5.2-8.8,5.2h-11.2v85.3h20V84.7L152.3,84.7z"/>
				<rect x="112.2" y="111.1" fill="#FFFFFF" width="40" height="5.5"/>
				<rect x="112.2" y="101.1" fill="#FFFFFF" width="40" height="5.5"/>
				<rect x="112.2" y="121.1" fill="#FFFFFF" width="40" height="5.5"/>
				<rect x="112.2" y="84.7" fill="#FFFFFF" width="40" height="5.6"/>
				<path fill="#23BEBE" d="M314.6,74.1c-0.9-2.1-2.9-3.4-5.1-3.4h-4.2c-2.2,0-4.2,1.3-5.1,3.4l-10.6,25.4
					c-1.5,3.6-2.3,7.4-2.3,11.3v89.7h40v-89.7c0-3.9-0.8-7.7-2.3-11.3L314.6,74.1z"/>
				<path fill="#00A0A0" d="M307.4,70.7v129.7h20v-89.7c0-3.9-0.8-7.7-2.3-11.3l-10.6-25.4c-0.9-2.1-2.9-3.4-5.1-3.4H307.4z"/>
				<path fill="#FFFFFF" d="M312,74.4c1.3-0.1,2.3-0.8,2.5-1.7c0.6-3.2-9.4-2.6-11.6-2.2c-3.2,0.6-2.8,3.6,0.5,3.9
					C306.1,74.7,309.3,74.7,312,74.4z"/>
				<path fill="#FFBE23" d="M327.4,110c-1.8,3.2-5.2,5.2-8.8,5.2h-22.4c-3.7,0-7-2-8.8-5.2v90.4h40V110z"/>
				<path fill="#FFAA28" d="M327.4,110c-1.8,3.2-5.2,5.2-8.8,5.2h-11.2v85.3h20V110L327.4,110z"/>
				<rect x="287.4" y="136.4" fill="#FFFFFF" width="40" height="5.5"/>
				<rect x="287.4" y="126.3" fill="#FFFFFF" width="40" height="5.5"/>
				<rect x="287.4" y="146.4" fill="#FFFFFF" width="40" height="5.5"/>
				<rect x="287.4" y="110" fill="#FFFFFF" width="40" height="5.6"/>
				<path fill="#F05064" d="M95.4,30.7c-0.9-2.1-2.9-3.4-5.1-3.4h-4.2c-2.2,0-4.2,1.3-5.1,3.4L70.4,56.1c-1.5,3.6-2.3,7.4-2.3,11.3
					v119.9h40V67.4c0-3.9-0.8-7.7-2.3-11.3L95.4,30.7z"/>
				<path fill="#E63246" d="M88.2,27.3v160h20V67.4c0-3.9-0.8-7.7-2.3-11.3L95.4,30.7c-0.9-2.1-2.9-3.4-5.1-3.4H88.2z"/>
				<path fill="#FFFFFF" d="M92.8,31.1c1.3-0.1,2.3-0.8,2.5-1.7c0.6-3.2-9.4-2.6-11.6-2.2c-3.2,0.6-2.8,3.6,0.4,3.9
					C86.9,31.4,90.1,31.4,92.8,31.1z"/>
				<path fill="#23BEBE" d="M108.2,66.6c-1.8,3.2-5.2,5.2-8.8,5.2H77c-3.7,0-7-2-8.8-5.2v120.7h40V66.6z"/>
				<path fill="#00A0A0" d="M108.2,66.6c-1.8,3.2-5.2,5.2-8.8,5.2H88.2v115.5h20V66.6L108.2,66.6z"/>
				<rect x="68.1" y="93" fill="#FFFFFF" width="40" height="5.5"/>
				<rect x="68.1" y="83" fill="#FFFFFF" width="40" height="5.5"/>
				<rect x="68.1" y="103" fill="#FFFFFF" width="40" height="5.5"/>
				<rect x="68.1" y="66.6" fill="#FFFFFF" width="40" height="5.6"/>
				<path fill="#F05064" d="M271.1,88.7c-0.9-2.1-2.9-3.4-5.1-3.4h-4.2c-2.2,0-4.2,1.3-5.1,3.4l-10.6,25.4
					c-1.5,3.6-2.3,7.4-2.3,11.3v119.9h40V125.4c0-3.9-0.8-7.7-2.3-11.3L271.1,88.7z"/>
				<path fill="#E63246" d="M263.9,85.3v160h20V125.4c0-3.9-0.8-7.7-2.3-11.3l-10.6-25.4c-0.9-2.1-2.9-3.4-5.1-3.4H263.9z"/>
				<path fill="#FFFFFF" d="M268.5,89.1c1.3-0.1,2.3-0.8,2.5-1.7c0.6-3.2-9.4-2.6-11.6-2.2c-3.2,0.6-2.8,3.6,0.4,3.9
					C262.6,89.4,265.8,89.3,268.5,89.1z"/>
				<path fill="#23BEBE" d="M284,124.6c-1.8,3.2-5.2,5.2-8.8,5.2h-22.4c-3.7,0-7-2-8.8-5.2v120.7h40V124.6z"/>
				<path fill="#00A0A0" d="M284,124.6c-1.8,3.2-5.2,5.2-8.8,5.2h-11.2v115.5h20V124.6L284,124.6z"/>
				<rect x="243.9" y="151" fill="#FFFFFF" width="40" height="5.5"/>
				<rect x="243.9" y="140.9" fill="#FFFFFF" width="40" height="5.5"/>
				<rect x="243.9" y="161" fill="#FFFFFF" width="40" height="5.5"/>
				<rect x="243.9" y="124.6" fill="#FFFFFF" width="40" height="5.6"/>
				<path fill="#23BEBE" d="M51.3,63c-0.9-2.1-2.9-3.4-5.1-3.4H42c-2.2,0-4.2,1.3-5.1,3.4L26.3,88.4c-1.5,3.6-2.3,7.4-2.3,11.3v89.7
					h40V99.7c0-3.9-0.8-7.7-2.3-11.3L51.3,63z"/>
				<path fill="#00A0A0" d="M44.1,59.6v129.7h20V99.7c0-3.9-0.8-7.7-2.3-11.3L51.3,63c-0.9-2.1-2.9-3.4-5.1-3.4H44.1z"/>
				<path fill="#FFFFFF" d="M48.7,63.4c1.3-0.1,2.3-0.8,2.5-1.7c0.6-3.2-9.4-2.6-11.6-2.2c-3.2,0.6-2.8,3.6,0.5,3.9
					C42.8,63.7,46,63.6,48.7,63.4z"/>
				<path fill="#F05064" d="M64.1,98.9c-1.8,3.2-5.2,5.2-8.8,5.2H32.9c-3.7,0-7-2-8.8-5.2v90.4h40V98.9z"/>
				<path fill="#E63246" d="M64.1,98.9c-1.8,3.2-5.2,5.2-8.8,5.2H44.1v85.3h20V98.9L64.1,98.9z"/>
				<rect x="24.1" y="125.3" fill="#FFFFFF" width="40" height="5.5"/>
				<rect x="24.1" y="115.2" fill="#FFFFFF" width="40" height="5.5"/>
				<rect x="24.1" y="135.3" fill="#FFFFFF" width="40" height="5.5"/>
				<rect x="24.1" y="98.9" fill="#FFFFFF" width="40" height="5.6"/>
				<path fill="#FFBE23" d="M169.2,63c0.9-2.1,2.9-3.4,5.1-3.4h4.2c2.2,0,4.2,1.3,5.1,3.4l10.6,25.4c1.5,3.6,2.3,7.4,2.3,11.3v89.7
					h-40V99.7c0-3.9,0.8-7.7,2.3-11.3L169.2,63z"/>
				<path fill="#FFAA28" d="M176.4,59.6v129.7h20V99.7c0-3.9-0.8-7.7-2.3-11.3L183.6,63c-0.9-2.1-2.9-3.4-5.1-3.4H176.4z"/>
				<path fill="#FFFFFF" d="M171.8,63.4c-1.3-0.1-2.3-0.8-2.5-1.7c-0.6-3.2,9.4-2.6,11.6-2.2c3.2,0.6,2.8,3.6-0.4,3.9
					C177.6,63.7,174.5,63.6,171.8,63.4z"/>
				<path fill="#F05064" d="M156.3,98.9c1.8,3.2,5.2,5.2,8.8,5.2h22.4c3.7,0,7-2,8.8-5.2v90.4h-40V98.9z"/>
				<path fill="#E63246" d="M196.4,98.9c-1.8,3.2-5.2,5.2-8.8,5.2h-11.2v85.3h20V98.9L196.4,98.9z"/>
				<rect x="156.3" y="125.3" fill="#FFFFFF" width="40" height="5.5"/>
				<rect x="156.3" y="115.2" fill="#FFFFFF" width="40" height="5.5"/>
				<rect x="156.3" y="135.3" fill="#FFFFFF" width="40" height="5.5"/>
				<rect x="156.3" y="98.9" fill="#FFFFFF" width="40" height="5.6"/>
				<path fill="#F05064" d="M213.2,63c0.9-2.1,2.9-3.4,5.1-3.4h4.2c2.2,0,4.2,1.3,5.1,3.4l10.6,25.4c1.5,3.6,2.3,7.4,2.3,11.3v89.7
					h-40V99.7c0-3.9,0.8-7.7,2.3-11.3L213.2,63z"/>
				<path fill="#E63246" d="M220.4,59.6v129.7h20V99.7c0-3.9-0.8-7.7-2.3-11.3L227.6,63c-0.9-2.1-2.9-3.4-5.1-3.4H220.4z"/>
				<path fill="#FFFFFF" d="M215.8,63.4c-1.3-0.1-2.3-0.8-2.5-1.7c-0.6-3.2,9.4-2.6,11.6-2.2c3.2,0.6,2.8,3.6-0.5,3.9
					C221.7,63.7,218.5,63.6,215.8,63.4z"/>
				<path fill="#23BEBE" d="M200.4,98.9c1.8,3.2,5.2,5.2,8.8,5.2h22.4c3.7,0,7-2,8.8-5.2v90.4h-40V98.9z"/>
				<path fill="#00A0A0" d="M240.5,98.9c-1.8,3.2-5.2,5.2-8.8,5.2h-11.2v85.3h20V98.9L240.5,98.9z"/>
				<rect x="200.4" y="125.3" fill="#FFFFFF" width="40" height="5.5"/>
				<rect x="200.4" y="115.2" fill="#FFFFFF" width="40" height="5.5"/>
				<rect x="200.4" y="135.3" fill="#FFFFFF" width="40" height="5.5"/>
				<rect x="200.4" y="98.9" fill="#FFFFFF" width="40" height="5.6"/>
				<path fill="#CD1543" d="M352.8,128.2c0,26.7-21.7,48.4-48.4,48.4H48.4C21.7,176.5,0,154.9,0,128.2V215
					c0,26.7,21.7,48.4,48.4,48.4h256.1c26.7,0,48.4-21.7,48.4-48.4V128.2z"/>
			</g>
		</g>
	</g>
</g>
<g>
	<g opacity="0.4">
		<rect x="4.6" y="202.6" fill="none" width="351.1" height="61.4"/>
		
			<text transform="matrix(1 0 0 1 80.7792 243.626)" fill="#5F8989" font-family="'OstrichSans-Black'" font-size="55.6222" letter-spacing="4">coloring</text>
	</g>
	<g>
		<rect x="1.8" y="199.9" fill="none" width="351.1" height="61.4"/>
		
			<text transform="matrix(1 0 0 1 77.9981 240.8449)" fill="#FFFFFF" font-family="'OstrichSans-Black'" font-size="55.6222" letter-spacing="4">coloring</text>
	</g>
</g>
</svg>
