<!-- Generator: Adobe Illustrator 18.1.1, SVG Export Plug-In  -->
<svg version="1.1"
	 xmlns="http://www.w3.org/2000/svg" xmlns:xlink="http://www.w3.org/1999/xlink" xmlns:a="http://ns.adobe.com/AdobeSVGViewerExtensions/3.0/"
	 x="0px" y="0px" width="358.4px" height="222.4px" viewBox="0 0 358.4 222.4" enable-background="new 0 0 358.4 222.4"
	 xml:space="preserve">
<defs>
</defs>
<g>
	<defs>
		<circle id="SVGID_1_" cx="179.7" cy="111.2" r="111.2"/>
	</defs>
	<clipPath id="SVGID_2_">
		<use xlink:href="#SVGID_1_"  overflow="visible"/>
	</clipPath>
	<path opacity="0.2" clip-path="url(#SVGID_2_)" fill="#231F20" d="M349.8,41.5c0.2-0.4,0.4-0.8,0.7-1.2c0.2-0.3,0.3-0.6,0.5-0.9
		c0.2-0.4,0.4-0.8,0.6-1.2c0.1-0.3,0.3-0.6,0.4-0.8c0.2-0.4,0.4-0.8,0.6-1.2c0.1-0.3,0.2-0.5,0.4-0.8c0.2-0.4,0.4-0.8,0.5-1.1
		c0.1-0.2,0.2-0.4,0.3-0.7c0.2-0.4,0.4-0.8,0.5-1.1c0.1-0.2,0.1-0.3,0.2-0.5c0.6-1.4,1.2-2.7,1.7-3.9c0-0.1,0-0.1,0.1-0.2
		c0.1-0.3,0.3-0.6,0.4-0.9c0-0.1,0.1-0.2,0.1-0.4c0.1-0.3,0.2-0.5,0.3-0.8c0-0.1,0.1-0.3,0.1-0.4c0.1-0.2,0.2-0.4,0.2-0.6
		c0-0.1,0.1-0.2,0.1-0.3c0.1-0.2,0.1-0.4,0.2-0.5c0-0.1,0.1-0.2,0.1-0.3c0.1-0.1,0.1-0.3,0.1-0.4c0-0.1,0-0.1,0.1-0.2
		c0-0.1,0.1-0.2,0.1-0.3c0,0,0-0.1,0-0.1c0.1-0.2,0.1-0.3,0.1-0.3s0,0,0,0c0,0,0,0-0.1,0c0,0-0.1,0-0.1,0c-0.1,0-0.1,0-0.2,0
		c-0.1,0-0.2,0-0.3-0.1c-0.1,0-0.2,0-0.3-0.1c-0.1,0-0.2-0.1-0.4-0.1c-0.1,0-0.2,0-0.3-0.1c-0.2,0-0.3-0.1-0.5-0.1
		c-0.1,0-0.2-0.1-0.4-0.1c-0.2,0-0.4-0.1-0.7-0.1c-0.1,0-0.3-0.1-0.4-0.1c-0.3-0.1-0.5-0.1-0.8-0.2c-0.1,0-0.3-0.1-0.4-0.1
		c-0.3-0.1-0.6-0.1-0.9-0.2c-0.1,0-0.2,0-0.3,0c-1.2-0.2-2.6-0.4-4.1-0.7c-0.2,0-0.3-0.1-0.5-0.1c-0.4-0.1-0.8-0.1-1.2-0.2
		c-0.2,0-0.5-0.1-0.7-0.1c-0.4-0.1-0.8-0.1-1.3-0.2c-0.3,0-0.6-0.1-0.8-0.1c-0.4,0-0.9-0.1-1.3-0.1c-0.3,0-0.6-0.1-0.9-0.1
		c-0.4,0-0.9-0.1-1.3-0.1c-0.3,0-0.7-0.1-1-0.1c-0.5,0-0.9-0.1-1.4-0.1c-0.1,0-0.2,0-0.3,0c0,0,0,0,0,0c-1.5-0.1-3.1-0.2-4.7-0.3
		c-3.7-0.1-7.7-0.1-11.9,0.1c-2.1,0.1-4.2,0.3-6.3,0.5c-2.1,0.2-4.3,0.5-6.5,0.9c-2.2,0.4-4.4,0.8-6.6,1.4c-6.6,1.6-13.2,4-19.5,7.4
		c-6.7,3.7-12.5,7.5-17.4,11.3l-48.3,3.5l-0.3,2.3l30.4,15.6c-0.2,0.5-0.4,0.9-0.6,1.4c-0.1,0.2-0.1,0.4-0.2,0.6
		c-0.2,0.5-0.3,1-0.5,1.5c-0.1,0.2-0.1,0.3-0.2,0.5c0,0.1-0.1,0.2-0.1,0.3c-0.3,1.1-0.5,2.2-0.7,3.3c0,0.1,0,0.2,0,0.2
		c0,0.2,0,0.3-0.1,0.5c-0.1,0.5-0.1,0.9-0.1,1.4c0,0.2,0,0.4,0,0.6c0,0.4,0,0.9,0,1.3c0,0.2,0,0.4,0,0.5c0,0.5,0.1,0.9,0.1,1.4
		c-0.3-0.1-0.7,0-1.1,0.1c-0.2,0-0.4,0.1-0.5,0.2c-1,0.6-1.5,1.6-1.1,2.4l0.3,0.5c0,0,0,0,0,0l-0.9-1.7c-0.5-1-1.8-1.3-2.8-0.8
		c-0.8,0.4-1.2,1.4-1,2.2L0,194.3l78.1,6.2L248,96.4c0.3,0,0.6-0.1,0.9-0.2c1-0.6,1.3-2,0.6-3.2l-0.7-1.3c0.6,1,1.8,1.4,2.8,0.8
		c0.8-0.4,1.2-1.3,1.1-2.1c0.1,0.1,0.2,0.1,0.3,0.2c0.1,0.1,0.3,0.2,0.4,0.3c0.4,0.3,0.7,0.5,1.1,0.7c0.2,0.1,0.3,0.2,0.5,0.3
		c0.4,0.2,0.8,0.4,1.2,0.7c0.1,0.1,0.3,0.2,0.4,0.2c1.2,0.5,2.4,1,3.7,1.4c0.2,0.1,0.3,0.1,0.5,0.1c0.5,0.1,1,0.3,1.5,0.4
		c0.2,0,0.4,0.1,0.6,0.1c0.6,0.1,1.1,0.2,1.7,0.3c0,0,0,0,0.1,0l-3.3,34.4l2.1,1l29.5-39.4l0,0c5.7-2,11.7-4.8,18.2-8.3
		c18.6-10.2,31-27.7,38.4-41.3c0,0,0,0,0,0C349.8,41.7,349.8,41.6,349.8,41.5z"/>
</g>
</svg>
