<!-- Generator: Adobe Illustrator 18.1.1, SVG Export Plug-In  -->
<svg version="1.1"
	 xmlns="http://www.w3.org/2000/svg" xmlns:xlink="http://www.w3.org/1999/xlink" xmlns:a="http://ns.adobe.com/AdobeSVGViewerExtensions/3.0/"
	 x="0px" y="0px" width="318.2px" height="468.8px" viewBox="0 0 318.2 468.8" enable-background="new 0 0 318.2 468.8"
	 xml:space="preserve">
<defs>
</defs>
<g>
	<polygon fill="#130000" points="147.5,396.4 152.7,377.4 151.5,377 147.5,391.4 147.5,377.2 146.1,377.2 146.1,391.8 142,377 
		140.8,377.4 146.2,396.8 146.7,396.7 147.3,396.8 147.4,396.6 147.5,396.6 	"/>
	<polygon fill="#130000" points="172.2,396.4 177.5,377.4 176.2,377 172.2,391.4 172.2,377.2 170.9,377.2 170.9,391.8 166.8,377 
		165.5,377.4 170.9,396.8 171.5,396.7 172.1,396.8 172.1,396.6 172.2,396.6 	"/>
	<g>
		<path fill="#F16646" d="M173.6,22.4c-7.4,0-12.6,0.4-14.5,0.5c-1.9-0.2-7.1-0.5-14.5-0.5C104.5,22.2,0,32,0,137.9
			c0,89.8,90.4,186.5,135.3,229h1h45.6h1c44.9-42.5,135.3-139.1,135.3-229C318.2,32,213.7,22.2,173.6,22.4z"/>
		<g>
			<g>
				<path fill="#9F412A" d="M43.1,231.9c-0.1-0.3-0.5-0.4-0.7-0.3c-0.3,0.1-0.4,0.5-0.3,0.7c0.4,0.8,0.8,1.6,1.2,2.4
					c0.1,0.2,0.3,0.3,0.5,0.3c0.1,0,0.2,0,0.2-0.1c0.3-0.1,0.4-0.5,0.2-0.7C43.9,233.5,43.5,232.7,43.1,231.9z"/>
				<path fill="#9F412A" d="M37.9,220.9c-0.1-0.3-0.4-0.4-0.7-0.3c-0.3,0.1-0.4,0.4-0.3,0.7c0.4,0.8,0.7,1.6,1.1,2.4
					c0.1,0.2,0.3,0.3,0.5,0.3c0.1,0,0.2,0,0.2,0c0.3-0.1,0.4-0.4,0.3-0.7C38.7,222.5,38.3,221.7,37.9,220.9z"/>
				<path fill="#9F412A" d="M45.8,237.4c-0.1-0.3-0.5-0.4-0.7-0.2c-0.3,0.1-0.4,0.5-0.2,0.7c0.4,0.8,0.8,1.6,1.2,2.3
					c0.1,0.2,0.3,0.3,0.5,0.3c0.1,0,0.2,0,0.2-0.1c0.3-0.1,0.4-0.5,0.2-0.7C46.6,239,46.2,238.2,45.8,237.4z"/>
				<path fill="#9F412A" d="M40.5,226.4c-0.1-0.3-0.5-0.4-0.7-0.3c-0.3,0.1-0.4,0.5-0.3,0.7c0.4,0.8,0.7,1.6,1.1,2.4
					c0.1,0.2,0.3,0.3,0.5,0.3c0.1,0,0.2,0,0.2-0.1c0.3-0.1,0.4-0.5,0.3-0.7C41.2,228,40.8,227.2,40.5,226.4z"/>
				<path fill="#9F412A" d="M35.5,215.3c-0.1-0.3-0.4-0.4-0.7-0.3c-0.3,0.1-0.4,0.4-0.3,0.7c0.3,0.8,0.7,1.6,1,2.4
					c0.1,0.2,0.3,0.3,0.5,0.3c0.1,0,0.1,0,0.2,0c0.3-0.1,0.4-0.4,0.3-0.7C36.2,216.9,35.9,216.1,35.5,215.3z"/>
				<path fill="#9F412A" d="M48.6,242.8c-0.1-0.3-0.5-0.4-0.7-0.2c-0.3,0.1-0.4,0.5-0.2,0.7c0.4,0.8,0.8,1.5,1.2,2.3
					c0.1,0.2,0.3,0.3,0.5,0.3c0.1,0,0.2,0,0.3-0.1c0.3-0.1,0.4-0.5,0.2-0.7C49.4,244.4,49,243.6,48.6,242.8z"/>
				<path fill="#9F412A" d="M54.5,253.6c-0.1-0.3-0.5-0.4-0.7-0.2c-0.3,0.1-0.4,0.5-0.2,0.7c0.4,0.8,0.9,1.5,1.3,2.3
					c0.1,0.2,0.3,0.3,0.5,0.3c0.1,0,0.2,0,0.3-0.1c0.3-0.1,0.4-0.5,0.2-0.7C55.3,255.1,54.9,254.3,54.5,253.6z"/>
				<path fill="#9F412A" d="M57.5,258.9c-0.1-0.3-0.5-0.3-0.7-0.2c-0.3,0.2-0.3,0.5-0.2,0.7c0.4,0.8,0.9,1.5,1.3,2.3
					c0.1,0.2,0.3,0.3,0.5,0.3c0.1,0,0.2,0,0.3-0.1c0.3-0.2,0.3-0.5,0.2-0.7C58.4,260.4,57.9,259.6,57.5,258.9z"/>
				<path fill="#9F412A" d="M51.5,248.2c-0.1-0.3-0.5-0.4-0.7-0.2c-0.3,0.1-0.4,0.5-0.2,0.7c0.4,0.8,0.8,1.5,1.3,2.3
					c0.1,0.2,0.3,0.3,0.5,0.3c0.1,0,0.2,0,0.3-0.1c0.3-0.1,0.4-0.5,0.2-0.7C52.3,249.7,51.9,249,51.5,248.2z"/>
				<path fill="#9F412A" d="M60.6,264.1c-0.2-0.3-0.5-0.3-0.7-0.2c-0.3,0.2-0.3,0.5-0.2,0.7c0.4,0.8,0.9,1.5,1.3,2.2
					c0.1,0.2,0.3,0.3,0.5,0.3c0.1,0,0.2,0,0.3-0.1c0.3-0.2,0.3-0.5,0.2-0.8C61.5,265.6,61,264.9,60.6,264.1z"/>
				<path fill="#9F412A" d="M25.9,189.2c-0.3-0.8-0.5-1.7-0.8-2.5c-0.1-0.3-0.4-0.5-0.7-0.4c-0.3,0.1-0.5,0.4-0.4,0.7
					c0.3,0.8,0.5,1.7,0.8,2.5c0.1,0.2,0.3,0.4,0.5,0.4c0.1,0,0.1,0,0.2,0C25.8,189.7,25.9,189.4,25.9,189.2z"/>
				<path fill="#9F412A" d="M24.1,183.3c-0.2-0.8-0.5-1.7-0.7-2.5c-0.1-0.3-0.4-0.5-0.7-0.4c-0.3,0.1-0.5,0.4-0.4,0.7
					c0.2,0.8,0.5,1.7,0.7,2.5c0.1,0.2,0.3,0.4,0.5,0.4c0,0,0.1,0,0.2,0C24,183.9,24.2,183.6,24.1,183.3z"/>
				<path fill="#9F412A" d="M21.1,171.5c-0.2-0.9-0.4-1.7-0.6-2.6c-0.1-0.3-0.4-0.5-0.6-0.4c-0.3,0.1-0.5,0.4-0.4,0.6
					c0.2,0.9,0.4,1.7,0.6,2.6c0.1,0.3,0.3,0.4,0.5,0.4c0,0,0.1,0,0.1,0C21,172.1,21.2,171.8,21.1,171.5z"/>
				<path fill="#9F412A" d="M26.9,192.5c-0.1-0.3-0.4-0.4-0.7-0.3c-0.3,0.1-0.4,0.4-0.3,0.7c0.3,0.8,0.5,1.7,0.8,2.5
					c0.1,0.2,0.3,0.4,0.5,0.4c0.1,0,0.1,0,0.2,0c0.3-0.1,0.4-0.4,0.3-0.7C27.5,194.1,27.2,193.3,26.9,192.5z"/>
				<path fill="#9F412A" d="M22.5,177.4c-0.2-0.8-0.4-1.7-0.6-2.5c-0.1-0.3-0.4-0.5-0.7-0.4c-0.3,0.1-0.5,0.4-0.4,0.7
					c0.2,0.8,0.4,1.7,0.6,2.5c0.1,0.2,0.3,0.4,0.5,0.4c0,0,0.1,0,0.1,0C22.4,178,22.6,177.7,22.5,177.4z"/>
				<path fill="#9F412A" d="M31,204c-0.1-0.3-0.4-0.4-0.7-0.3c-0.3,0.1-0.4,0.4-0.3,0.7c0.3,0.8,0.6,1.6,0.9,2.5
					c0.1,0.2,0.3,0.3,0.5,0.3c0.1,0,0.1,0,0.2,0c0.3-0.1,0.4-0.4,0.3-0.7C31.6,205.6,31.3,204.8,31,204z"/>
				<path fill="#9F412A" d="M33.2,209.7c-0.1-0.3-0.4-0.4-0.7-0.3c-0.3,0.1-0.4,0.4-0.3,0.7c0.3,0.8,0.7,1.6,1,2.4
					c0.1,0.2,0.3,0.3,0.5,0.3c0.1,0,0.1,0,0.2,0c0.3-0.1,0.4-0.4,0.3-0.7C33.8,211.3,33.5,210.5,33.2,209.7z"/>
				<path fill="#9F412A" d="M28.9,198.2c-0.1-0.3-0.4-0.4-0.7-0.3c-0.3,0.1-0.4,0.4-0.3,0.7c0.3,0.8,0.6,1.6,0.9,2.5
					c0.1,0.2,0.3,0.4,0.5,0.4c0.1,0,0.1,0,0.2,0c0.3-0.1,0.4-0.4,0.3-0.7C29.5,199.9,29.2,199.1,28.9,198.2z"/>
				<path fill="#9F412A" d="M27.5,72.5c-0.3-0.1-0.6,0-0.7,0.3c-0.3,0.8-0.7,1.6-1,2.4c-0.1,0.3,0,0.6,0.3,0.7c0.1,0,0.1,0,0.2,0
					c0.2,0,0.4-0.1,0.5-0.3c0.3-0.8,0.7-1.6,1-2.4C27.9,72.9,27.8,72.6,27.5,72.5z"/>
				<path fill="#9F412A" d="M90.9,309.8c-0.2-0.2-0.5-0.3-0.8-0.1c-0.2,0.2-0.3,0.5-0.1,0.8c0.5,0.7,1,1.4,1.6,2.1
					c0.1,0.1,0.3,0.2,0.4,0.2c0.1,0,0.2,0,0.3-0.1c0.2-0.2,0.3-0.5,0.1-0.8C92,311.2,91.5,310.5,90.9,309.8z"/>
				<path fill="#9F412A" d="M94.6,314.7c-0.2-0.2-0.5-0.3-0.8-0.1c-0.2,0.2-0.3,0.5-0.1,0.8c0.5,0.7,1,1.4,1.6,2.1
					c0.1,0.1,0.3,0.2,0.4,0.2c0.1,0,0.2,0,0.3-0.1c0.2-0.2,0.3-0.5,0.1-0.8C95.6,316.1,95.1,315.4,94.6,314.7z"/>
				<path fill="#9F412A" d="M63.7,269.3c-0.2-0.3-0.5-0.3-0.7-0.2c-0.3,0.2-0.3,0.5-0.2,0.7c0.5,0.7,0.9,1.5,1.4,2.2
					c0.1,0.2,0.3,0.3,0.5,0.3c0.1,0,0.2,0,0.3-0.1c0.3-0.2,0.3-0.5,0.2-0.8C64.6,270.8,64.2,270.1,63.7,269.3z"/>
				<path fill="#9F412A" d="M87.4,304.9c-0.2-0.2-0.5-0.3-0.8-0.1c-0.2,0.2-0.3,0.5-0.1,0.8c0.5,0.7,1,1.4,1.5,2.1
					c0.1,0.1,0.3,0.2,0.4,0.2c0.1,0,0.2,0,0.3-0.1c0.2-0.2,0.3-0.5,0.1-0.8C88.4,306.3,87.9,305.6,87.4,304.9z"/>
				<path fill="#9F412A" d="M19.9,165.5c-0.2-0.9-0.3-1.7-0.5-2.6c-0.1-0.3-0.3-0.5-0.6-0.4c-0.3,0.1-0.5,0.3-0.4,0.6
					c0.2,0.9,0.3,1.7,0.5,2.6c0,0.3,0.3,0.4,0.5,0.4c0,0,0.1,0,0.1,0C19.7,166.1,19.9,165.8,19.9,165.5z"/>
				<path fill="#9F412A" d="M66.9,274.5c-0.2-0.3-0.5-0.3-0.8-0.2c-0.3,0.2-0.3,0.5-0.2,0.8c0.5,0.7,0.9,1.5,1.4,2.2
					c0.1,0.2,0.3,0.3,0.5,0.3c0.1,0,0.2,0,0.3-0.1c0.3-0.2,0.3-0.5,0.2-0.8C67.8,276,67.4,275.3,66.9,274.5z"/>
				<path fill="#9F412A" d="M73.5,284.8c-0.2-0.3-0.5-0.3-0.8-0.2c-0.3,0.2-0.3,0.5-0.2,0.8c0.5,0.7,1,1.5,1.4,2.2
					c0.1,0.2,0.3,0.2,0.5,0.2c0.1,0,0.2,0,0.3-0.1c0.3-0.2,0.3-0.5,0.2-0.8C74.5,286.2,74,285.5,73.5,284.8z"/>
				<path fill="#9F412A" d="M70.2,279.7c-0.2-0.3-0.5-0.3-0.8-0.2c-0.3,0.2-0.3,0.5-0.2,0.8c0.5,0.7,1,1.5,1.4,2.2
					c0.1,0.2,0.3,0.3,0.5,0.3c0.1,0,0.2,0,0.3-0.1c0.3-0.2,0.3-0.5,0.2-0.8C71.1,281.1,70.7,280.4,70.2,279.7z"/>
				<path fill="#9F412A" d="M83.8,299.9c-0.2-0.2-0.5-0.3-0.8-0.1c-0.2,0.2-0.3,0.5-0.1,0.8c0.5,0.7,1,1.4,1.5,2.1
					c0.1,0.2,0.3,0.2,0.4,0.2c0.1,0,0.2,0,0.3-0.1c0.2-0.2,0.3-0.5,0.1-0.8C84.8,301.3,84.3,300.6,83.8,299.9z"/>
				<path fill="#9F412A" d="M76.9,289.9c-0.2-0.3-0.5-0.3-0.8-0.1c-0.2,0.2-0.3,0.5-0.1,0.8c0.5,0.7,1,1.5,1.5,2.2
					c0.1,0.2,0.3,0.2,0.5,0.2c0.1,0,0.2,0,0.3-0.1c0.2-0.2,0.3-0.5,0.1-0.8C77.9,291.3,77.4,290.6,76.9,289.9z"/>
				<path fill="#9F412A" d="M80.3,294.9c-0.2-0.2-0.5-0.3-0.8-0.1c-0.2,0.2-0.3,0.5-0.1,0.8c0.5,0.7,1,1.4,1.5,2.2
					c0.1,0.2,0.3,0.2,0.4,0.2c0.1,0,0.2,0,0.3-0.1c0.2-0.2,0.3-0.5,0.1-0.8C81.3,296.3,80.8,295.6,80.3,294.9z"/>
				<path fill="#9F412A" d="M293.6,72.2c0.1,0.2,0.3,0.3,0.5,0.3c0.1,0,0.1,0,0.2,0c0.3-0.1,0.4-0.4,0.3-0.7
					c-0.3-0.8-0.7-1.6-1.1-2.4c-0.1-0.3-0.5-0.4-0.7-0.3s-0.4,0.5-0.3,0.7C292.9,70.6,293.3,71.4,293.6,72.2z"/>
				<path fill="#9F412A" d="M295.9,77.9c0.1,0.2,0.3,0.4,0.5,0.4c0.1,0,0.1,0,0.2,0c0.3-0.1,0.4-0.4,0.3-0.7
					c-0.3-0.8-0.6-1.6-0.9-2.5c-0.1-0.3-0.4-0.4-0.7-0.3c-0.3,0.1-0.4,0.4-0.3,0.7C295.3,76.2,295.6,77.1,295.9,77.9z"/>
				<path fill="#9F412A" d="M304.3,116.9c0.1,0.9,0.1,1.7,0.2,2.6c0,0.3,0.3,0.5,0.5,0.5c0,0,0,0,0,0c0.3,0,0.5-0.3,0.5-0.6
					c-0.1-0.9-0.1-1.8-0.2-2.6c0-0.3-0.3-0.5-0.6-0.5C304.5,116.3,304.3,116.6,304.3,116.9z"/>
				<path fill="#9F412A" d="M303.7,110.8c0.1,0.9,0.2,1.7,0.3,2.6c0,0.3,0.3,0.5,0.5,0.5c0,0,0,0,0.1,0c0.3,0,0.5-0.3,0.5-0.6
					c-0.1-0.9-0.2-1.7-0.3-2.6c0-0.3-0.3-0.5-0.6-0.5C303.8,110.2,303.6,110.5,303.7,110.8z"/>
				<path fill="#9F412A" d="M304.7,122.9c0,0.9,0.1,1.7,0.1,2.6c0,0.3,0.3,0.5,0.5,0.5c0,0,0,0,0,0c0.3,0,0.5-0.3,0.5-0.6
					c0-0.9-0.1-1.8-0.1-2.6c0-0.3-0.3-0.5-0.6-0.5C304.9,122.4,304.7,122.6,304.7,122.9z"/>
				<path fill="#9F412A" d="M305.5,128.5L305.5,128.5c-0.3,0-0.6,0.3-0.5,0.6c0,0.9,0,1.7,0.1,2.6c0,0.3,0.2,0.5,0.5,0.5h0
					c0.3,0,0.5-0.3,0.5-0.6c0-0.9,0-1.8-0.1-2.6C306.1,128.7,305.8,128.5,305.5,128.5z"/>
				<path fill="#9F412A" d="M302.8,104.8c0.1,0.9,0.3,1.7,0.4,2.6c0,0.3,0.3,0.5,0.5,0.5c0,0,0.1,0,0.1,0c0.3,0,0.5-0.3,0.5-0.6
					c-0.1-0.9-0.3-1.7-0.4-2.6c0-0.3-0.3-0.5-0.6-0.5C303,104.2,302.8,104.5,302.8,104.8z"/>
				<path fill="#9F412A" d="M298.9,86.9c0.2,0.8,0.5,1.7,0.7,2.5c0.1,0.2,0.3,0.4,0.5,0.4c0,0,0.1,0,0.1,0c0.3-0.1,0.5-0.4,0.4-0.7
					c-0.2-0.8-0.5-1.7-0.7-2.5c-0.1-0.3-0.4-0.5-0.7-0.4C299,86.4,298.8,86.7,298.9,86.9z"/>
				<path fill="#9F412A" d="M297.9,83.6c0.1,0.2,0.3,0.4,0.5,0.4c0.1,0,0.1,0,0.2,0c0.3-0.1,0.4-0.4,0.4-0.7
					c-0.3-0.8-0.5-1.7-0.8-2.5c-0.1-0.3-0.4-0.4-0.7-0.3c-0.3,0.1-0.4,0.4-0.3,0.7C297.4,82,297.6,82.8,297.9,83.6z"/>
				<path fill="#9F412A" d="M300.5,92.8c0.2,0.8,0.4,1.7,0.6,2.5c0.1,0.3,0.3,0.4,0.5,0.4c0,0,0.1,0,0.1,0c0.3-0.1,0.5-0.4,0.4-0.7
					c-0.2-0.9-0.4-1.7-0.6-2.6c-0.1-0.3-0.4-0.5-0.7-0.4C300.6,92.2,300.4,92.5,300.5,92.8z"/>
				<path fill="#9F412A" d="M301.8,98.8c0.2,0.8,0.3,1.7,0.5,2.6c0,0.3,0.3,0.4,0.5,0.4c0,0,0.1,0,0.1,0c0.3-0.1,0.5-0.3,0.4-0.6
					c-0.2-0.9-0.3-1.7-0.5-2.6c-0.1-0.3-0.3-0.5-0.6-0.4C301.9,98.2,301.7,98.5,301.8,98.8z"/>
				<path fill="#9F412A" d="M16.2,135.8L16.2,135.8c0.3,0,0.5-0.2,0.5-0.5V135c0-0.8,0-1.5,0-2.3c0-0.3-0.2-0.5-0.5-0.6h0
					c-0.3,0-0.5,0.2-0.5,0.5c0,0.8,0,1.5,0,2.3v0.3C15.7,135.6,15.9,135.8,16.2,135.8z"/>
				<path fill="#9F412A" d="M16.9,117.5C17,117.5,17,117.5,16.9,117.5c0.3,0,0.6-0.2,0.6-0.5c0.1-0.9,0.2-1.7,0.2-2.6
					c0-0.3-0.2-0.6-0.5-0.6c-0.3,0-0.6,0.2-0.6,0.5c-0.1,0.9-0.2,1.7-0.2,2.6C16.4,117.2,16.6,117.5,16.9,117.5z"/>
				<path fill="#9F412A" d="M16.5,123.6C16.5,123.6,16.6,123.6,16.5,123.6c0.3,0,0.6-0.2,0.6-0.5c0-0.9,0.1-1.7,0.2-2.6
					c0-0.3-0.2-0.6-0.5-0.6c-0.3,0-0.6,0.2-0.6,0.5c-0.1,0.9-0.1,1.7-0.2,2.6C16,123.3,16.2,123.6,16.5,123.6z"/>
				<path fill="#9F412A" d="M19.4,99.4c0,0,0.1,0,0.1,0c0.3,0,0.5-0.2,0.5-0.4c0.2-0.9,0.3-1.7,0.5-2.6c0.1-0.3-0.1-0.6-0.4-0.6
					c-0.3-0.1-0.6,0.1-0.6,0.4c-0.2,0.9-0.4,1.7-0.5,2.6C18.9,99,19.1,99.3,19.4,99.4z"/>
				<path fill="#9F412A" d="M18.4,105.4C18.4,105.4,18.4,105.4,18.4,105.4c0.3,0,0.6-0.2,0.6-0.5c0.1-0.9,0.3-1.7,0.4-2.6
					c0.1-0.3-0.1-0.6-0.4-0.6c-0.3-0.1-0.6,0.1-0.6,0.4c-0.1,0.9-0.3,1.7-0.4,2.6C17.9,105.1,18.1,105.3,18.4,105.4z"/>
				<path fill="#9F412A" d="M16.3,129.7L16.3,129.7c0.3,0,0.6-0.2,0.6-0.5c0-0.9,0.1-1.7,0.1-2.6c0-0.3-0.2-0.6-0.5-0.6
					c-0.3,0-0.6,0.2-0.6,0.5c0,0.9-0.1,1.7-0.1,2.6C15.8,129.5,16,129.7,16.3,129.7z"/>
				<path fill="#9F412A" d="M17.6,111.4C17.6,111.4,17.6,111.4,17.6,111.4c0.3,0,0.6-0.2,0.6-0.5c0.1-0.9,0.2-1.7,0.3-2.6
					c0-0.3-0.2-0.6-0.5-0.6c-0.3,0-0.6,0.2-0.6,0.5c-0.1,0.9-0.2,1.7-0.3,2.6C17,111.1,17.3,111.4,17.6,111.4z"/>
				<path fill="#9F412A" d="M16.8,148c0.3,0,0.5-0.3,0.5-0.6c-0.1-0.9-0.1-1.7-0.2-2.6c0-0.3-0.3-0.5-0.6-0.5
					c-0.3,0-0.5,0.3-0.5,0.6c0.1,0.9,0.1,1.7,0.2,2.6C16.3,147.8,16.5,148,16.8,148C16.8,148,16.8,148,16.8,148z"/>
				<path fill="#9F412A" d="M17.5,154.1c0.3,0,0.5-0.3,0.5-0.6c-0.1-0.9-0.2-1.7-0.3-2.6c0-0.3-0.3-0.5-0.6-0.5
					c-0.3,0-0.5,0.3-0.5,0.6c0.1,0.9,0.2,1.7,0.3,2.6C16.9,153.9,17.1,154.1,17.5,154.1C17.4,154.1,17.5,154.1,17.5,154.1z"/>
				<path fill="#9F412A" d="M16.4,141.9c0.3,0,0.5-0.3,0.5-0.6c0-0.9-0.1-1.7-0.1-2.6c0-0.3-0.3-0.5-0.6-0.5c-0.3,0-0.5,0.3-0.5,0.6
					c0,0.9,0.1,1.7,0.1,2.6C15.9,141.7,16.1,141.9,16.4,141.9C16.4,141.9,16.4,141.9,16.4,141.9z"/>
				<path fill="#9F412A" d="M18.8,159.5c-0.1-0.9-0.3-1.7-0.4-2.6c0-0.3-0.3-0.5-0.6-0.5c-0.3,0-0.5,0.3-0.5,0.6
					c0.1,0.9,0.3,1.7,0.4,2.6c0,0.3,0.3,0.5,0.5,0.5c0,0,0.1,0,0.1,0C18.7,160.1,18.9,159.8,18.8,159.5z"/>
				<path fill="#9F412A" d="M31.2,64.8c0.1,0,0.2,0.1,0.3,0.1c0.2,0,0.4-0.1,0.5-0.3c0.4-0.8,0.8-1.5,1.2-2.3
					c0.1-0.3,0.1-0.6-0.2-0.7c-0.3-0.1-0.6-0.1-0.7,0.2c-0.4,0.8-0.8,1.5-1.3,2.3C30.8,64.3,30.9,64.6,31.2,64.8z"/>
				<path fill="#9F412A" d="M22.2,87.5c0.1,0,0.1,0,0.2,0c0.2,0,0.5-0.2,0.5-0.4c0.2-0.8,0.5-1.7,0.7-2.5c0.1-0.3-0.1-0.6-0.4-0.7
					c-0.3-0.1-0.6,0.1-0.7,0.4c-0.3,0.8-0.5,1.7-0.8,2.5C21.8,87.1,21.9,87.4,22.2,87.5z"/>
				<path fill="#9F412A" d="M24,81.6c0.1,0,0.1,0,0.2,0c0.2,0,0.4-0.1,0.5-0.4c0.3-0.8,0.6-1.6,0.9-2.5c0.1-0.3,0-0.6-0.3-0.7
					c-0.3-0.1-0.6,0-0.7,0.3c-0.3,0.8-0.6,1.6-0.9,2.5C23.6,81.2,23.7,81.5,24,81.6z"/>
				<path fill="#9F412A" d="M20.7,93.4c0,0,0.1,0,0.1,0c0.2,0,0.5-0.2,0.5-0.4c0.2-0.9,0.4-1.7,0.6-2.5c0.1-0.3-0.1-0.6-0.4-0.7
					c-0.3-0.1-0.6,0.1-0.7,0.4c-0.2,0.8-0.4,1.7-0.6,2.6C20.2,93,20.4,93.3,20.7,93.4z"/>
				<path fill="#9F412A" d="M28.5,70.3c0.1,0,0.1,0,0.2,0c0.2,0,0.4-0.1,0.5-0.3c0.4-0.8,0.7-1.6,1.1-2.4c0.1-0.3,0-0.6-0.3-0.7
					c-0.3-0.1-0.6,0-0.7,0.3c-0.4,0.8-0.8,1.6-1.1,2.4C28.1,69.8,28.2,70.1,28.5,70.3z"/>
				<path fill="#9F412A" d="M257.6,271.3c-0.3-0.2-0.6-0.1-0.8,0.2c-0.5,0.7-0.9,1.5-1.4,2.2c-0.2,0.3-0.1,0.6,0.2,0.8
					c0.1,0.1,0.2,0.1,0.3,0.1c0.2,0,0.4-0.1,0.5-0.3c0.5-0.7,0.9-1.5,1.4-2.2C257.9,271.8,257.8,271.5,257.6,271.3z"/>
				<path fill="#9F412A" d="M269.9,250.2c-0.3-0.1-0.6,0-0.7,0.2c-0.4,0.8-0.8,1.5-1.3,2.3c-0.1,0.3-0.1,0.6,0.2,0.7
					c0.1,0,0.2,0.1,0.3,0.1c0.2,0,0.4-0.1,0.5-0.3c0.4-0.8,0.9-1.5,1.3-2.3C270.3,250.6,270.2,250.3,269.9,250.2z"/>
				<path fill="#9F412A" d="M263.9,260.8c-0.3-0.2-0.6-0.1-0.7,0.2c-0.4,0.8-0.9,1.5-1.3,2.3c-0.2,0.3-0.1,0.6,0.2,0.7
					c0.1,0.1,0.2,0.1,0.3,0.1c0.2,0,0.4-0.1,0.5-0.3c0.4-0.8,0.9-1.5,1.3-2.3C264.2,261.3,264.1,260.9,263.9,260.8z"/>
				<path fill="#9F412A" d="M260.8,266.1c-0.3-0.2-0.6-0.1-0.7,0.2c-0.5,0.7-0.9,1.5-1.4,2.2c-0.2,0.3-0.1,0.6,0.2,0.7
					c0.1,0.1,0.2,0.1,0.3,0.1c0.2,0,0.4-0.1,0.5-0.3c0.5-0.7,0.9-1.5,1.4-2.3C261.1,266.6,261,266.2,260.8,266.1z"/>
				<path fill="#9F412A" d="M266.9,255.5c-0.3-0.2-0.6-0.1-0.7,0.2c-0.4,0.7-0.8,1.5-1.3,2.2c0,0,0,0.1,0,0.1
					c-0.1,0.3,0,0.6,0.2,0.7c0.1,0,0.2,0.1,0.2,0.1c0.2,0,0.4-0.1,0.5-0.3c0.4-0.7,0.8-1.5,1.3-2.2
					C267.3,256,267.2,255.6,266.9,255.5z"/>
				<path fill="#9F412A" d="M272.8,244.8c-0.3-0.1-0.6,0-0.7,0.2c-0.4,0.8-0.8,1.5-1.2,2.3c-0.1,0.3,0,0.6,0.2,0.7
					c0.1,0,0.2,0.1,0.3,0.1c0.2,0,0.4-0.1,0.5-0.3c0.4-0.8,0.8-1.5,1.2-2.3C273.2,245.3,273.1,244.9,272.8,244.8z"/>
				<path fill="#9F412A" d="M275.6,239.4c-0.3-0.1-0.6,0-0.7,0.2c-0.4,0.8-0.8,1.5-1.2,2.3c-0.1,0.3,0,0.6,0.2,0.7
					c0.1,0,0.2,0.1,0.3,0.1c0.2,0,0.4-0.1,0.5-0.3c0.4-0.8,0.8-1.6,1.2-2.3C276,239.8,275.9,239.5,275.6,239.4z"/>
				<path fill="#9F412A" d="M278.4,233.9c-0.3-0.1-0.6,0-0.7,0.2c-0.4,0.8-0.8,1.6-1.2,2.3c-0.1,0.3,0,0.6,0.2,0.7
					c0.1,0,0.2,0.1,0.2,0.1c0.2,0,0.4-0.1,0.5-0.3c0.4-0.8,0.8-1.6,1.2-2.3C278.8,234.4,278.7,234,278.4,233.9z"/>
				<path fill="#9F412A" d="M240.1,297c-0.5,0.7-1,1.4-1.5,2.1c-0.2,0.2-0.1,0.6,0.1,0.8c0.1,0.1,0.2,0.1,0.3,0.1
					c0.2,0,0.3-0.1,0.4-0.2c0.5-0.7,1-1.4,1.5-2.1c0.2-0.2,0.1-0.6-0.1-0.8C240.6,296.7,240.2,296.8,240.1,297z"/>
				<path fill="#9F412A" d="M236.5,302c-0.5,0.7-1,1.4-1.5,2.1c-0.2,0.2-0.1,0.6,0.1,0.8c0.1,0.1,0.2,0.1,0.3,0.1
					c0.2,0,0.3-0.1,0.4-0.2c0.5-0.7,1-1.4,1.5-2.1c0.2-0.2,0.1-0.6-0.1-0.8C237.1,301.7,236.7,301.8,236.5,302z"/>
				<path fill="#9F412A" d="M233,307c-0.5,0.7-1,1.4-1.5,2.1c-0.2,0.2-0.1,0.6,0.1,0.8c0.1,0.1,0.2,0.1,0.3,0.1
					c0.2,0,0.3-0.1,0.4-0.2c0.5-0.7,1-1.4,1.5-2.1c0.2-0.2,0.1-0.6-0.1-0.8C233.5,306.7,233.2,306.7,233,307z"/>
				<path fill="#9F412A" d="M251,281.6c-0.3-0.2-0.6-0.1-0.8,0.2c-0.5,0.7-1,1.5-1.4,2.2c-0.2,0.3-0.1,0.6,0.2,0.8
					c0.1,0.1,0.2,0.1,0.3,0.1c0.2,0,0.4-0.1,0.5-0.2c0.5-0.7,1-1.5,1.4-2.2C251.4,282.1,251.3,281.8,251,281.6z"/>
				<path fill="#9F412A" d="M254.3,276.5c-0.3-0.2-0.6-0.1-0.8,0.2c-0.5,0.7-0.9,1.5-1.4,2.2c-0.2,0.3-0.1,0.6,0.2,0.8
					c0.1,0.1,0.2,0.1,0.3,0.1c0.2,0,0.4-0.1,0.5-0.3c0.5-0.7,0.9-1.5,1.4-2.2C254.7,277,254.6,276.7,254.3,276.5z"/>
				<path fill="#9F412A" d="M247.7,286.8c-0.3-0.2-0.6-0.1-0.8,0.2c-0.5,0.7-1,1.5-1.5,2.2c-0.2,0.3-0.1,0.6,0.1,0.8
					c0.1,0.1,0.2,0.1,0.3,0.1c0.2,0,0.3-0.1,0.5-0.2c0.5-0.7,1-1.4,1.5-2.2C248,287.3,247.9,286.9,247.7,286.8z"/>
				<path fill="#9F412A" d="M243.5,292c-0.5,0.7-1,1.4-1.5,2.2c-0.2,0.2-0.1,0.6,0.1,0.8c0.1,0.1,0.2,0.1,0.3,0.1
					c0.2,0,0.3-0.1,0.5-0.2c0.5-0.7,1-1.4,1.5-2.2c0.2-0.2,0.1-0.6-0.1-0.8C244,291.7,243.7,291.7,243.5,292z"/>
				<path fill="#9F412A" d="M303.7,158.9c-0.3,0-0.6,0.2-0.6,0.5c-0.1,0.9-0.3,1.7-0.4,2.6c-0.1,0.3,0.1,0.6,0.4,0.6
					c0,0,0.1,0,0.1,0c0.3,0,0.5-0.2,0.5-0.5c0.1-0.9,0.3-1.7,0.4-2.6C304.2,159.2,304,159,303.7,158.9z"/>
				<path fill="#9F412A" d="M281,228.4c-0.3-0.1-0.6,0-0.7,0.3c-0.4,0.8-0.8,1.6-1.1,2.4c-0.1,0.3,0,0.6,0.3,0.7
					c0.1,0,0.2,0.1,0.2,0.1c0.2,0,0.4-0.1,0.5-0.3c0.4-0.8,0.8-1.6,1.1-2.4C281.4,228.9,281.3,228.5,281,228.4z"/>
				<path fill="#9F412A" d="M301.4,170.9c-0.3-0.1-0.6,0.1-0.7,0.4c-0.2,0.8-0.4,1.7-0.6,2.5c-0.1,0.3,0.1,0.6,0.4,0.7
					c0,0,0.1,0,0.1,0c0.2,0,0.5-0.2,0.5-0.4c0.2-0.9,0.4-1.7,0.6-2.6C301.9,171.3,301.7,171,301.4,170.9z"/>
				<path fill="#9F412A" d="M298.4,182.8c-0.3-0.1-0.6,0.1-0.7,0.4c-0.2,0.8-0.5,1.7-0.7,2.5c-0.1,0.3,0.1,0.6,0.4,0.7
					c0.1,0,0.1,0,0.2,0c0.2,0,0.5-0.2,0.5-0.4c0.2-0.8,0.5-1.7,0.7-2.5C298.9,183.2,298.7,182.9,298.4,182.8z"/>
				<path fill="#9F412A" d="M300,176.9c-0.3-0.1-0.6,0.1-0.7,0.4c-0.2,0.8-0.4,1.7-0.7,2.5c-0.1,0.3,0.1,0.6,0.4,0.7
					c0,0,0.1,0,0.1,0c0.2,0,0.5-0.2,0.5-0.4c0.2-0.8,0.4-1.7,0.7-2.5C300.5,177.2,300.3,176.9,300,176.9z"/>
				<path fill="#9F412A" d="M305.5,140.7c-0.3,0-0.6,0.2-0.6,0.5c0,0.9-0.1,1.7-0.1,2.6c0,0.3,0.2,0.6,0.5,0.6c0,0,0,0,0,0
					c0.3,0,0.5-0.2,0.5-0.5c0.1-0.9,0.1-1.8,0.1-2.6C306,141,305.8,140.7,305.5,140.7z"/>
				<path fill="#9F412A" d="M305.6,134.6L305.6,134.6c-0.3,0-0.5,0.2-0.5,0.5c0,0.9,0,1.7,0,2.6c0,0.3,0.2,0.6,0.5,0.6h0
					c0.3,0,0.5-0.2,0.5-0.5c0-0.9,0-1.8,0-2.6C306.1,134.8,305.9,134.6,305.6,134.6z"/>
				<path fill="#9F412A" d="M304.5,152.9c-0.3,0-0.6,0.2-0.6,0.5c-0.1,0.9-0.2,1.7-0.3,2.6c0,0.3,0.2,0.6,0.5,0.6c0,0,0,0,0.1,0
					c0.3,0,0.5-0.2,0.5-0.5c0.1-0.9,0.2-1.7,0.3-2.6C305,153.2,304.8,152.9,304.5,152.9z"/>
				<path fill="#9F412A" d="M296.7,188.6c-0.3-0.1-0.6,0.1-0.7,0.4c-0.3,0.8-0.5,1.7-0.8,2.5c-0.1,0.3,0.1,0.6,0.4,0.7
					c0.1,0,0.1,0,0.2,0c0.2,0,0.4-0.1,0.5-0.4c0.3-0.8,0.5-1.7,0.8-2.5C297.2,189,297,188.7,296.7,188.6z"/>
				<path fill="#9F412A" d="M305.1,146.8c-0.3,0-0.6,0.2-0.6,0.5c-0.1,0.9-0.2,1.7-0.2,2.6c0,0.3,0.2,0.6,0.5,0.6c0,0,0,0,0.1,0
					c0.3,0,0.5-0.2,0.5-0.5c0.1-0.9,0.2-1.7,0.2-2.6C305.6,147.1,305.4,146.8,305.1,146.8z"/>
				<path fill="#9F412A" d="M302.6,164.9c-0.3-0.1-0.6,0.1-0.6,0.4c-0.2,0.9-0.3,1.7-0.5,2.6c-0.1,0.3,0.1,0.6,0.4,0.6
					c0,0,0.1,0,0.1,0c0.3,0,0.5-0.2,0.5-0.4c0.2-0.9,0.3-1.7,0.5-2.6C303.1,165.3,302.9,165,302.6,164.9z"/>
				<path fill="#9F412A" d="M283.6,222.9c-0.3-0.1-0.6,0-0.7,0.3c-0.4,0.8-0.7,1.6-1.1,2.4c-0.1,0.3,0,0.6,0.3,0.7
					c0.1,0,0.2,0.1,0.2,0.1c0.2,0,0.4-0.1,0.5-0.3c0.4-0.8,0.7-1.6,1.1-2.4C284,223.3,283.9,223,283.6,222.9z"/>
				<path fill="#9F412A" d="M288.4,211.6c-0.3-0.1-0.6,0-0.7,0.3c-0.3,0.8-0.7,1.6-1,2.4c-0.1,0.3,0,0.6,0.3,0.7c0.1,0,0.1,0,0.2,0
					c0.2,0,0.4-0.1,0.5-0.3c0.3-0.8,0.7-1.6,1-2.4C288.9,212.1,288.7,211.7,288.4,211.6z"/>
				<path fill="#9F412A" d="M294.8,194.5c-0.3-0.1-0.6,0.1-0.7,0.3c-0.3,0.8-0.6,1.6-0.8,2.5c-0.1,0.3,0,0.6,0.3,0.7
					c0.1,0,0.1,0,0.2,0c0.2,0,0.4-0.1,0.5-0.4c0.3-0.8,0.6-1.7,0.9-2.5C295.3,194.9,295.1,194.6,294.8,194.5z"/>
				<path fill="#9F412A" d="M286.1,217.3c-0.3-0.1-0.6,0-0.7,0.3c-0.3,0.8-0.7,1.6-1,2.4c-0.1,0.3,0,0.6,0.3,0.7c0.1,0,0.1,0,0.2,0
					c0.2,0,0.4-0.1,0.5-0.3c0.4-0.8,0.7-1.6,1.1-2.4C286.5,217.7,286.4,217.4,286.1,217.3z"/>
				<path fill="#9F412A" d="M292.8,200.2c-0.3-0.1-0.6,0-0.7,0.3c-0.3,0.8-0.6,1.6-0.9,2.5c-0.1,0.3,0,0.6,0.3,0.7
					c0.1,0,0.1,0,0.2,0c0.2,0,0.4-0.1,0.5-0.4c0.3-0.8,0.6-1.6,0.9-2.5C293.3,200.6,293.1,200.3,292.8,200.2z"/>
				<path fill="#9F412A" d="M290.7,206c-0.3-0.1-0.6,0-0.7,0.3c-0.3,0.8-0.6,1.6-1,2.4c-0.1,0.3,0,0.6,0.3,0.7c0.1,0,0.1,0,0.2,0
					c0.2,0,0.4-0.1,0.5-0.3c0.3-0.8,0.6-1.6,1-2.4C291.1,206.4,291,206.1,290.7,206z"/>
				<path fill="#9F412A" d="M224.6,319.8c0.2,0,0.3-0.1,0.4-0.2c0.5-0.7,1.1-1.4,1.6-2.1c0.2-0.2,0.1-0.6-0.1-0.8
					c-0.2-0.2-0.6-0.1-0.8,0.1c-0.5,0.7-1.1,1.4-1.6,2.1C224,319.1,224.5,319.8,224.6,319.8z"/>
				<path fill="#9F412A" d="M229.4,311.9c-0.5,0.7-1,1.4-1.6,2.1c-0.2,0.2-0.1,0.6,0.1,0.8c0.1,0.1,0.2,0.1,0.3,0.1
					c0.2,0,0.3-0.1,0.4-0.2c0.5-0.7,1-1.4,1.6-2.1c0.2-0.2,0.1-0.6-0.1-0.8C229.9,311.6,229.6,311.6,229.4,311.9z"/>
			</g>
			<path fill="#F4F0D9" d="M160.9,14.9C149.1,13.1,21.2-3.8,21.2,135c0,76.4,65.6,169.2,119.6,229H181
				c54.1-59.7,119.6-152.6,119.6-229C300.6-3.8,172.8,13.1,160.9,14.9z"/>
		</g>
		<g>
			<path fill="#F16646" d="M160.9,4.3C151.1,2.4,60.3-11.1,60.3,135c0,75.7,54.8,179.5,88.5,231.9h24.3
				c33.7-52.4,88.5-156.2,88.5-231.9C261.6-11.1,170.8,2.4,160.9,4.3z"/>
			<g>
				<path fill="#9F412A" d="M85.8,42.2c0.1,0.1,0.2,0.1,0.3,0.1c0.2,0,0.4-0.1,0.5-0.2c0.5-0.7,1-1.5,1.4-2.2
					c0.2-0.2,0.1-0.6-0.1-0.8c-0.2-0.2-0.6-0.1-0.8,0.1c-0.5,0.7-1,1.4-1.5,2.2C85.5,41.7,85.6,42,85.8,42.2z"/>
				<path fill="#9F412A" d="M112.4,17.2c0.1,0,0.2,0,0.3-0.1c0.8-0.4,1.5-0.8,2.3-1.2c0.3-0.1,0.4-0.5,0.2-0.7
					c-0.1-0.3-0.5-0.4-0.7-0.2c-0.8,0.4-1.6,0.8-2.3,1.2c-0.3,0.1-0.4,0.5-0.2,0.7C112,17.1,112.2,17.2,112.4,17.2z"/>
				<path fill="#9F412A" d="M117.9,14.6c0.1,0,0.1,0,0.2,0c0.8-0.3,1.6-0.7,2.4-1c0.3-0.1,0.4-0.4,0.3-0.7c-0.1-0.3-0.4-0.4-0.7-0.3
					c-0.8,0.3-1.6,0.6-2.4,1c-0.3,0.1-0.4,0.4-0.3,0.7C117.5,14.4,117.7,14.6,117.9,14.6z"/>
				<path fill="#9F412A" d="M65.8,148.7c0.3,0,0.5-0.3,0.5-0.6c-0.1-0.9-0.1-1.7-0.2-2.6c0-0.3-0.3-0.5-0.6-0.5
					c-0.3,0-0.5,0.3-0.5,0.6c0.1,0.9,0.1,1.7,0.2,2.6C65.2,148.4,65.5,148.7,65.8,148.7C65.8,148.7,65.8,148.7,65.8,148.7z"/>
				<path fill="#9F412A" d="M89.6,37.2c0.2,0,0.3-0.1,0.4-0.2c0.5-0.7,1.1-1.4,1.6-2.1c0.2-0.2,0.2-0.6-0.1-0.8
					c-0.2-0.2-0.6-0.2-0.8,0.1c-0.5,0.7-1.1,1.4-1.6,2.1C89,36.6,89,37,89.3,37.1C89.4,37.2,89.5,37.2,89.6,37.2z"/>
				<path fill="#9F412A" d="M102.3,24c0.1,0,0.2,0,0.3-0.1c0.7-0.6,1.4-1.1,2-1.6c0.2-0.2,0.3-0.5,0.1-0.8c-0.2-0.2-0.5-0.3-0.8-0.1
					c-0.7,0.5-1.4,1.1-2.1,1.6c-0.2,0.2-0.3,0.5-0.1,0.8C101.9,24,102.1,24,102.3,24z"/>
				<path fill="#9F412A" d="M97.7,28.1c0.1,0,0.3-0.1,0.4-0.2c0.6-0.6,1.3-1.2,1.9-1.8c0.2-0.2,0.2-0.5,0-0.8
					c-0.2-0.2-0.5-0.2-0.8,0c-0.6,0.6-1.3,1.2-1.9,1.8c-0.2,0.2-0.2,0.6,0,0.8C97.4,28,97.5,28.1,97.7,28.1z"/>
				<path fill="#9F412A" d="M129.5,10.7c0,0,0.1,0,0.1,0c0.9-0.2,1.7-0.4,2.5-0.6c0.3-0.1,0.5-0.3,0.4-0.6c-0.1-0.3-0.3-0.5-0.6-0.4
					c-0.9,0.2-1.7,0.4-2.6,0.6c-0.3,0.1-0.5,0.4-0.4,0.7C129,10.6,129.2,10.7,129.5,10.7z"/>
				<path fill="#9F412A" d="M123.6,12.4c0.1,0,0.1,0,0.2,0c0.8-0.3,1.7-0.5,2.5-0.8c0.3-0.1,0.5-0.4,0.4-0.7
					c-0.1-0.3-0.4-0.5-0.7-0.4c-0.8,0.2-1.7,0.5-2.5,0.8c-0.3,0.1-0.4,0.4-0.3,0.7C123.2,12.2,123.4,12.4,123.6,12.4z"/>
				<path fill="#9F412A" d="M82.7,47.4c0.1,0,0.2,0.1,0.3,0.1c0.2,0,0.4-0.1,0.5-0.3c0.4-0.8,0.9-1.5,1.3-2.3
					c0.2-0.3,0.1-0.6-0.2-0.7c-0.3-0.2-0.6-0.1-0.7,0.2c-0.4,0.8-0.9,1.5-1.3,2.3C82.4,46.9,82.5,47.3,82.7,47.4z"/>
				<path fill="#9F412A" d="M125.1,317c-0.3,0.1-0.4,0.5-0.2,0.7l1.3,2.3c0.1,0.2,0.3,0.3,0.5,0.3c0.1,0,0.2,0,0.3-0.1
					c0.3-0.1,0.4-0.5,0.2-0.7l-1.3-2.3C125.7,317,125.4,316.9,125.1,317z"/>
				<path fill="#9F412A" d="M129.1,325.4c0.1,0.2,0.3,0.3,0.5,0.3c0.1,0,0.2,0,0.3-0.1c0.3-0.1,0.4-0.5,0.2-0.7
					c-0.4-0.8-0.8-1.5-1.3-2.3c-0.1-0.3-0.5-0.4-0.7-0.2c-0.3,0.1-0.4,0.5-0.2,0.7C128.3,323.9,128.7,324.7,129.1,325.4z"/>
				<path fill="#9F412A" d="M67.3,99.9C67.3,99.9,67.3,99.9,67.3,99.9c0.3,0,0.6-0.2,0.6-0.5c0.1-0.9,0.2-1.7,0.3-2.6
					c0-0.3-0.2-0.6-0.5-0.6c-0.3,0-0.6,0.2-0.6,0.5c-0.1,0.9-0.2,1.7-0.3,2.6C66.8,99.6,67,99.8,67.3,99.9z"/>
				<path fill="#9F412A" d="M65.7,118.1C65.7,118.1,65.7,118.1,65.7,118.1c0.3,0,0.6-0.2,0.6-0.5c0-0.9,0.1-1.7,0.2-2.6
					c0-0.3-0.2-0.6-0.5-0.6c-0.3,0-0.6,0.2-0.6,0.5c-0.1,0.9-0.1,1.7-0.2,2.6C65.1,117.9,65.4,118.1,65.7,118.1z"/>
				<path fill="#9F412A" d="M65.4,124.2C65.4,124.2,65.4,124.2,65.4,124.2c0.3,0,0.6-0.2,0.6-0.5c0-0.9,0.1-1.7,0.1-2.6
					c0-0.3-0.2-0.6-0.5-0.6c-0.3,0-0.6,0.2-0.6,0.5c0,0.9-0.1,1.7-0.1,2.6C64.9,124,65.1,124.2,65.4,124.2z"/>
				<path fill="#9F412A" d="M66.6,105.9C66.6,105.9,66.6,105.9,66.6,105.9c0.3,0,0.6-0.2,0.6-0.5c0.1-0.9,0.2-1.7,0.3-2.6
					c0-0.3-0.2-0.6-0.5-0.6c-0.3,0-0.6,0.2-0.6,0.5c-0.1,0.9-0.2,1.7-0.3,2.6C66.1,105.6,66.3,105.9,66.6,105.9z"/>
				<path fill="#9F412A" d="M66.1,112C66.1,112,66.1,112,66.1,112c0.3,0,0.6-0.2,0.6-0.5c0.1-0.9,0.1-1.7,0.2-2.6
					c0-0.3-0.2-0.6-0.5-0.6c-0.3,0-0.6,0.2-0.6,0.5c-0.1,0.9-0.1,1.7-0.2,2.6C65.5,111.7,65.8,112,66.1,112z"/>
				<path fill="#9F412A" d="M79.9,52.9c0.1,0,0.2,0.1,0.2,0.1c0.2,0,0.4-0.1,0.5-0.3c0.4-0.8,0.8-1.6,1.2-2.3c0.1-0.3,0-0.6-0.2-0.7
					c-0.3-0.1-0.6,0-0.7,0.2c-0.4,0.8-0.8,1.6-1.2,2.4C79.6,52.4,79.7,52.7,79.9,52.9z"/>
				<path fill="#9F412A" d="M65.2,136.4L65.2,136.4c0.3,0,0.5-0.2,0.5-0.5l0-0.9c0-0.6,0-1.1,0-1.7c0-0.3-0.2-0.5-0.5-0.5h0
					c-0.3,0-0.5,0.2-0.5,0.5c0,0.6,0,1.1,0,1.7l0,0.9C64.7,136.2,64.9,136.4,65.2,136.4z"/>
				<path fill="#9F412A" d="M65.3,130.3L65.3,130.3c0.3,0,0.5-0.2,0.6-0.5c0-0.9,0-1.7,0-2.6c0-0.3-0.2-0.6-0.5-0.6
					c-0.3,0-0.5,0.2-0.6,0.5c0,0.9,0,1.7-0.1,2.6C64.7,130.1,65,130.3,65.3,130.3z"/>
				<path fill="#9F412A" d="M65.4,142.6c0.3,0,0.5-0.3,0.5-0.6c0-0.9-0.1-1.7-0.1-2.6c0-0.3-0.3-0.6-0.6-0.5c-0.3,0-0.5,0.3-0.5,0.6
					c0,0.9,0.1,1.7,0.1,2.6C64.9,142.3,65.1,142.6,65.4,142.6C65.4,142.6,65.4,142.6,65.4,142.6z"/>
				<path fill="#9F412A" d="M75.3,64.2c0.1,0,0.1,0,0.2,0c0.2,0,0.4-0.1,0.5-0.4c0.3-0.8,0.6-1.6,0.9-2.4c0.1-0.3,0-0.6-0.3-0.7
					c-0.3-0.1-0.6,0-0.7,0.3c-0.3,0.8-0.6,1.6-0.9,2.5C74.9,63.8,75,64.1,75.3,64.2z"/>
				<path fill="#9F412A" d="M77.5,58.5c0.1,0,0.1,0,0.2,0c0.2,0,0.4-0.1,0.5-0.3c0.3-0.8,0.7-1.6,1-2.4c0.1-0.3,0-0.6-0.3-0.7
					c-0.3-0.1-0.6,0-0.7,0.3c-0.4,0.8-0.7,1.6-1,2.4C77.1,58,77.2,58.3,77.5,58.5z"/>
				<path fill="#9F412A" d="M73.4,70c0.1,0,0.1,0,0.2,0c0.2,0,0.5-0.2,0.5-0.4c0.3-0.8,0.5-1.7,0.8-2.5c0.1-0.3-0.1-0.6-0.3-0.7
					c-0.3-0.1-0.6,0.1-0.7,0.3c-0.3,0.8-0.5,1.7-0.8,2.5C73,69.6,73.1,69.9,73.4,70z"/>
				<path fill="#9F412A" d="M68.1,93.8C68.1,93.8,68.2,93.8,68.1,93.8c0.3,0,0.6-0.2,0.6-0.5c0.1-0.9,0.3-1.7,0.4-2.6
					c0.1-0.3-0.2-0.6-0.4-0.6c-0.3,0-0.6,0.2-0.6,0.4c-0.1,0.9-0.3,1.7-0.4,2.6C67.6,93.5,67.8,93.8,68.1,93.8z"/>
				<path fill="#9F412A" d="M69.1,87.8c0,0,0.1,0,0.1,0c0.3,0,0.5-0.2,0.5-0.4c0.2-0.9,0.3-1.7,0.5-2.6c0.1-0.3-0.1-0.6-0.4-0.6
					c-0.3-0.1-0.6,0.1-0.6,0.4c-0.2,0.9-0.3,1.7-0.5,2.6C68.6,87.4,68.8,87.7,69.1,87.8z"/>
				<path fill="#9F412A" d="M71.8,75.9c0,0,0.1,0,0.1,0c0.2,0,0.5-0.2,0.5-0.4c0.2-0.8,0.5-1.7,0.7-2.5c0.1-0.3-0.1-0.6-0.4-0.7
					c-0.3-0.1-0.6,0.1-0.7,0.4c-0.2,0.8-0.5,1.7-0.7,2.5C71.3,75.5,71.5,75.8,71.8,75.9z"/>
				<path fill="#9F412A" d="M70.3,81.8c0,0,0.1,0,0.1,0c0.2,0,0.5-0.2,0.5-0.4c0.2-0.9,0.4-1.7,0.6-2.5c0.1-0.3-0.1-0.6-0.4-0.7
					c-0.3-0.1-0.6,0.1-0.7,0.4c-0.2,0.8-0.4,1.7-0.6,2.6C69.9,81.4,70.1,81.7,70.3,81.8z"/>
				<path fill="#9F412A" d="M107.2,20.4c0.1,0,0.2,0,0.3-0.1c0.7-0.5,1.5-1,2.2-1.4c0.3-0.2,0.3-0.5,0.2-0.8
					c-0.2-0.3-0.5-0.3-0.7-0.2c-0.7,0.5-1.5,0.9-2.2,1.4c-0.3,0.2-0.3,0.5-0.2,0.8C106.8,20.3,107,20.4,107.2,20.4z"/>
				<path fill="#9F412A" d="M248.8,73.3c0.2,0.8,0.5,1.7,0.7,2.5c0.1,0.2,0.3,0.4,0.5,0.4c0,0,0.1,0,0.1,0c0.3-0.1,0.5-0.4,0.4-0.7
					c-0.2-0.9-0.4-1.7-0.7-2.5c-0.1-0.3-0.4-0.5-0.7-0.4C248.9,72.7,248.7,73,248.8,73.3z"/>
				<path fill="#9F412A" d="M235.5,42.3c0.1,0.2,0.3,0.3,0.5,0.3c0.1,0,0.2,0,0.3-0.1c0.3-0.2,0.3-0.5,0.2-0.8
					c-0.5-0.7-1-1.5-1.5-2.2c-0.2-0.2-0.5-0.3-0.8-0.1c-0.2,0.2-0.3,0.5-0.1,0.8C234.5,40.8,235,41.6,235.5,42.3z"/>
				<path fill="#9F412A" d="M245.9,64.2c0.1,0.2,0.3,0.4,0.5,0.4c0.1,0,0.1,0,0.2,0c0.3-0.1,0.4-0.4,0.3-0.7
					c-0.3-0.8-0.6-1.7-0.9-2.5c-0.1-0.3-0.4-0.4-0.7-0.3c-0.3,0.1-0.4,0.4-0.3,0.7C245.4,62.5,245.6,63.4,245.9,64.2z"/>
				<path fill="#9F412A" d="M250.3,79.2c0.2,0.8,0.4,1.7,0.6,2.5c0.1,0.3,0.3,0.4,0.5,0.4c0,0,0.1,0,0.1,0c0.3-0.1,0.5-0.4,0.4-0.6
					c-0.2-0.9-0.4-1.7-0.6-2.6c-0.1-0.3-0.4-0.5-0.7-0.4C250.4,78.6,250.3,78.9,250.3,79.2z"/>
				<path fill="#9F412A" d="M247.8,70c0.1,0.2,0.3,0.4,0.5,0.4c0.1,0,0.1,0,0.2,0c0.3-0.1,0.5-0.4,0.4-0.7c-0.3-0.8-0.5-1.7-0.8-2.5
					c-0.1-0.3-0.4-0.4-0.7-0.4c-0.3,0.1-0.4,0.4-0.3,0.7C247.3,68.3,247.6,69.1,247.8,70z"/>
				<path fill="#9F412A" d="M243.8,58.5c0.1,0.2,0.3,0.3,0.5,0.3c0.1,0,0.1,0,0.2,0c0.3-0.1,0.4-0.4,0.3-0.7c-0.3-0.8-0.7-1.6-1-2.4
					c-0.1-0.3-0.4-0.4-0.7-0.3c-0.3,0.1-0.4,0.4-0.3,0.7C243.1,56.9,243.4,57.7,243.8,58.5z"/>
				<path fill="#9F412A" d="M238.5,47.5c0.1,0.2,0.3,0.3,0.5,0.3c0.1,0,0.2,0,0.3-0.1c0.3-0.1,0.4-0.5,0.2-0.7
					c-0.4-0.8-0.9-1.5-1.3-2.3c-0.2-0.3-0.5-0.3-0.7-0.2c-0.3,0.2-0.3,0.5-0.2,0.7C237.7,46,238.1,46.8,238.5,47.5z"/>
				<path fill="#9F412A" d="M241.3,52.9c0.1,0.2,0.3,0.3,0.5,0.3c0.1,0,0.2,0,0.2-0.1c0.3-0.1,0.4-0.5,0.3-0.7
					c-0.4-0.8-0.8-1.6-1.2-2.4c-0.1-0.3-0.5-0.4-0.7-0.2c-0.3,0.1-0.4,0.5-0.2,0.7C240.6,51.4,240.9,52.1,241.3,52.9z"/>
				<path fill="#9F412A" d="M251.6,85.1c0.2,0.8,0.3,1.7,0.5,2.6c0,0.3,0.3,0.4,0.5,0.4c0,0,0.1,0,0.1,0c0.3-0.1,0.5-0.3,0.4-0.6
					c-0.2-0.9-0.3-1.7-0.5-2.6c-0.1-0.3-0.4-0.5-0.6-0.4C251.8,84.6,251.6,84.9,251.6,85.1z"/>
				<path fill="#9F412A" d="M255.5,115.4c0.1,0.9,0.1,1.7,0.2,2.6c0,0.3,0.3,0.5,0.5,0.5c0,0,0,0,0,0c0.3,0,0.5-0.3,0.5-0.6
					c0-0.9-0.1-1.7-0.2-2.6c0-0.3-0.3-0.5-0.6-0.5C255.7,114.8,255.4,115.1,255.5,115.4z"/>
				<path fill="#9F412A" d="M256.3,120.9c-0.3,0-0.5,0.3-0.5,0.6c0,0.9,0.1,1.7,0.1,2.6c0,0.3,0.3,0.5,0.5,0.5c0,0,0,0,0,0
					c0.3,0,0.5-0.3,0.5-0.6c0-0.9-0.1-1.8-0.1-2.6C256.9,121.1,256.6,120.9,256.3,120.9z"/>
				<path fill="#9F412A" d="M256.5,127L256.5,127c-0.3,0-0.6,0.3-0.5,0.6c0,0.9,0,1.7,0,2.6c0,0.3,0.2,0.5,0.5,0.5h0
					c0.3,0,0.5-0.3,0.5-0.6c0-0.9,0-1.8,0-2.6C257.1,127.2,256.8,127,256.5,127z"/>
				<path fill="#9F412A" d="M252.7,91.1c0.1,0.9,0.3,1.7,0.4,2.6c0,0.3,0.3,0.5,0.5,0.5c0,0,0.1,0,0.1,0c0.3,0,0.5-0.3,0.5-0.6
					c-0.1-0.9-0.3-1.7-0.4-2.6c0-0.3-0.3-0.5-0.6-0.4C252.9,90.6,252.7,90.8,252.7,91.1z"/>
				<path fill="#9F412A" d="M253.7,97.2c0.1,0.9,0.2,1.7,0.3,2.6c0,0.3,0.3,0.5,0.5,0.5c0,0,0,0,0.1,0c0.3,0,0.5-0.3,0.5-0.6
					c-0.1-0.9-0.2-1.7-0.3-2.6c0-0.3-0.3-0.5-0.6-0.5C253.8,96.6,253.6,96.9,253.7,97.2z"/>
				<path fill="#9F412A" d="M254.4,103.2c0.1,0.9,0.2,1.7,0.3,2.6c0,0.3,0.3,0.5,0.5,0.5c0,0,0,0,0.1,0c0.3,0,0.5-0.3,0.5-0.6
					c-0.1-0.9-0.2-1.7-0.3-2.6c0-0.3-0.3-0.5-0.6-0.5C254.6,102.6,254.4,102.9,254.4,103.2z"/>
				<path fill="#9F412A" d="M255,109.3c0.1,0.9,0.1,1.7,0.2,2.6c0,0.3,0.3,0.5,0.5,0.5c0,0,0,0,0,0c0.3,0,0.5-0.3,0.5-0.6
					c-0.1-0.9-0.1-1.7-0.2-2.6c0-0.3-0.3-0.5-0.6-0.5C255.2,108.7,255,109,255,109.3z"/>
				<path fill="#9F412A" d="M190.1,10.2c0.8,0.2,1.7,0.4,2.5,0.6c0,0,0.1,0,0.1,0c0.2,0,0.5-0.2,0.5-0.4c0.1-0.3-0.1-0.6-0.4-0.7
					c-0.9-0.2-1.7-0.4-2.6-0.6c-0.3-0.1-0.6,0.1-0.6,0.4C189.6,9.9,189.8,10.2,190.1,10.2z"/>
				<path fill="#9F412A" d="M192.9,322.9l-1.3,2.3c-0.1,0.3,0,0.6,0.2,0.7c0.1,0,0.2,0.1,0.3,0.1c0.2,0,0.4-0.1,0.5-0.3l1.3-2.3
					c0.1-0.3,0-0.6-0.2-0.7C193.3,322.6,193,322.7,192.9,322.9z"/>
				<path fill="#9F412A" d="M219.5,24.1c0.1,0.1,0.2,0.1,0.3,0.1c0.2,0,0.3-0.1,0.4-0.2c0.2-0.2,0.2-0.6-0.1-0.8
					c-0.7-0.6-1.4-1.1-2.1-1.6c-0.2-0.2-0.6-0.1-0.8,0.1c-0.2,0.2-0.1,0.6,0.1,0.8C218.2,23.1,218.8,23.6,219.5,24.1z"/>
				<path fill="#9F412A" d="M212.5,19.1c0.7,0.5,1.5,0.9,2.2,1.4c0.1,0.1,0.2,0.1,0.3,0.1c0.2,0,0.3-0.1,0.5-0.2
					c0.2-0.2,0.1-0.6-0.1-0.8c-0.7-0.5-1.5-1-2.2-1.4c-0.3-0.2-0.6-0.1-0.8,0.2C212.2,18.6,212.2,18.9,212.5,19.1z"/>
				<path fill="#9F412A" d="M224,28.2c0.1,0.1,0.2,0.2,0.4,0.2c0.1,0,0.3-0.1,0.4-0.2c0.2-0.2,0.2-0.6,0-0.8
					c-0.6-0.6-1.3-1.2-1.9-1.8c-0.2-0.2-0.6-0.2-0.8,0c-0.2,0.2-0.2,0.6,0,0.8C222.8,27,223.4,27.6,224,28.2z"/>
				<path fill="#9F412A" d="M201.7,13.7c0.8,0.3,1.6,0.6,2.4,1c0.1,0,0.1,0,0.2,0c0.2,0,0.4-0.1,0.5-0.3c0.1-0.3,0-0.6-0.3-0.7
					c-0.8-0.4-1.6-0.7-2.4-1c-0.3-0.1-0.6,0-0.7,0.3C201.3,13.2,201.4,13.6,201.7,13.7z"/>
				<path fill="#9F412A" d="M195.9,11.7c0.8,0.2,1.7,0.5,2.5,0.8c0.1,0,0.1,0,0.2,0c0.2,0,0.4-0.1,0.5-0.4c0.1-0.3-0.1-0.6-0.3-0.7
					c-0.8-0.3-1.7-0.5-2.5-0.8c-0.3-0.1-0.6,0.1-0.7,0.4C195.5,11.3,195.6,11.6,195.9,11.7z"/>
				<path fill="#9F412A" d="M207.2,16.1c0.8,0.4,1.5,0.8,2.3,1.2c0.1,0,0.2,0.1,0.3,0.1c0.2,0,0.4-0.1,0.5-0.3
					c0.1-0.3,0-0.6-0.2-0.7c-0.8-0.4-1.6-0.8-2.3-1.2c-0.3-0.1-0.6,0-0.7,0.2C206.8,15.7,206.9,16,207.2,16.1z"/>
				<path fill="#9F412A" d="M232,37.3c0.1,0.1,0.3,0.2,0.4,0.2c0.1,0,0.2,0,0.3-0.1c0.2-0.2,0.3-0.5,0.1-0.8
					c-0.5-0.7-1.1-1.4-1.6-2.1c-0.2-0.2-0.5-0.3-0.8-0.1c-0.2,0.2-0.3,0.5-0.1,0.8C231,35.9,231.5,36.6,232,37.3z"/>
				<path fill="#9F412A" d="M199.4,312c-0.3-0.1-0.6,0-0.7,0.2l-1.2,2.3c-0.1,0.3,0,0.6,0.2,0.7c0.1,0,0.2,0.1,0.3,0.1
					c0.2,0,0.4-0.1,0.5-0.3l1.2-2.3C199.8,312.5,199.7,312.1,199.4,312z"/>
				<path fill="#9F412A" d="M66.4,154.7c0.3,0,0.5-0.3,0.5-0.6c-0.1-0.9-0.2-1.7-0.3-2.6c0-0.3-0.3-0.5-0.6-0.5
					c-0.3,0-0.5,0.3-0.5,0.6c0.1,0.9,0.2,1.7,0.3,2.6C65.8,154.5,66.1,154.7,66.4,154.7C66.4,154.7,66.4,154.7,66.4,154.7z"/>
				<path fill="#9F412A" d="M225.8,256.8c-0.3-0.1-0.6,0-0.7,0.3l-1,2.4c-0.1,0.3,0,0.6,0.3,0.7c0.1,0,0.1,0,0.2,0
					c0.2,0,0.4-0.1,0.5-0.3l1-2.4C226.2,257.2,226.1,256.9,225.8,256.8z"/>
				<path fill="#9F412A" d="M228.1,251.2c-0.3-0.1-0.6,0-0.7,0.3c-0.3,0.8-0.7,1.6-1,2.4c-0.1,0.3,0,0.6,0.3,0.7c0.1,0,0.1,0,0.2,0
					c0.2,0,0.4-0.1,0.5-0.3c0.3-0.8,0.7-1.6,1-2.4C228.6,251.6,228.4,251.3,228.1,251.2z"/>
				<path fill="#9F412A" d="M229,31.9c-0.6-0.7-1.2-1.3-1.8-2c-0.2-0.2-0.6-0.2-0.8,0c-0.2,0.2-0.2,0.6,0,0.8
					c0.6,0.6,1.2,1.3,1.7,1.9c0.1,0.1,0.3,0.2,0.4,0.2c0.1,0,0.3,0,0.4-0.1C229.2,32.4,229.2,32.1,229,31.9z"/>
				<path fill="#9F412A" d="M236.9,228.4c-0.3-0.1-0.6,0-0.7,0.3c-0.3,0.8-0.6,1.6-0.9,2.5c-0.1,0.3,0,0.6,0.3,0.7
					c0.1,0,0.1,0,0.2,0c0.2,0,0.4-0.1,0.5-0.4c0.3-0.8,0.6-1.6,0.9-2.5C237.4,228.8,237.2,228.5,236.9,228.4z"/>
				<path fill="#9F412A" d="M232.7,239.9c-0.3-0.1-0.6,0-0.7,0.3c-0.3,0.8-0.6,1.6-0.9,2.4c-0.1,0.3,0,0.6,0.3,0.7
					c0.1,0,0.1,0,0.2,0c0.2,0,0.4-0.1,0.5-0.3c0.3-0.8,0.6-1.6,1-2.4C233.1,240.3,233,240,232.7,239.9z"/>
				<path fill="#9F412A" d="M239,222.6c-0.3-0.1-0.6,0.1-0.7,0.3c-0.3,0.8-0.6,1.6-0.9,2.5c-0.1,0.3,0,0.6,0.3,0.7
					c0.1,0,0.1,0,0.2,0c0.2,0,0.4-0.1,0.5-0.4c0.3-0.8,0.6-1.7,0.9-2.5C239.4,223,239.3,222.7,239,222.6z"/>
				<path fill="#9F412A" d="M234.8,234.1c-0.3-0.1-0.6,0-0.7,0.3c-0.3,0.8-0.6,1.6-0.9,2.5c-0.1,0.3,0,0.6,0.3,0.7
					c0.1,0,0.1,0,0.2,0c0.2,0,0.4-0.1,0.5-0.4c0.3-0.8,0.6-1.6,0.9-2.5C235.3,234.6,235.1,234.2,234.8,234.1z"/>
				<path fill="#9F412A" d="M213.2,284.7c-0.3-0.1-0.6,0-0.7,0.3l-1.1,2.4c-0.1,0.3,0,0.6,0.3,0.7c0.1,0,0.2,0.1,0.2,0.1
					c0.2,0,0.4-0.1,0.5-0.3l1.1-2.4C213.6,285.2,213.5,284.8,213.2,284.7z"/>
				<path fill="#9F412A" d="M210.5,290.2c-0.3-0.1-0.6,0-0.7,0.3l-1.2,2.3c-0.1,0.3,0,0.6,0.2,0.7c0.1,0,0.2,0.1,0.2,0.1
					c0.2,0,0.4-0.1,0.5-0.3l1.2-2.4C210.9,290.7,210.8,290.3,210.5,290.2z"/>
				<path fill="#9F412A" d="M207.8,295.7c-0.3-0.1-0.6,0-0.7,0.2c-0.4,0.8-0.8,1.6-1.2,2.3c-0.1,0.3,0,0.6,0.2,0.7
					c0.1,0,0.2,0.1,0.2,0.1c0.2,0,0.4-0.1,0.5-0.3c0.4-0.8,0.8-1.6,1.2-2.3C208.2,296.1,208.1,295.8,207.8,295.7z"/>
				<path fill="#9F412A" d="M220.9,268c-0.3-0.1-0.6,0-0.7,0.3l-1.1,2.4c-0.1,0.3,0,0.6,0.3,0.7c0.1,0,0.1,0,0.2,0
					c0.2,0,0.4-0.1,0.5-0.3l1.1-2.4C221.3,268.5,221.2,268.1,220.9,268z"/>
				<path fill="#9F412A" d="M215.8,279.2c-0.3-0.1-0.6,0-0.7,0.3c-0.4,0.8-0.7,1.6-1.1,2.4c-0.1,0.3,0,0.6,0.3,0.7
					c0.1,0,0.2,0.1,0.2,0.1c0.2,0,0.4-0.1,0.5-0.3c0.4-0.8,0.8-1.6,1.1-2.4C216.2,279.6,216.1,279.3,215.8,279.2z"/>
				<path fill="#9F412A" d="M223.4,262.4c-0.3-0.1-0.6,0-0.7,0.3c-0.3,0.8-0.7,1.6-1,2.4c-0.1,0.3,0,0.6,0.3,0.7c0.1,0,0.1,0,0.2,0
					c0.2,0,0.4-0.1,0.5-0.3c0.4-0.8,0.7-1.6,1.1-2.4C223.8,262.9,223.7,262.5,223.4,262.4z"/>
				<path fill="#9F412A" d="M218.4,273.6c-0.3-0.1-0.6,0-0.7,0.3c-0.4,0.8-0.7,1.6-1.1,2.4c-0.1,0.3,0,0.6,0.3,0.7
					c0.1,0,0.2,0,0.2,0c0.2,0,0.4-0.1,0.5-0.3c0.4-0.8,0.7-1.6,1.1-2.4C218.8,274,218.7,273.7,218.4,273.6z"/>
				<path fill="#9F412A" d="M250.8,181.5c-0.3-0.1-0.6,0.1-0.7,0.4c-0.2,0.8-0.4,1.7-0.6,2.5c-0.1,0.3,0.1,0.6,0.4,0.7
					c0,0,0.1,0,0.1,0c0.2,0,0.5-0.2,0.5-0.4c0.2-0.9,0.4-1.7,0.6-2.6C251.3,181.9,251.1,181.6,250.8,181.5z"/>
				<path fill="#9F412A" d="M255.8,151.4c-0.3,0-0.6,0.2-0.6,0.5c-0.1,0.9-0.2,1.7-0.3,2.6c0,0.3,0.2,0.6,0.5,0.6c0,0,0,0,0.1,0
					c0.3,0,0.5-0.2,0.5-0.5c0.1-0.9,0.2-1.7,0.3-2.6C256.3,151.7,256.1,151.4,255.8,151.4z"/>
				<path fill="#9F412A" d="M240.9,216.8c-0.3-0.1-0.6,0.1-0.7,0.3c-0.3,0.8-0.6,1.7-0.8,2.5c-0.1,0.3,0.1,0.6,0.3,0.7
					c0.1,0,0.1,0,0.2,0c0.2,0,0.4-0.1,0.5-0.4c0.3-0.8,0.6-1.7,0.8-2.5C241.4,217.2,241.2,216.9,240.9,216.8z"/>
				<path fill="#9F412A" d="M254.3,163.5c-0.3,0-0.6,0.2-0.6,0.5c-0.1,0.9-0.3,1.7-0.4,2.6c-0.1,0.3,0.1,0.6,0.4,0.6
					c0,0,0.1,0,0.1,0c0.3,0,0.5-0.2,0.5-0.5c0.1-0.9,0.3-1.7,0.4-2.6C254.8,163.9,254.6,163.6,254.3,163.5z"/>
				<path fill="#9F412A" d="M256.3,145.3c-0.3,0-0.6,0.2-0.6,0.5c-0.1,0.9-0.1,1.7-0.2,2.6c0,0.3,0.2,0.6,0.5,0.6c0,0,0,0,0,0
					c0.3,0,0.5-0.2,0.5-0.5c0.1-0.9,0.1-1.8,0.2-2.6C256.8,145.6,256.6,145.3,256.3,145.3z"/>
				<path fill="#9F412A" d="M257.1,133.6c0-0.3-0.2-0.5-0.5-0.5h0c-0.3,0-0.5,0.2-0.5,0.5l0,1.3c0,0.4,0,0.9,0,1.3
					c0,0.3,0.2,0.5,0.5,0.5h0c0.3,0,0.5-0.2,0.5-0.5c0-0.4,0-0.9,0-1.3L257.1,133.6z"/>
				<path fill="#9F412A" d="M253.3,169.6c-0.3-0.1-0.6,0.1-0.6,0.4c-0.2,0.9-0.3,1.7-0.5,2.6c-0.1,0.3,0.1,0.6,0.4,0.6
					c0,0,0.1,0,0.1,0c0.3,0,0.5-0.2,0.5-0.4c0.2-0.9,0.3-1.7,0.5-2.6C253.7,169.9,253.6,169.6,253.3,169.6z"/>
				<path fill="#9F412A" d="M256.5,139.2c-0.3,0-0.6,0.2-0.6,0.5c0,0.9-0.1,1.7-0.1,2.6c0,0.3,0.2,0.6,0.5,0.6c0,0,0,0,0,0
					c0.3,0,0.5-0.2,0.5-0.5c0-0.9,0.1-1.8,0.1-2.6C257.1,139.5,256.9,139.2,256.5,139.2z"/>
				<path fill="#9F412A" d="M255.1,157.5c-0.3,0-0.6,0.2-0.6,0.5c-0.1,0.9-0.2,1.7-0.3,2.6c0,0.3,0.2,0.6,0.5,0.6c0,0,0,0,0.1,0
					c0.3,0,0.5-0.2,0.5-0.5c0.1-0.9,0.2-1.7,0.3-2.6C255.6,157.8,255.4,157.5,255.1,157.5z"/>
				<path fill="#9F412A" d="M244.6,205.2c-0.3-0.1-0.6,0.1-0.7,0.4c-0.3,0.8-0.5,1.7-0.8,2.5c-0.1,0.3,0.1,0.6,0.4,0.7
					c0.1,0,0.1,0,0.2,0c0.2,0,0.4-0.2,0.5-0.4c0.3-0.8,0.5-1.7,0.8-2.5C245.1,205.6,244.9,205.3,244.6,205.2z"/>
				<path fill="#9F412A" d="M252.1,175.6c-0.3-0.1-0.6,0.1-0.6,0.4c-0.2,0.9-0.4,1.7-0.5,2.6c-0.1,0.3,0.1,0.6,0.4,0.6
					c0,0,0.1,0,0.1,0c0.3,0,0.5-0.2,0.5-0.4c0.2-0.9,0.4-1.7,0.5-2.6C252.6,175.9,252.4,175.6,252.1,175.6z"/>
				<path fill="#9F412A" d="M246.3,199.3c-0.3-0.1-0.6,0.1-0.7,0.4c-0.2,0.8-0.5,1.7-0.7,2.5c-0.1,0.3,0.1,0.6,0.4,0.7
					c0,0,0.1,0,0.2,0c0.2,0,0.5-0.2,0.5-0.4c0.2-0.8,0.5-1.7,0.7-2.5C246.8,199.7,246.6,199.4,246.3,199.3z"/>
				<path fill="#9F412A" d="M242.8,211c-0.3-0.1-0.6,0.1-0.7,0.4c-0.3,0.8-0.5,1.7-0.8,2.5c-0.1,0.3,0.1,0.6,0.4,0.7
					c0.1,0,0.1,0,0.2,0c0.2,0,0.4-0.1,0.5-0.4c0.3-0.8,0.5-1.7,0.8-2.5C243.3,211.4,243.1,211.1,242.8,211z"/>
				<path fill="#9F412A" d="M205.1,301.1c-0.3-0.1-0.6,0-0.7,0.2c-0.4,0.8-0.8,1.6-1.2,2.3c-0.1,0.3,0,0.6,0.2,0.7
					c0.1,0,0.2,0.1,0.2,0.1c0.2,0,0.4-0.1,0.5-0.3c0.4-0.8,0.8-1.6,1.2-2.3C205.4,301.6,205.3,301.3,205.1,301.1z"/>
				<path fill="#9F412A" d="M247.9,193.4c-0.3-0.1-0.6,0.1-0.7,0.4c-0.2,0.8-0.4,1.7-0.7,2.5c-0.1,0.3,0.1,0.6,0.4,0.7
					c0,0,0.1,0,0.1,0c0.2,0,0.5-0.2,0.5-0.4c0.2-0.8,0.5-1.7,0.7-2.5C248.4,193.8,248.2,193.5,247.9,193.4z"/>
				<path fill="#9F412A" d="M249.4,187.5c-0.3-0.1-0.6,0.1-0.7,0.4c-0.2,0.8-0.4,1.7-0.6,2.5c-0.1,0.3,0.1,0.6,0.4,0.7
					c0,0,0.1,0,0.1,0c0.2,0,0.5-0.2,0.5-0.4c0.2-0.8,0.4-1.7,0.6-2.5C249.9,187.9,249.7,187.6,249.4,187.5z"/>
				<path fill="#9F412A" d="M230.4,245.5c-0.3-0.1-0.6,0-0.7,0.3c-0.3,0.8-0.6,1.6-1,2.4c-0.1,0.3,0,0.6,0.3,0.7c0.1,0,0.1,0,0.2,0
					c0.2,0,0.4-0.1,0.5-0.3c0.3-0.8,0.7-1.6,1-2.4C230.9,246,230.7,245.6,230.4,245.5z"/>
				<path fill="#9F412A" d="M80.4,213.5c-0.3-0.8-0.5-1.7-0.8-2.5c-0.1-0.3-0.4-0.4-0.7-0.4c-0.3,0.1-0.4,0.4-0.4,0.7
					c0.3,0.8,0.5,1.7,0.8,2.5c0.1,0.2,0.3,0.4,0.5,0.4c0.1,0,0.1,0,0.2,0C80.3,214.1,80.5,213.8,80.4,213.5z"/>
				<path fill="#9F412A" d="M78.6,207.7c-0.3-0.8-0.5-1.7-0.8-2.5c-0.1-0.3-0.4-0.5-0.7-0.4c-0.3,0.1-0.5,0.4-0.4,0.7
					c0.3,0.8,0.5,1.7,0.8,2.5c0.1,0.2,0.3,0.4,0.5,0.4c0.1,0,0.1,0,0.2,0C78.5,208.3,78.6,208,78.6,207.7z"/>
				<path fill="#9F412A" d="M81.5,216.8c-0.1-0.3-0.4-0.4-0.7-0.3c-0.3,0.1-0.4,0.4-0.3,0.7c0.3,0.8,0.6,1.7,0.8,2.5
					c0.1,0.2,0.3,0.4,0.5,0.4c0.1,0,0.1,0,0.2,0c0.3-0.1,0.4-0.4,0.3-0.7C82,218.5,81.7,217.7,81.5,216.8z"/>
				<path fill="#9F412A" d="M202.3,306.6c-0.3-0.1-0.6,0-0.7,0.2l-1.2,2.3c-0.1,0.3,0,0.6,0.2,0.7c0.1,0,0.2,0.1,0.3,0.1
					c0.2,0,0.4-0.1,0.5-0.3l1.2-2.3C202.6,307,202.5,306.7,202.3,306.6z"/>
				<path fill="#9F412A" d="M89.7,239.8c-0.1-0.3-0.4-0.4-0.7-0.3c-0.3,0.1-0.4,0.4-0.3,0.7c0.3,0.8,0.6,1.6,1,2.4
					c0.1,0.2,0.3,0.3,0.5,0.3c0.1,0,0.1,0,0.2,0c0.3-0.1,0.4-0.4,0.3-0.7C90.4,241.5,90.1,240.6,89.7,239.8z"/>
				<path fill="#9F412A" d="M83.4,222.6c-0.1-0.3-0.4-0.4-0.7-0.3c-0.3,0.1-0.4,0.4-0.3,0.7c0.3,0.8,0.6,1.6,0.9,2.5
					c0.1,0.2,0.3,0.4,0.5,0.4c0.1,0,0.1,0,0.2,0c0.3-0.1,0.4-0.4,0.3-0.7C84,224.3,83.7,223.5,83.4,222.6z"/>
				<path fill="#9F412A" d="M85.5,228.4c-0.1-0.3-0.4-0.4-0.7-0.3c-0.3,0.1-0.4,0.4-0.3,0.7c0.3,0.8,0.6,1.6,0.9,2.5
					c0.1,0.2,0.3,0.4,0.5,0.4c0.1,0,0.1,0,0.2,0c0.3-0.1,0.4-0.4,0.3-0.7C86.1,230,85.8,229.2,85.5,228.4z"/>
				<path fill="#9F412A" d="M87.6,234.1c-0.1-0.3-0.4-0.4-0.7-0.3c-0.3,0.1-0.4,0.4-0.3,0.7c0.3,0.8,0.6,1.6,0.9,2.5
					c0.1,0.2,0.3,0.4,0.5,0.4c0.1,0,0.1,0,0.2,0c0.3-0.1,0.4-0.4,0.3-0.7C88.2,235.8,87.9,234.9,87.6,234.1z"/>
				<path fill="#9F412A" d="M75.2,196c-0.2-0.8-0.5-1.7-0.7-2.5c-0.1-0.3-0.4-0.5-0.7-0.4c-0.3,0.1-0.5,0.4-0.4,0.7
					c0.2,0.8,0.5,1.7,0.7,2.5c0.1,0.2,0.3,0.4,0.5,0.4c0,0,0.1,0,0.1,0C75.1,196.6,75.2,196.3,75.2,196z"/>
				<path fill="#9F412A" d="M69.6,172.2c-0.2-0.9-0.3-1.7-0.5-2.6c-0.1-0.3-0.3-0.5-0.6-0.4c-0.3,0.1-0.5,0.3-0.4,0.6
					c0.2,0.9,0.3,1.7,0.5,2.6c0.1,0.3,0.3,0.4,0.5,0.4c0,0,0.1,0,0.1,0C69.5,172.8,69.7,172.5,69.6,172.2z"/>
				<path fill="#9F412A" d="M67.2,160.8c0.3,0,0.5-0.3,0.5-0.6c-0.1-0.9-0.2-1.7-0.3-2.6c0-0.3-0.3-0.5-0.6-0.5
					c-0.3,0-0.5,0.3-0.5,0.6c0.1,0.9,0.2,1.7,0.3,2.6C66.6,160.6,66.8,160.8,67.2,160.8C67.1,160.8,67.2,160.8,67.2,160.8z"/>
				<path fill="#9F412A" d="M68.6,166.2c-0.1-0.9-0.3-1.7-0.4-2.6c0-0.3-0.3-0.5-0.6-0.5c-0.3,0-0.5,0.3-0.5,0.6
					c0.1,0.9,0.3,1.7,0.4,2.6c0,0.3,0.3,0.5,0.5,0.5c0,0,0.1,0,0.1,0C68.4,166.8,68.6,166.5,68.6,166.2z"/>
				<path fill="#9F412A" d="M73.6,190.1c-0.2-0.8-0.4-1.7-0.6-2.5c-0.1-0.3-0.4-0.5-0.7-0.4c-0.3,0.1-0.5,0.4-0.4,0.7
					c0.2,0.8,0.4,1.7,0.6,2.5c0.1,0.2,0.3,0.4,0.5,0.4c0,0,0.1,0,0.1,0C73.5,190.7,73.7,190.4,73.6,190.1z"/>
				<path fill="#9F412A" d="M70.8,178.2c-0.2-0.9-0.4-1.7-0.5-2.6c-0.1-0.3-0.3-0.5-0.6-0.4c-0.3,0.1-0.5,0.3-0.4,0.6
					c0.2,0.9,0.4,1.7,0.5,2.6c0.1,0.3,0.3,0.4,0.5,0.4c0,0,0.1,0,0.1,0C70.7,178.8,70.9,178.5,70.8,178.2z"/>
				<path fill="#9F412A" d="M72.2,184.2c-0.2-0.9-0.4-1.7-0.6-2.5c-0.1-0.3-0.4-0.5-0.7-0.4c-0.3,0.1-0.5,0.4-0.4,0.7
					c0.2,0.9,0.4,1.7,0.6,2.6c0.1,0.3,0.3,0.4,0.5,0.4c0,0,0.1,0,0.1,0C72.1,184.7,72.2,184.4,72.2,184.2z"/>
				<path fill="#9F412A" d="M76.8,201.9c-0.2-0.8-0.5-1.7-0.7-2.5c-0.1-0.3-0.4-0.5-0.7-0.4c-0.3,0.1-0.5,0.4-0.4,0.7
					c0.2,0.8,0.5,1.7,0.7,2.5c0.1,0.2,0.3,0.4,0.5,0.4c0.1,0,0.1,0,0.2,0C76.7,202.4,76.9,202.1,76.8,201.9z"/>
				<path fill="#9F412A" d="M114.6,295.6c-0.1-0.3-0.5-0.4-0.7-0.2c-0.3,0.1-0.4,0.5-0.2,0.7c0.4,0.8,0.8,1.6,1.2,2.3
					c0.1,0.2,0.3,0.3,0.5,0.3c0.1,0,0.2,0,0.2-0.1c0.3-0.1,0.4-0.5,0.2-0.7C115.4,297.2,115,296.4,114.6,295.6z"/>
				<path fill="#9F412A" d="M92,245.5c-0.1-0.3-0.4-0.4-0.7-0.3c-0.3,0.1-0.4,0.4-0.3,0.7c0.3,0.8,0.7,1.6,1,2.4
					c0.1,0.2,0.3,0.3,0.5,0.3c0.1,0,0.1,0,0.2,0c0.3-0.1,0.4-0.4,0.3-0.7C92.6,247.1,92.3,246.3,92,245.5z"/>
				<path fill="#9F412A" d="M109.2,284.7c-0.1-0.3-0.5-0.4-0.7-0.3c-0.3,0.1-0.4,0.5-0.3,0.7l1.1,2.4c0.1,0.2,0.3,0.3,0.5,0.3
					c0.1,0,0.2,0,0.2-0.1c0.3-0.1,0.4-0.5,0.3-0.7L109.2,284.7z"/>
				<path fill="#9F412A" d="M117.3,301c-0.1-0.3-0.5-0.4-0.7-0.2c-0.3,0.1-0.4,0.5-0.2,0.7c0.4,0.8,0.8,1.6,1.2,2.3
					c0.1,0.2,0.3,0.3,0.5,0.3c0.1,0,0.2,0,0.2-0.1c0.3-0.1,0.4-0.5,0.2-0.7C118.1,302.6,117.7,301.8,117.3,301z"/>
				<path fill="#9F412A" d="M120.1,306.5c-0.1-0.3-0.5-0.4-0.7-0.2c-0.3,0.1-0.4,0.5-0.2,0.7c0.4,0.8,0.8,1.6,1.2,2.3
					c0.1,0.2,0.3,0.3,0.5,0.3c0.1,0,0.2,0,0.3-0.1c0.3-0.1,0.4-0.5,0.2-0.7C121,308,120.5,307.3,120.1,306.5z"/>
				<path fill="#9F412A" d="M196.5,317.4c-0.3-0.1-0.6,0-0.7,0.2c-0.4,0.8-0.8,1.5-1.3,2.3c-0.1,0.3,0,0.6,0.2,0.7
					c0.1,0,0.2,0.1,0.3,0.1c0.2,0,0.4-0.1,0.5-0.3c0.4-0.8,0.8-1.5,1.3-2.3C196.9,317.8,196.8,317.5,196.5,317.4z"/>
				<path fill="#9F412A" d="M123.7,315c0.1,0,0.2,0,0.3-0.1c0.3-0.1,0.4-0.5,0.2-0.7c-0.4-0.8-0.8-1.5-1.2-2.3
					c-0.1-0.3-0.5-0.4-0.7-0.2c-0.3,0.1-0.4,0.5-0.2,0.7c0.4,0.8,0.8,1.5,1.2,2.3C123.4,314.9,123.5,315,123.7,315z"/>
				<path fill="#9F412A" d="M111.9,290.1c-0.1-0.3-0.5-0.4-0.7-0.2c-0.3,0.1-0.4,0.5-0.2,0.7c0.4,0.8,0.8,1.6,1.2,2.3
					c0.1,0.2,0.3,0.3,0.5,0.3c0.1,0,0.2,0,0.2-0.1c0.3-0.1,0.4-0.5,0.2-0.7C112.7,291.7,112.3,290.9,111.9,290.1z"/>
				<path fill="#9F412A" d="M96.6,256.8c-0.1-0.3-0.4-0.4-0.7-0.3c-0.3,0.1-0.4,0.4-0.3,0.7c0.3,0.8,0.7,1.6,1,2.4
					c0.1,0.2,0.3,0.3,0.5,0.3c0.1,0,0.1,0,0.2,0c0.3-0.1,0.4-0.4,0.3-0.7C97.3,258.4,97,257.6,96.6,256.8z"/>
				<path fill="#9F412A" d="M94.3,251.2c-0.1-0.3-0.4-0.4-0.7-0.3c-0.3,0.1-0.4,0.4-0.3,0.7c0.3,0.8,0.7,1.6,1,2.4
					c0.1,0.2,0.3,0.3,0.5,0.3c0.1,0,0.1,0,0.2,0c0.3-0.1,0.4-0.4,0.3-0.7C94.9,252.8,94.6,252,94.3,251.2z"/>
				<path fill="#9F412A" d="M93.9,32.3c0.6-0.7,1.2-1.3,1.8-1.9c0.2-0.2,0.2-0.6,0-0.8c-0.2-0.2-0.6-0.2-0.8,0
					c-0.6,0.6-1.2,1.3-1.8,2c-0.2,0.2-0.2,0.6,0,0.8c0.1,0.1,0.2,0.1,0.4,0.1C93.6,32.5,93.8,32.4,93.9,32.3z"/>
				<path fill="#9F412A" d="M101.5,268c-0.1-0.3-0.4-0.4-0.7-0.3c-0.3,0.1-0.4,0.4-0.3,0.7c0.4,0.8,0.7,1.6,1.1,2.4
					c0.1,0.2,0.3,0.3,0.5,0.3c0.1,0,0.2,0,0.2,0c0.3-0.1,0.4-0.5,0.3-0.7C102.2,269.6,101.9,268.8,101.5,268z"/>
				<path fill="#9F412A" d="M104,273.6c-0.1-0.3-0.5-0.4-0.7-0.3c-0.3,0.1-0.4,0.4-0.3,0.7c0.4,0.8,0.7,1.6,1.1,2.4
					c0.1,0.2,0.3,0.3,0.5,0.3c0.1,0,0.2,0,0.2,0c0.3-0.1,0.4-0.5,0.3-0.7C104.8,275.2,104.4,274.4,104,273.6z"/>
				<path fill="#9F412A" d="M106.6,279.2c-0.1-0.3-0.5-0.4-0.7-0.3c-0.3,0.1-0.4,0.5-0.3,0.7l1.1,2.4c0.1,0.2,0.3,0.3,0.5,0.3
					c0.1,0,0.2,0,0.2-0.1c0.3-0.1,0.4-0.5,0.3-0.7L106.6,279.2z"/>
				<path fill="#9F412A" d="M99.1,262.4c-0.1-0.3-0.4-0.4-0.7-0.3c-0.3,0.1-0.4,0.4-0.3,0.7c0.3,0.8,0.7,1.6,1.1,2.4
					c0.1,0.2,0.3,0.3,0.5,0.3c0.1,0,0.1,0,0.2,0c0.3-0.1,0.4-0.4,0.3-0.7C99.8,264,99.4,263.2,99.1,262.4z"/>
			</g>
		</g>
		<g>
			<path fill="#9F412A" d="M109.2,110.8C109.2,110.8,109.2,110.8,109.2,110.8c0.3,0,0.6-0.2,0.6-0.5c0-0.9,0.1-1.7,0.1-2.6
				c0-0.3-0.2-0.6-0.5-0.6c-0.3,0-0.6,0.2-0.6,0.5c0,0.9-0.1,1.7-0.1,2.6C108.6,110.5,108.9,110.8,109.2,110.8z"/>
			<path fill="#9F412A" d="M108.9,116.9C109,116.9,109,116.9,108.9,116.9c0.3,0,0.6-0.2,0.6-0.5c0-0.9,0.1-1.7,0.1-2.6
				c0-0.3-0.2-0.6-0.5-0.6c-0.3,0-0.6,0.2-0.6,0.5c0,0.9-0.1,1.7-0.1,2.6C108.4,116.6,108.6,116.9,108.9,116.9z"/>
			<path fill="#9F412A" d="M109.5,104.7C109.5,104.7,109.5,104.7,109.5,104.7c0.3,0,0.6-0.2,0.6-0.5c0-0.9,0.1-1.7,0.2-2.6
				c0-0.3-0.2-0.6-0.5-0.6c-0.3,0-0.6,0.2-0.6,0.5c-0.1,0.9-0.1,1.7-0.2,2.6C108.9,104.4,109.2,104.7,109.5,104.7z"/>
			<path fill="#9F412A" d="M108.7,129.1L108.7,129.1c0.3,0,0.5-0.2,0.6-0.5c0-0.9,0-1.7,0-2.6c0-0.3-0.2-0.5-0.5-0.6
				c-0.3,0-0.6,0.2-0.6,0.5c0,0.9,0,1.7,0,2.6C108.2,128.9,108.4,129.1,108.7,129.1z"/>
			<path fill="#9F412A" d="M116.7,50.2c0,0,0.1,0,0.1,0c0.2,0,0.5-0.2,0.5-0.4c0.2-0.9,0.4-1.7,0.6-2.5c0.1-0.3-0.1-0.6-0.4-0.7
				c-0.3-0.1-0.6,0.1-0.7,0.4c-0.2,0.8-0.4,1.7-0.6,2.5C116.2,49.9,116.4,50.2,116.7,50.2z"/>
			<path fill="#9F412A" d="M109.8,98.6C109.9,98.6,109.9,98.6,109.8,98.6c0.3,0,0.6-0.2,0.6-0.5c0.1-0.9,0.1-1.7,0.2-2.6
				c0-0.3-0.2-0.6-0.5-0.6c-0.3,0-0.6,0.2-0.6,0.5c-0.1,0.9-0.1,1.7-0.2,2.6C109.3,98.3,109.5,98.6,109.8,98.6z"/>
			<path fill="#9F412A" d="M108.7,141.3L108.7,141.3c0.3,0,0.5-0.3,0.5-0.6c0-0.9,0-1.7,0-2.6c0-0.3-0.2-0.5-0.5-0.5h0
				c-0.3,0-0.5,0.2-0.5,0.5c0,0.9,0,1.7,0,2.6C108.2,141.1,108.4,141.3,108.7,141.3z"/>
			<path fill="#9F412A" d="M108.8,123L108.8,123c0.3,0,0.6-0.2,0.6-0.5c0-0.9,0-1.8,0.1-2.6c0-0.3-0.2-0.6-0.5-0.6
				c-0.3,0-0.6,0.2-0.6,0.5c0,0.9,0,1.7-0.1,2.6C108.2,122.7,108.5,123,108.8,123z"/>
			<path fill="#9F412A" d="M110.3,92.5C110.3,92.5,110.3,92.5,110.3,92.5c0.3,0,0.6-0.2,0.6-0.5c0.1-0.9,0.2-1.7,0.2-2.6
				c0-0.3-0.2-0.6-0.5-0.6c-0.3,0-0.6,0.2-0.6,0.5c-0.1,0.9-0.2,1.7-0.2,2.6C109.8,92.2,110,92.5,110.3,92.5z"/>
			<path fill="#9F412A" d="M115.3,56.2c0,0,0.1,0,0.1,0c0.3,0,0.5-0.2,0.5-0.4c0.2-0.9,0.4-1.7,0.6-2.6c0.1-0.3-0.1-0.6-0.4-0.7
				c-0.3-0.1-0.6,0.1-0.7,0.4c-0.2,0.8-0.4,1.7-0.6,2.6C114.8,55.8,115,56.1,115.3,56.2z"/>
			<path fill="#9F412A" d="M113.2,68.2C113.2,68.2,113.2,68.2,113.2,68.2c0.3,0,0.6-0.2,0.6-0.5c0.1-0.9,0.3-1.7,0.4-2.6
				c0-0.3-0.1-0.6-0.4-0.6c-0.3,0-0.6,0.2-0.6,0.4c-0.1,0.9-0.3,1.7-0.4,2.6C112.7,67.9,112.9,68.2,113.2,68.2z"/>
			<path fill="#9F412A" d="M114.2,62.2C114.2,62.2,114.2,62.2,114.2,62.2c0.4,0,0.6-0.2,0.6-0.4c0.2-0.9,0.3-1.7,0.5-2.6
				c0.1-0.3-0.1-0.6-0.4-0.6c-0.3-0.1-0.6,0.1-0.6,0.4c-0.2,0.9-0.3,1.7-0.5,2.6C113.7,61.8,113.9,62.1,114.2,62.2z"/>
			<path fill="#9F412A" d="M110.9,86.4C110.9,86.4,110.9,86.4,110.9,86.4c0.3,0,0.6-0.2,0.6-0.5c0.1-0.9,0.2-1.7,0.3-2.6
				c0-0.3-0.2-0.6-0.5-0.6c-0.3,0-0.6,0.2-0.6,0.5c-0.1,0.9-0.2,1.7-0.3,2.6C110.3,86.1,110.6,86.4,110.9,86.4z"/>
			<path fill="#9F412A" d="M111.5,80.3C111.5,80.3,111.6,80.3,111.5,80.3c0.3,0,0.6-0.2,0.6-0.5c0.1-0.9,0.2-1.7,0.3-2.6
				c0-0.3-0.2-0.6-0.5-0.6c-0.3,0-0.6,0.2-0.6,0.5c-0.1,0.9-0.2,1.7-0.3,2.6C111,80,111.2,80.3,111.5,80.3z"/>
			<path fill="#9F412A" d="M112.3,74.3C112.3,74.3,112.3,74.3,112.3,74.3c0.3,0,0.6-0.2,0.6-0.5c0.1-0.9,0.2-1.7,0.4-2.6
				c0-0.3-0.2-0.6-0.5-0.6c-0.3,0-0.6,0.2-0.6,0.5c-0.1,0.9-0.2,1.7-0.4,2.6C111.8,73.9,112,74.2,112.3,74.3z"/>
			<path fill="#9F412A" d="M108.7,135.2L108.7,135.2c0.3,0,0.5-0.2,0.5-0.5c0-0.9,0-1.7,0-2.6c0-0.3-0.2-0.5-0.5-0.6h0
				c-0.3,0-0.5,0.2-0.5,0.5c0,0.9,0,1.7,0,2.6C108.1,135,108.4,135.2,108.7,135.2z"/>
			<path fill="#9F412A" d="M113,196.2c0.3,0,0.5-0.3,0.5-0.6c-0.1-0.9-0.2-1.7-0.3-2.6c0-0.3-0.3-0.5-0.6-0.5
				c-0.3,0-0.5,0.3-0.5,0.6c0.1,0.9,0.2,1.7,0.3,2.6C112.4,196,112.6,196.2,113,196.2C112.9,196.2,112.9,196.2,113,196.2z"/>
			<path fill="#9F412A" d="M114.7,208.3c0.3,0,0.5-0.3,0.5-0.6c-0.1-0.9-0.3-1.7-0.4-2.6c0-0.3-0.3-0.5-0.6-0.5
				c-0.3,0-0.5,0.3-0.5,0.6c0.1,0.9,0.3,1.7,0.4,2.6C114.1,208.1,114.3,208.3,114.7,208.3C114.6,208.3,114.7,208.3,114.7,208.3z"/>
			<path fill="#9F412A" d="M113.8,202.3c0.3,0,0.5-0.3,0.5-0.6c-0.1-0.9-0.2-1.7-0.4-2.6c0-0.3-0.3-0.5-0.6-0.5
				c-0.3,0-0.5,0.3-0.5,0.6c0.1,0.9,0.2,1.7,0.4,2.6C113.2,202.1,113.4,202.3,113.8,202.3C113.7,202.3,113.8,202.3,113.8,202.3z"/>
			<path fill="#9F412A" d="M116.1,213.7c-0.1-0.9-0.3-1.7-0.4-2.6c0-0.3-0.3-0.5-0.6-0.5c-0.3,0-0.5,0.3-0.5,0.6
				c0.1,0.9,0.3,1.7,0.4,2.6c0,0.3,0.3,0.5,0.5,0.5c0,0,0.1,0,0.1,0C115.9,214.3,116.1,214,116.1,213.7z"/>
			<path fill="#9F412A" d="M119.3,231.7c-0.2-0.9-0.3-1.7-0.5-2.6c-0.1-0.3-0.3-0.5-0.6-0.4c-0.3,0.1-0.5,0.3-0.4,0.6
				c0.2,0.9,0.3,1.7,0.5,2.6c0,0.3,0.3,0.4,0.5,0.4c0,0,0.1,0,0.1,0C119.1,232.3,119.3,232,119.3,231.7z"/>
			<path fill="#9F412A" d="M118.2,225.7c-0.2-0.9-0.3-1.7-0.5-2.6c-0.1-0.3-0.3-0.5-0.6-0.4c-0.3,0.1-0.5,0.3-0.4,0.6
				c0.2,0.9,0.3,1.7,0.5,2.6c0,0.3,0.3,0.4,0.5,0.4c0,0,0.1,0,0.1,0C118,226.3,118.2,226,118.2,225.7z"/>
			<path fill="#9F412A" d="M117.1,219.7c-0.1-0.9-0.3-1.7-0.4-2.6c-0.1-0.3-0.3-0.5-0.6-0.4c-0.3,0.1-0.5,0.3-0.4,0.6
				c0.1,0.9,0.3,1.7,0.4,2.6c0,0.3,0.3,0.5,0.5,0.5c0,0,0.1,0,0.1,0C116.9,220.3,117.1,220,117.1,219.7z"/>
			<path fill="#9F412A" d="M112.2,190.2c0.3,0,0.5-0.3,0.5-0.6c-0.1-0.9-0.2-1.7-0.3-2.6c0-0.3-0.3-0.5-0.6-0.5
				c-0.3,0-0.5,0.3-0.5,0.6c0.1,0.9,0.2,1.7,0.3,2.6C111.6,190,111.8,190.2,112.2,190.2C112.1,190.2,112.2,190.2,112.2,190.2z"/>
			<path fill="#9F412A" d="M109.4,159.7c0.3,0,0.5-0.3,0.5-0.6c-0.1-0.9-0.1-1.7-0.1-2.6c0-0.3-0.3-0.5-0.6-0.5
				c-0.3,0-0.5,0.3-0.5,0.6c0,0.9,0.1,1.7,0.1,2.6C108.8,159.4,109.1,159.7,109.4,159.7C109.4,159.7,109.4,159.7,109.4,159.7z"/>
			<path fill="#9F412A" d="M109,153.6C109.1,153.6,109.1,153.6,109,153.6c0.3,0,0.6-0.3,0.5-0.6c0-0.9-0.1-1.7-0.1-2.6
				c0-0.3-0.3-0.6-0.6-0.5c-0.3,0-0.5,0.3-0.5,0.6c0,0.9,0.1,1.7,0.1,2.6C108.5,153.3,108.8,153.6,109,153.6z"/>
			<path fill="#9F412A" d="M108.8,147.5L108.8,147.5c0.3,0,0.6-0.3,0.5-0.6c0-0.9,0-1.8-0.1-2.6c0-0.3-0.2-0.5-0.6-0.5
				c-0.3,0-0.5,0.3-0.5,0.6c0,0.9,0,1.8,0.1,2.6C108.3,147.2,108.5,147.5,108.8,147.5z"/>
			<path fill="#9F412A" d="M109.8,165.8c0.3,0,0.5-0.3,0.5-0.6c-0.1-0.9-0.1-1.7-0.2-2.6c0-0.3-0.3-0.5-0.6-0.5
				c-0.3,0-0.5,0.3-0.5,0.6c0.1,0.9,0.1,1.7,0.2,2.6C109.2,165.5,109.5,165.8,109.8,165.8C109.8,165.8,109.8,165.8,109.8,165.8z"/>
			<path fill="#9F412A" d="M111.5,184.1c0.3,0,0.5-0.3,0.5-0.6c-0.1-0.9-0.2-1.7-0.3-2.6c0-0.3-0.3-0.5-0.6-0.5
				c-0.3,0-0.5,0.3-0.5,0.6c0.1,0.9,0.2,1.7,0.3,2.6C110.9,183.9,111.1,184.1,111.5,184.1C111.4,184.1,111.5,184.1,111.5,184.1z"/>
			<path fill="#9F412A" d="M110.3,171.9c0.3,0,0.5-0.3,0.5-0.6c-0.1-0.9-0.1-1.7-0.2-2.6c0-0.3-0.3-0.5-0.6-0.5
				c-0.3,0-0.5,0.3-0.5,0.6c0.1,0.9,0.1,1.7,0.2,2.6C109.7,171.7,110,171.9,110.3,171.9C110.3,171.9,110.3,171.9,110.3,171.9z"/>
			<path fill="#9F412A" d="M110.8,178c0.3,0,0.5-0.3,0.5-0.6c-0.1-0.9-0.2-1.7-0.2-2.6c0-0.3-0.3-0.5-0.6-0.5
				c-0.3,0-0.5,0.3-0.5,0.6c0.1,0.9,0.2,1.7,0.2,2.6C110.3,177.8,110.5,178,110.8,178C110.8,178,110.8,178,110.8,178z"/>
			<path fill="#9F412A" d="M208.3,69.2c0.1,0.9,0.3,1.7,0.4,2.6c0,0.3,0.3,0.5,0.5,0.5c0,0,0.1,0,0.1,0c0.3,0,0.5-0.3,0.5-0.6
				c-0.1-0.9-0.3-1.7-0.4-2.6c0-0.3-0.3-0.5-0.6-0.5C208.4,68.6,208.2,68.9,208.3,69.2z"/>
			<path fill="#9F412A" d="M209.1,75.2c0.1,0.9,0.2,1.7,0.3,2.6c0,0.3,0.3,0.5,0.5,0.5c0,0,0,0,0.1,0c0.3,0,0.5-0.3,0.5-0.6
				c-0.1-0.9-0.2-1.7-0.3-2.6c0-0.3-0.3-0.5-0.6-0.5C209.3,74.6,209.1,74.9,209.1,75.2z"/>
			<path fill="#9F412A" d="M209.9,81.3c0.1,0.9,0.2,1.7,0.3,2.6c0,0.3,0.3,0.5,0.5,0.5c0,0,0,0,0.1,0c0.3,0,0.5-0.3,0.5-0.6
				c-0.1-0.9-0.2-1.7-0.3-2.6c0-0.3-0.3-0.5-0.6-0.5C210.1,80.7,209.9,81,209.9,81.3z"/>
			<path fill="#9F412A" d="M207.3,63.2c0.2,0.9,0.3,1.7,0.4,2.6c0,0.3,0.3,0.5,0.5,0.5c0,0,0.1,0,0.1,0c0.3,0,0.5-0.3,0.4-0.6
				c-0.1-0.9-0.3-1.7-0.4-2.6c-0.1-0.3-0.3-0.5-0.6-0.4C207.4,62.6,207.2,62.9,207.3,63.2z"/>
			<path fill="#9F412A" d="M210.5,87.3c0.1,0.9,0.2,1.7,0.2,2.6c0,0.3,0.3,0.5,0.5,0.5c0,0,0,0,0,0c0.3,0,0.5-0.3,0.5-0.6
				c-0.1-0.9-0.2-1.7-0.2-2.6c0-0.3-0.3-0.5-0.6-0.5C210.7,86.8,210.5,87,210.5,87.3z"/>
			<path fill="#9F412A" d="M204.9,51.2c0.2,0.8,0.4,1.7,0.6,2.5c0.1,0.3,0.3,0.4,0.5,0.4c0,0,0.1,0,0.1,0c0.3-0.1,0.5-0.4,0.4-0.6
				c-0.2-0.9-0.4-1.7-0.6-2.6c-0.1-0.3-0.4-0.5-0.7-0.4C205,50.6,204.8,50.9,204.9,51.2z"/>
			<path fill="#9F412A" d="M206.2,57.2c0.2,0.8,0.3,1.7,0.5,2.6c0,0.3,0.3,0.4,0.5,0.4c0,0,0.1,0,0.1,0c0.3-0.1,0.5-0.3,0.4-0.6
				c-0.2-0.9-0.3-1.7-0.5-2.6c-0.1-0.3-0.4-0.5-0.6-0.4C206.3,56.6,206.1,56.9,206.2,57.2z"/>
			<path fill="#9F412A" d="M212.7,111.1c-0.3,0-0.5,0.3-0.5,0.6c0,0.9,0.1,1.7,0.1,2.6c0,0.3,0.3,0.5,0.5,0.5c0,0,0,0,0,0
				c0.3,0,0.5-0.3,0.5-0.6c0-0.9-0.1-1.8-0.1-2.6C213.2,111.3,213,111.1,212.7,111.1z"/>
			<path fill="#9F412A" d="M212.9,117.2C212.9,117.2,212.9,117.2,212.9,117.2c-0.3,0-0.6,0.3-0.5,0.6c0,0.9,0,1.7,0.1,2.6
				c0,0.3,0.3,0.5,0.5,0.5h0c0.3,0,0.5-0.3,0.5-0.6c0-0.9,0-1.8-0.1-2.6C213.5,117.5,213.2,117.2,212.9,117.2z"/>
			<path fill="#9F412A" d="M118.2,44.3c0,0,0.1,0,0.1,0c0.2,0,0.5-0.2,0.5-0.4c0.2-0.8,0.5-1.7,0.7-2.5c0.1-0.3-0.1-0.6-0.4-0.7
				c-0.3-0.1-0.6,0.1-0.7,0.4c-0.2,0.8-0.5,1.7-0.7,2.5C117.7,43.9,117.9,44.2,118.2,44.3z"/>
			<path fill="#9F412A" d="M213.2,129.4L213.2,129.4c-0.3,0-0.5,0.3-0.5,0.6c0,0.9,0,1.7,0,2.6c0,0.3,0.2,0.5,0.5,0.5h0
				c0.3,0,0.5-0.2,0.5-0.5c0-0.9,0-1.8,0-2.6C213.7,129.7,213.5,129.4,213.2,129.4z"/>
			<path fill="#9F412A" d="M213.1,123.3c-0.3,0-0.5,0.3-0.5,0.6l0,2.6c0,0.3,0.2,0.5,0.5,0.5h0c0.3,0,0.5-0.3,0.5-0.6l0-2.6
				C213.6,123.6,213.4,123.3,213.1,123.3z"/>
			<path fill="#9F412A" d="M211.5,99.5c0.1,0.9,0.1,1.7,0.2,2.6c0,0.3,0.3,0.5,0.5,0.5c0,0,0,0,0,0c0.3,0,0.5-0.3,0.5-0.6
				c-0.1-0.9-0.1-1.7-0.2-2.6c0-0.3-0.3-0.5-0.6-0.5C211.7,98.9,211.5,99.2,211.5,99.5z"/>
			<path fill="#9F412A" d="M203.4,45.3c0.2,0.8,0.4,1.7,0.7,2.5c0.1,0.2,0.3,0.4,0.5,0.4c0,0,0.1,0,0.1,0c0.3-0.1,0.5-0.4,0.4-0.7
				c-0.2-0.9-0.4-1.7-0.7-2.5c-0.1-0.3-0.4-0.5-0.7-0.4C203.5,44.7,203.3,45,203.4,45.3z"/>
			<path fill="#9F412A" d="M211.9,105.6c0,0.9,0.1,1.7,0.1,2.6c0,0.3,0.3,0.5,0.5,0.5c0,0,0,0,0,0c0.3,0,0.5-0.3,0.5-0.6
				c0-0.9-0.1-1.8-0.1-2.6c0-0.3-0.3-0.5-0.6-0.5C212.1,105,211.9,105.3,211.9,105.6z"/>
			<path fill="#9F412A" d="M211.1,93.4c0.1,0.9,0.1,1.7,0.2,2.6c0,0.3,0.3,0.5,0.5,0.5c0,0,0,0,0,0c0.3,0,0.5-0.3,0.5-0.6
				c-0.1-0.9-0.1-1.7-0.2-2.6c0-0.3-0.3-0.5-0.6-0.5C211.3,92.8,211,93.1,211.1,93.4z"/>
			<path fill="#9F412A" d="M129.7,16.1c0.1,0.1,0.2,0.1,0.3,0.1c0.2,0,0.4-0.1,0.5-0.3c0.5-0.8,0.9-1.5,1.4-2.2
				c0.2-0.2,0.1-0.6-0.1-0.8c-0.2-0.2-0.6-0.1-0.8,0.2c-0.5,0.7-1,1.5-1.4,2.2C129.3,15.6,129.4,15.9,129.7,16.1z"/>
			<path fill="#9F412A" d="M120.4,237.7c-0.2-0.9-0.3-1.7-0.5-2.6c-0.1-0.3-0.3-0.5-0.6-0.4c-0.3,0.1-0.5,0.3-0.4,0.6
				c0.2,0.9,0.3,1.7,0.5,2.6c0.1,0.3,0.3,0.4,0.5,0.4c0,0,0.1,0,0.1,0C120.3,238.3,120.5,238,120.4,237.7z"/>
			<path fill="#9F412A" d="M124.1,27c0.1,0,0.1,0,0.2,0c0.2,0,0.4-0.1,0.5-0.3c0.4-0.8,0.7-1.6,1.1-2.4c0.1-0.3,0-0.6-0.3-0.7
				c-0.3-0.1-0.6,0-0.7,0.3c-0.4,0.8-0.7,1.6-1.1,2.4C123.7,26.5,123.9,26.9,124.1,27z"/>
			<path fill="#9F412A" d="M119.9,38.4c0.1,0,0.1,0,0.2,0c0.2,0,0.4-0.1,0.5-0.4c0.3-0.8,0.5-1.7,0.8-2.5c0.1-0.3-0.1-0.6-0.3-0.7
				c-0.3-0.1-0.6,0.1-0.7,0.3c-0.3,0.8-0.6,1.7-0.8,2.5C119.5,38,119.6,38.4,119.9,38.4z"/>
			<path fill="#9F412A" d="M121.9,32.7c0.1,0,0.1,0,0.2,0c0.2,0,0.4-0.1,0.5-0.4c0.3-0.8,0.6-1.6,0.9-2.4c0.1-0.3,0-0.6-0.3-0.7
				c-0.3-0.1-0.6,0-0.7,0.3c-0.3,0.8-0.6,1.6-0.9,2.5C121.5,32.2,121.6,32.6,121.9,32.7z"/>
			<path fill="#9F412A" d="M198.5,30.4c0.1,0.2,0.3,0.3,0.5,0.3c0.1,0,0.1,0,0.2,0c0.3-0.1,0.4-0.4,0.3-0.7c-0.3-0.8-0.7-1.6-1-2.4
				c-0.1-0.3-0.4-0.4-0.7-0.3c-0.3,0.1-0.4,0.4-0.3,0.7C197.9,28.8,198.2,29.6,198.5,30.4z"/>
			<path fill="#9F412A" d="M196.1,24.8c0.1,0.2,0.3,0.3,0.5,0.3c0.1,0,0.2,0,0.2-0.1c0.3-0.1,0.4-0.4,0.3-0.7
				c-0.4-0.8-0.8-1.6-1.1-2.4c-0.1-0.3-0.5-0.4-0.7-0.2c-0.3,0.1-0.4,0.5-0.2,0.7C195.4,23.3,195.8,24,196.1,24.8z"/>
			<path fill="#9F412A" d="M201.7,39.5c0.3,0.8,0.5,1.7,0.8,2.5c0.1,0.2,0.3,0.4,0.5,0.4c0.1,0,0.1,0,0.2,0c0.3-0.1,0.5-0.4,0.4-0.7
				c-0.3-0.9-0.5-1.7-0.8-2.5c-0.1-0.3-0.4-0.5-0.7-0.4C201.7,38.9,201.6,39.2,201.7,39.5z"/>
			<path fill="#9F412A" d="M200.6,36.1c0.1,0.2,0.3,0.4,0.5,0.4c0.1,0,0.1,0,0.2,0c0.3-0.1,0.4-0.4,0.3-0.7
				c-0.3-0.8-0.6-1.7-0.9-2.5c-0.1-0.3-0.4-0.4-0.7-0.3c-0.3,0.1-0.4,0.4-0.3,0.7C200,34.5,200.3,35.3,200.6,36.1z"/>
			<path fill="#9F412A" d="M192.4,17.6c0.4,0.6,0.7,1.2,1,1.8c0.1,0.2,0.3,0.3,0.5,0.3c0.1,0,0.2,0,0.3-0.1c0.3-0.1,0.4-0.5,0.2-0.7
				c-0.3-0.6-0.7-1.3-1.1-1.9l-0.2-0.4c-0.2-0.3-0.5-0.3-0.7-0.2c-0.3,0.2-0.3,0.5-0.2,0.7L192.4,17.6z"/>
			<path fill="#9F412A" d="M190.3,14.2c0.1,0.2,0.3,0.2,0.5,0.2c0.1,0,0.2,0,0.3-0.1c0.3-0.2,0.3-0.5,0.2-0.8
				c-0.5-0.8-1-1.5-1.5-2.2c-0.2-0.2-0.5-0.3-0.8-0.1c-0.2,0.2-0.3,0.5-0.1,0.8C189.3,12.7,189.8,13.5,190.3,14.2z"/>
			<path fill="#9F412A" d="M126.7,21.4c0.1,0,0.2,0.1,0.2,0.1c0.2,0,0.4-0.1,0.5-0.3c0.4-0.8,0.8-1.5,1.2-2.3
				c0.1-0.3,0.1-0.6-0.2-0.7c-0.3-0.1-0.6,0-0.7,0.2c-0.4,0.8-0.8,1.5-1.2,2.3C126.3,21,126.5,21.3,126.7,21.4z"/>
			<path fill="#9F412A" d="M197.9,256.6c-0.3-0.1-0.6,0.1-0.7,0.4l-0.6,2.6c-0.1,0.3,0.1,0.6,0.4,0.7c0,0,0.1,0,0.1,0
				c0.2,0,0.5-0.2,0.5-0.4l0.6-2.6C198.4,257,198.2,256.7,197.9,256.6z"/>
			<path fill="#9F412A" d="M196.6,262.6c-0.3-0.1-0.6,0.1-0.7,0.4l-0.6,2.5c-0.1,0.3,0.1,0.6,0.4,0.7c0,0,0.1,0,0.1,0
				c0.2,0,0.5-0.2,0.5-0.4l0.6-2.6C197.1,262.9,196.9,262.6,196.6,262.6z"/>
			<path fill="#9F412A" d="M182.3,315.7c-0.3-0.1-0.6,0.1-0.7,0.4c-0.3,0.8-0.5,1.7-0.8,2.5c-0.1,0.3,0.1,0.6,0.4,0.7
				c0.1,0,0.1,0,0.2,0c0.2,0,0.4-0.2,0.5-0.4c0.3-0.8,0.5-1.7,0.8-2.5C182.7,316.1,182.6,315.8,182.3,315.7z"/>
			<path fill="#9F412A" d="M204.1,226.7c-0.3-0.1-0.6,0.1-0.6,0.4c-0.2,0.9-0.3,1.7-0.5,2.6c-0.1,0.3,0.1,0.6,0.4,0.6
				c0,0,0.1,0,0.1,0c0.3,0,0.5-0.2,0.5-0.4c0.2-0.9,0.3-1.7,0.5-2.6C204.6,227,204.4,226.7,204.1,226.7z"/>
			<path fill="#9F412A" d="M202.9,232.7c-0.3-0.1-0.6,0.1-0.6,0.4c-0.2,0.9-0.3,1.7-0.5,2.6c-0.1,0.3,0.1,0.6,0.4,0.6
				c0,0,0.1,0,0.1,0c0.3,0,0.5-0.2,0.5-0.4c0.2-0.9,0.3-1.7,0.5-2.6C203.4,233,203.2,232.7,202.9,232.7z"/>
			<path fill="#9F412A" d="M195.2,268.5c-0.3-0.1-0.6,0.1-0.7,0.4c-0.2,0.9-0.4,1.7-0.6,2.5c-0.1,0.3,0.1,0.6,0.4,0.7
				c0,0,0.1,0,0.1,0c0.2,0,0.5-0.2,0.5-0.4c0.2-0.8,0.4-1.7,0.6-2.5C195.6,268.9,195.5,268.6,195.2,268.5z"/>
			<path fill="#9F412A" d="M200.5,244.7c-0.3-0.1-0.6,0.1-0.6,0.4c-0.2,0.9-0.4,1.7-0.5,2.6c-0.1,0.3,0.1,0.6,0.4,0.6
				c0,0,0.1,0,0.1,0c0.3,0,0.5-0.2,0.5-0.4c0.2-0.9,0.4-1.7,0.5-2.6C201,245,200.8,244.7,200.5,244.7z"/>
			<path fill="#9F412A" d="M201.8,238.7c-0.3-0.1-0.6,0.1-0.6,0.4l-0.5,2.6c-0.1,0.3,0.1,0.6,0.4,0.6c0,0,0.1,0,0.1,0
				c0.3,0,0.5-0.2,0.5-0.4l0.5-2.6C202.3,239,202.1,238.7,201.8,238.7z"/>
			<path fill="#9F412A" d="M185.7,304c-0.3-0.1-0.6,0.1-0.7,0.4l-0.7,2.5c-0.1,0.3,0.1,0.6,0.4,0.7c0.1,0,0.1,0,0.2,0
				c0.2,0,0.5-0.2,0.5-0.4l0.7-2.5C186.2,304.4,186,304.1,185.7,304z"/>
			<path fill="#9F412A" d="M184,309.8c-0.3-0.1-0.6,0.1-0.7,0.4l-0.8,2.5c-0.1,0.3,0.1,0.6,0.4,0.7c0.1,0,0.1,0,0.2,0
				c0.2,0,0.5-0.2,0.5-0.4l0.8-2.5C184.5,310.2,184.3,309.9,184,309.8z"/>
			<path fill="#9F412A" d="M187.4,298.1c-0.3-0.1-0.6,0.1-0.7,0.4L186,301c-0.1,0.3,0.1,0.6,0.4,0.7c0,0,0.1,0,0.1,0
				c0.2,0,0.5-0.2,0.5-0.4l0.7-2.5C187.9,298.5,187.7,298.2,187.4,298.1z"/>
			<path fill="#9F412A" d="M189.1,292.2c-0.3-0.1-0.6,0.1-0.7,0.4c-0.2,0.8-0.5,1.7-0.7,2.5c-0.1,0.3,0.1,0.6,0.4,0.7
				c0,0,0.1,0,0.1,0c0.2,0,0.5-0.2,0.5-0.4c0.2-0.8,0.5-1.7,0.7-2.5C189.5,292.6,189.3,292.3,189.1,292.2z"/>
			<path fill="#9F412A" d="M192.2,280.4c-0.3-0.1-0.6,0.1-0.7,0.4l-0.7,2.5c-0.1,0.3,0.1,0.6,0.4,0.7c0,0,0.1,0,0.1,0
				c0.2,0,0.5-0.2,0.5-0.4l0.7-2.5C192.7,280.7,192.5,280.5,192.2,280.4z"/>
			<path fill="#9F412A" d="M193.7,274.5c-0.3-0.1-0.6,0.1-0.7,0.4l-0.6,2.5c-0.1,0.3,0.1,0.6,0.4,0.7c0,0,0.1,0,0.1,0
				c0.2,0,0.5-0.2,0.5-0.4l0.6-2.5C194.2,274.8,194,274.5,193.7,274.5z"/>
			<path fill="#9F412A" d="M190.6,286.3c-0.3-0.1-0.6,0.1-0.7,0.4c-0.2,0.8-0.5,1.7-0.7,2.5c-0.1,0.3,0.1,0.6,0.4,0.7
				c0,0,0.1,0,0.1,0c0.2,0,0.5-0.2,0.5-0.4c0.2-0.8,0.5-1.7,0.7-2.5C191.1,286.7,190.9,286.4,190.6,286.3z"/>
			<path fill="#9F412A" d="M199.3,250.6c-0.3-0.1-0.6,0.1-0.6,0.4c-0.2,0.9-0.4,1.7-0.6,2.6c-0.1,0.3,0.1,0.6,0.4,0.7
				c0,0,0.1,0,0.1,0c0.2,0,0.5-0.2,0.5-0.4c0.2-0.9,0.4-1.7,0.6-2.6C199.7,251,199.6,250.7,199.3,250.6z"/>
			<path fill="#9F412A" d="M212.8,153.9c-0.3,0-0.6,0.2-0.6,0.5c0,0.9-0.1,1.7-0.1,2.6c0,0.3,0.2,0.6,0.5,0.6c0,0,0,0,0,0
				c0.3,0,0.5-0.2,0.5-0.5c0-0.9,0.1-1.7,0.1-2.6C213.3,154.1,213.1,153.9,212.8,153.9z"/>
			<path fill="#9F412A" d="M211.5,172.1c-0.3,0-0.6,0.2-0.6,0.5c-0.1,0.9-0.2,1.7-0.2,2.6c0,0.3,0.2,0.6,0.5,0.6c0,0,0,0,0.1,0
				c0.3,0,0.5-0.2,0.5-0.5c0.1-0.9,0.2-1.7,0.2-2.6C212.1,172.4,211.8,172.2,211.5,172.1z"/>
			<path fill="#9F412A" d="M212,166c-0.3,0-0.6,0.2-0.6,0.5c-0.1,0.9-0.1,1.7-0.2,2.6c0,0.3,0.2,0.6,0.5,0.6c0,0,0,0,0,0
				c0.3,0,0.5-0.2,0.5-0.5c0.1-0.9,0.1-1.7,0.2-2.6C212.6,166.3,212.3,166.1,212,166z"/>
			<path fill="#9F412A" d="M212.4,160c-0.3,0-0.6,0.2-0.6,0.5c-0.1,0.9-0.1,1.7-0.2,2.6c0,0.3,0.2,0.6,0.5,0.6c0,0,0,0,0,0
				c0.3,0,0.5-0.2,0.5-0.5c0.1-0.9,0.1-1.7,0.2-2.6C213,160.2,212.7,160,212.4,160z"/>
			<path fill="#9F412A" d="M213,147.8c-0.3,0-0.6,0.2-0.6,0.5c0,0.9-0.1,1.7-0.1,2.6c0,0.3,0.2,0.6,0.5,0.6c0,0,0,0,0,0
				c0.3,0,0.5-0.2,0.5-0.5c0-0.9,0.1-1.7,0.1-2.6C213.5,148,213.3,147.8,213,147.8z"/>
			<path fill="#9F412A" d="M213.2,135.6L213.2,135.6c-0.3,0-0.5,0.2-0.5,0.5c0,0.9,0,1.7,0,2.6c0,0.3,0.2,0.5,0.5,0.5h0
				c0.3,0,0.5-0.2,0.5-0.5c0-0.9,0-1.7,0-2.6C213.7,135.8,213.5,135.6,213.2,135.6z"/>
			<path fill="#9F412A" d="M213.1,141.7L213.1,141.7c-0.3,0-0.5,0.2-0.6,0.5c0,0.9,0,1.7-0.1,2.6c0,0.3,0.2,0.5,0.5,0.6h0
				c0.3,0,0.5-0.2,0.5-0.5c0-0.9,0-1.8,0.1-2.6C213.7,141.9,213.4,141.7,213.1,141.7z"/>
			<path fill="#9F412A" d="M209.6,190.4c-0.3,0-0.6,0.2-0.6,0.5c-0.1,0.9-0.2,1.7-0.3,2.6c0,0.3,0.2,0.6,0.5,0.6c0,0,0,0,0.1,0
				c0.3,0,0.5-0.2,0.5-0.5c0.1-0.9,0.2-1.7,0.3-2.6C210.1,190.7,209.9,190.4,209.6,190.4z"/>
			<path fill="#9F412A" d="M208,202.5c-0.3,0-0.6,0.2-0.6,0.5l-0.4,2.6c0,0.3,0.2,0.6,0.5,0.6c0,0,0.1,0,0.1,0
				c0.3,0,0.5-0.2,0.5-0.5l0.4-2.6C208.5,202.9,208.3,202.6,208,202.5z"/>
			<path fill="#9F412A" d="M207.1,208.6c-0.3,0-0.6,0.2-0.6,0.5l-0.4,2.6c0,0.3,0.2,0.6,0.5,0.6c0,0,0.1,0,0.1,0
				c0.3,0,0.5-0.2,0.5-0.5l0.4-2.6C207.6,208.9,207.4,208.6,207.1,208.6z"/>
			<path fill="#9F412A" d="M206.2,214.6c-0.3,0-0.6,0.2-0.6,0.5c-0.1,0.9-0.3,1.7-0.4,2.6c-0.1,0.3,0.1,0.6,0.4,0.6c0,0,0.1,0,0.1,0
				c0.3,0,0.5-0.2,0.5-0.5c0.1-0.9,0.3-1.7,0.4-2.6C206.7,215,206.5,214.7,206.2,214.6z"/>
			<path fill="#9F412A" d="M205.1,220.6c-0.3-0.1-0.6,0.1-0.6,0.4c-0.1,0.9-0.3,1.7-0.5,2.6c-0.1,0.3,0.1,0.6,0.4,0.6
				c0,0,0.1,0,0.1,0c0.3,0,0.5-0.2,0.5-0.4c0.2-0.9,0.3-1.7,0.5-2.6C205.6,221,205.4,220.7,205.1,220.6z"/>
			<path fill="#9F412A" d="M210.3,184.3c-0.3,0-0.6,0.2-0.6,0.5c-0.1,0.9-0.2,1.7-0.3,2.6c0,0.3,0.2,0.6,0.5,0.6c0,0,0,0,0.1,0
				c0.3,0,0.5-0.2,0.5-0.5c0.1-0.9,0.2-1.7,0.3-2.6C210.9,184.6,210.6,184.3,210.3,184.3z"/>
			<path fill="#9F412A" d="M208.9,196.5c-0.3,0-0.6,0.2-0.6,0.5c-0.1,0.9-0.2,1.7-0.4,2.6c0,0.3,0.2,0.6,0.5,0.6c0,0,0.1,0,0.1,0
				c0.3,0,0.5-0.2,0.5-0.5c0.1-0.9,0.2-1.7,0.4-2.6C209.4,196.8,209.2,196.5,208.9,196.5z"/>
			<path fill="#9F412A" d="M211,178.2c-0.3,0-0.6,0.2-0.6,0.5c-0.1,0.9-0.2,1.7-0.3,2.6c0,0.3,0.2,0.6,0.5,0.6c0,0,0,0,0.1,0
				c0.3,0,0.5-0.2,0.5-0.5c0.1-0.9,0.2-1.7,0.3-2.6C211.5,178.5,211.3,178.3,211,178.2z"/>
			<path fill="#9F412A" d="M127,267.6c-0.2-0.8-0.4-1.7-0.6-2.5c-0.1-0.3-0.4-0.5-0.7-0.4c-0.3,0.1-0.5,0.4-0.4,0.7
				c0.2,0.9,0.4,1.7,0.6,2.5c0.1,0.2,0.3,0.4,0.5,0.4c0,0,0.1,0,0.1,0C126.9,268.1,127.1,267.8,127,267.6z"/>
			<path fill="#9F412A" d="M138.1,308.9c-0.2-0.8-0.5-1.7-0.7-2.5c-0.1-0.3-0.4-0.5-0.7-0.4c-0.3,0.1-0.5,0.4-0.4,0.7
				c0.2,0.8,0.5,1.7,0.7,2.5c0.1,0.2,0.3,0.4,0.5,0.4c0,0,0.1,0,0.2,0C138,309.4,138.2,309.1,138.1,308.9z"/>
			<path fill="#9F412A" d="M133.1,291.2l-0.7-2.5c-0.1-0.3-0.4-0.5-0.7-0.4c-0.3,0.1-0.5,0.4-0.4,0.7l0.7,2.5
				c0.1,0.2,0.3,0.4,0.5,0.4c0,0,0.1,0,0.1,0C133,291.8,133.2,291.5,133.1,291.2z"/>
			<path fill="#9F412A" d="M134.7,297.1l-0.7-2.5c-0.1-0.3-0.4-0.5-0.7-0.4c-0.3,0.1-0.5,0.4-0.4,0.7l0.7,2.5
				c0.1,0.2,0.3,0.4,0.5,0.4c0,0,0.1,0,0.1,0C134.6,297.7,134.8,297.4,134.7,297.1z"/>
			<path fill="#9F412A" d="M136.4,303l-0.7-2.5c-0.1-0.3-0.4-0.5-0.7-0.4c-0.3,0.1-0.5,0.4-0.4,0.7l0.7,2.5c0.1,0.2,0.3,0.4,0.5,0.4
				c0,0,0.1,0,0.2,0C136.3,303.6,136.5,303.3,136.4,303z"/>
			<path fill="#9F412A" d="M143.5,326.4l-0.8-2.5c-0.1-0.3-0.4-0.4-0.7-0.4c-0.3,0.1-0.4,0.4-0.4,0.7l0.8,2.5
				c0.1,0.2,0.3,0.4,0.5,0.4c0.1,0,0.1,0,0.2,0C143.4,327,143.6,326.7,143.5,326.4z"/>
			<path fill="#9F412A" d="M141.6,320.5l-0.8-2.5c-0.1-0.3-0.4-0.4-0.7-0.4c-0.3,0.1-0.4,0.4-0.4,0.7l0.8,2.5
				c0.1,0.2,0.3,0.4,0.5,0.4c0.1,0,0.1,0,0.2,0C141.6,321.1,141.7,320.8,141.6,320.5z"/>
			<path fill="#9F412A" d="M139.8,314.7l-0.8-2.5c-0.1-0.3-0.4-0.4-0.7-0.4c-0.3,0.1-0.5,0.4-0.4,0.7l0.8,2.5
				c0.1,0.2,0.3,0.4,0.5,0.4c0.1,0,0.1,0,0.2,0C139.8,315.3,139.9,315,139.8,314.7z"/>
			<path fill="#9F412A" d="M121.7,243.7c-0.2-0.9-0.4-1.7-0.5-2.6c-0.1-0.3-0.3-0.5-0.6-0.4c-0.3,0.1-0.5,0.3-0.4,0.6
				c0.2,0.9,0.4,1.7,0.5,2.6c0.1,0.3,0.3,0.4,0.5,0.4c0,0,0.1,0,0.1,0C121.5,244.3,121.7,244,121.7,243.7z"/>
			<path fill="#9F412A" d="M125.6,261.6l-0.6-2.6c-0.1-0.3-0.4-0.5-0.7-0.4c-0.3,0.1-0.5,0.4-0.4,0.7l0.6,2.6
				c0.1,0.3,0.3,0.4,0.5,0.4c0,0,0.1,0,0.1,0C125.5,262.2,125.7,261.9,125.6,261.6z"/>
			<path fill="#9F412A" d="M124.2,255.7l-0.6-2.6c-0.1-0.3-0.4-0.5-0.7-0.4c-0.3,0.1-0.5,0.4-0.4,0.6l0.6,2.6
				c0.1,0.3,0.3,0.4,0.5,0.4c0,0,0.1,0,0.1,0C124.1,256.2,124.3,255.9,124.2,255.7z"/>
			<path fill="#9F412A" d="M131.5,285.3l-0.7-2.5c-0.1-0.3-0.4-0.5-0.7-0.4c-0.3,0.1-0.5,0.4-0.4,0.7l0.7,2.5
				c0.1,0.2,0.3,0.4,0.5,0.4c0,0,0.1,0,0.1,0C131.4,285.9,131.6,285.6,131.5,285.3z"/>
			<path fill="#9F412A" d="M122.9,249.7l-0.5-2.6c-0.1-0.3-0.4-0.5-0.6-0.4c-0.3,0.1-0.5,0.4-0.4,0.6l0.6,2.6
				c0.1,0.3,0.3,0.4,0.5,0.4c0,0,0.1,0,0.1,0C122.8,250.3,123,250,122.9,249.7z"/>
			<path fill="#9F412A" d="M130,279.4l-0.6-2.5c-0.1-0.3-0.4-0.5-0.7-0.4c-0.3,0.1-0.5,0.4-0.4,0.7l0.6,2.5c0.1,0.2,0.3,0.4,0.5,0.4
				c0,0,0.1,0,0.1,0C129.9,280,130,279.7,130,279.4z"/>
			<path fill="#9F412A" d="M128.5,273.5c-0.2-0.8-0.4-1.7-0.6-2.5c-0.1-0.3-0.4-0.5-0.7-0.4c-0.3,0.1-0.5,0.4-0.4,0.7
				c0.2,0.9,0.4,1.7,0.6,2.5c0.1,0.2,0.3,0.4,0.5,0.4c0,0,0.1,0,0.1,0C128.4,274.1,128.5,273.8,128.5,273.5z"/>
			<path fill="#9F412A" d="M180.5,321.5c-0.3-0.1-0.6,0.1-0.7,0.4c-0.3,0.8-0.5,1.7-0.8,2.5c-0.1,0.3,0.1,0.6,0.4,0.7
				c0.1,0,0.1,0,0.2,0c0.2,0,0.4-0.1,0.5-0.4c0.3-0.8,0.5-1.7,0.8-2.5C180.9,321.9,180.7,321.6,180.5,321.5z"/>
		</g>
		<path fill="#F4F0D9" d="M161.8,359.8c9.3-22.2,46.4-129,46.4-223.9C208.2,1.7,167.9-0.4,160.9,0c-6.9-0.5-47.3,1.6-47.3,135.8
			c0,94.9,37.2,201.8,46.4,223.9v4.2c0,0,0.3-0.7,0.9-2.1c0.6,1.3,0.9,2.1,0.9,2.1V359.8z"/>
	</g>
	<g>
		<path fill="#BE4734" d="M136.5,378.9c10.7,0.2,34.5,0.2,45.2,0c2,0,4.4-1.4,5.5-3c6.3-9.5,26.7-39.7,40.4-55.2
			c0,0-30.8,7.9-68.4,7.9c-33.4,0-68.4-7.9-68.4-7.9c12.9,14.7,33.9,45.5,40.3,55.2C132.1,377.5,134.6,378.9,136.5,378.9z"/>
		<g>
			<g>
				<path fill="#F16646" d="M104,329.8c-0.2,0-0.3-0.1-0.4-0.2l-0.8-1c-0.1-0.2-0.2-0.4,0-0.6c0.1-0.2,0.3-0.3,0.6-0.3l1.3,0.2
					c0.3,0,0.5,0.3,0.4,0.6c0,0.3-0.3,0.5-0.6,0.5c0.1,0.2,0.1,0.5-0.1,0.7C104.2,329.8,104.1,329.8,104,329.8z"/>
			</g>
			<g>
				<path fill="#F16646" d="M159.1,334.1c-0.5,0-1,0-1.5,0c-0.3,0-0.5-0.3-0.5-0.5c0-0.3,0.2-0.5,0.5-0.5c0,0,0,0,0,0
					c0.5,0,1,0,1.5,0l1.2,0c0,0,0,0,0,0c0.3,0,0.5,0.2,0.5,0.5c0,0.3-0.2,0.5-0.5,0.5L159.1,334.1z M163.9,334.1
					c-0.3,0-0.5-0.2-0.5-0.5c0-0.3,0.2-0.5,0.5-0.6c0.9,0,1.8,0,2.7-0.1c0.3,0,0.6,0.2,0.6,0.5c0,0.3-0.2,0.6-0.5,0.6
					C165.7,334.1,164.8,334.1,163.9,334.1C163.9,334.1,163.9,334.1,163.9,334.1z M154.1,334.1C154.1,334.1,154.1,334.1,154.1,334.1
					c-0.9,0-1.8,0-2.7-0.1c-0.3,0-0.5-0.3-0.5-0.6c0-0.3,0.3-0.5,0.6-0.5c0.9,0,1.8,0,2.7,0.1c0.3,0,0.5,0.3,0.5,0.6
					C154.6,333.9,154.4,334.1,154.1,334.1z M170.1,333.9c-0.3,0-0.5-0.2-0.5-0.5c0-0.3,0.2-0.6,0.5-0.6c0.9,0,1.8-0.1,2.7-0.1
					c0.3,0,0.6,0.2,0.6,0.5c0,0.3-0.2,0.6-0.5,0.6C171.9,333.9,171,333.9,170.1,333.9C170.1,333.9,170.1,333.9,170.1,333.9z
					 M147.8,333.9C147.8,333.9,147.8,333.9,147.8,333.9c-0.9,0-1.8-0.1-2.7-0.1c-0.3,0-0.5-0.3-0.5-0.6c0-0.3,0.3-0.5,0.6-0.5
					c0.9,0.1,1.8,0.1,2.7,0.1c0.3,0,0.5,0.3,0.5,0.6C148.4,333.6,148.1,333.9,147.8,333.9z M176.3,333.6c-0.3,0-0.5-0.2-0.5-0.5
					c0-0.3,0.2-0.6,0.5-0.6c0.9-0.1,1.8-0.1,2.7-0.2c0.3,0,0.6,0.2,0.6,0.5c0,0.3-0.2,0.6-0.5,0.6
					C178.2,333.5,177.3,333.6,176.3,333.6C176.4,333.6,176.4,333.6,176.3,333.6z M141.6,333.5C141.6,333.5,141.6,333.5,141.6,333.5
					c-0.9-0.1-1.8-0.1-2.7-0.2c-0.3,0-0.5-0.3-0.5-0.6c0-0.3,0.3-0.5,0.6-0.5c0.9,0.1,1.8,0.1,2.7,0.2c0.3,0,0.5,0.3,0.5,0.6
					C142.1,333.3,141.9,333.5,141.6,333.5z M182.6,333.2c-0.3,0-0.5-0.2-0.5-0.5c0-0.3,0.2-0.6,0.5-0.6c0.9-0.1,1.8-0.1,2.7-0.2
					c0.3,0,0.6,0.2,0.6,0.5c0,0.3-0.2,0.6-0.5,0.6C184.4,333.1,183.5,333.1,182.6,333.2C182.6,333.2,182.6,333.2,182.6,333.2z
					 M135.4,333C135.4,333,135.4,333,135.4,333c-0.9-0.1-1.8-0.2-2.7-0.2c-0.3,0-0.5-0.3-0.5-0.6c0-0.3,0.3-0.5,0.6-0.5
					c0.9,0.1,1.8,0.2,2.7,0.2c0.3,0,0.5,0.3,0.5,0.6C135.9,332.8,135.7,333,135.4,333z M188.8,332.6c-0.3,0-0.5-0.2-0.5-0.5
					c0-0.3,0.2-0.6,0.5-0.6c0.9-0.1,1.8-0.2,2.7-0.3c0.3,0,0.6,0.2,0.6,0.5c0,0.3-0.2,0.6-0.5,0.6
					C190.6,332.5,189.7,332.6,188.8,332.6C188.8,332.6,188.8,332.6,188.8,332.6z M129.2,332.4C129.2,332.4,129.2,332.4,129.2,332.4
					c-1-0.1-1.8-0.2-2.7-0.3c-0.3,0-0.5-0.3-0.5-0.6c0-0.3,0.3-0.5,0.6-0.5c0.9,0.1,1.8,0.2,2.7,0.3c0.3,0,0.5,0.3,0.5,0.6
					C129.7,332.2,129.5,332.4,129.2,332.4z M195,332c-0.3,0-0.5-0.2-0.5-0.5c0-0.3,0.2-0.6,0.5-0.6c0.9-0.1,1.8-0.2,2.6-0.3
					c0.3,0,0.6,0.2,0.6,0.5c0,0.3-0.2,0.6-0.5,0.6C196.8,331.8,196,331.9,195,332C195,332,195,332,195,332z M123,331.7
					C123,331.7,122.9,331.7,123,331.7c-1-0.1-1.8-0.2-2.7-0.3c-0.3,0-0.5-0.3-0.5-0.6c0-0.3,0.3-0.5,0.6-0.5
					c0.9,0.1,1.8,0.2,2.6,0.3c0.3,0,0.5,0.3,0.5,0.6C123.5,331.5,123.3,331.7,123,331.7z M201.2,331.2c-0.3,0-0.5-0.2-0.5-0.5
					c0-0.3,0.2-0.6,0.5-0.6c0.9-0.1,1.8-0.2,2.6-0.4c0.3,0,0.6,0.2,0.6,0.5c0,0.3-0.2,0.6-0.5,0.6
					C203,330.9,202.2,331.1,201.2,331.2C201.2,331.2,201.2,331.2,201.2,331.2z M116.8,330.9C116.8,330.9,116.8,330.9,116.8,330.9
					c-1-0.1-1.9-0.3-2.7-0.4c-0.3,0-0.5-0.3-0.5-0.6c0-0.3,0.3-0.5,0.6-0.5c0.9,0.1,1.7,0.3,2.6,0.4c0.3,0,0.5,0.3,0.5,0.6
					C117.3,330.7,117.1,330.9,116.8,330.9z M207.4,330.3c-0.3,0-0.5-0.2-0.5-0.5c0-0.3,0.2-0.6,0.5-0.6c0.9-0.1,1.8-0.3,2.6-0.4
					c0.3,0,0.6,0.2,0.6,0.4c0,0.3-0.2,0.6-0.4,0.6C209.2,330,208.3,330.1,207.4,330.3C207.4,330.3,207.4,330.3,207.4,330.3z
					 M110.6,330C110.6,330,110.6,330,110.6,330c-1-0.1-1.9-0.3-2.7-0.4c-0.3,0-0.5-0.3-0.4-0.6c0-0.3,0.3-0.5,0.6-0.5
					c0.9,0.1,1.7,0.3,2.6,0.4c0.3,0,0.5,0.3,0.5,0.6C111.1,329.8,110.9,330,110.6,330z"/>
			</g>
			<g>
				<path fill="#F16646" d="M214,330.1c-0.1,0-0.2,0-0.3-0.1c-0.2-0.2-0.3-0.5-0.1-0.7c0,0,0,0,0,0c-0.3,0-0.5-0.2-0.5-0.4
					c-0.1-0.3,0.1-0.6,0.4-0.6l1.3-0.2c0.2,0,0.4,0.1,0.6,0.3c0.1,0.2,0.1,0.4,0,0.6l-0.8,1C214.3,330,214.1,330.1,214,330.1z"/>
			</g>
			<g>
				<path fill="#F16646" d="M160.2,374.7h-2.6c-0.3,0-0.5-0.2-0.5-0.5c0-0.3,0.2-0.5,0.5-0.5l0,0h2.6c0.3,0,0.5,0.2,0.5,0.5
					C160.7,374.5,160.5,374.7,160.2,374.7z M163.7,374.7c-0.3,0-0.5-0.2-0.5-0.5s0.2-0.5,0.5-0.5l2.6,0l0,0c0.3,0,0.5,0.2,0.5,0.5
					s-0.2,0.5-0.5,0.5L163.7,374.7L163.7,374.7z M154.1,374.7L154.1,374.7l-2.6,0c-0.3,0-0.5-0.2-0.5-0.5s0.2-0.5,0.5-0.5
					c0,0,0,0,0,0l2.6,0c0.3,0,0.5,0.2,0.5,0.5C154.7,374.5,154.4,374.7,154.1,374.7z M169.8,374.7c-0.3,0-0.5-0.2-0.5-0.5
					c0-0.3,0.2-0.5,0.5-0.5l2.6,0c0,0,0,0,0,0c0.3,0,0.5,0.2,0.5,0.5c0,0.3-0.2,0.5-0.5,0.5L169.8,374.7L169.8,374.7z M148,374.7
					C148,374.7,148,374.7,148,374.7l-2.6,0c-0.3,0-0.5-0.2-0.5-0.5c0-0.3,0.2-0.5,0.5-0.5c0,0,0,0,0,0l2.6,0c0.3,0,0.5,0.2,0.5,0.5
					C148.6,374.4,148.3,374.7,148,374.7z M175.9,374.6c-0.3,0-0.5-0.2-0.5-0.5c0-0.3,0.2-0.6,0.5-0.6l2.6,0c0.3,0,0.5,0.2,0.6,0.5
					c0,0.3-0.2,0.5-0.5,0.5L175.9,374.6C175.9,374.6,175.9,374.6,175.9,374.6z M141.9,374.6C141.9,374.6,141.9,374.6,141.9,374.6
					l-2.6,0c-0.3,0-0.5-0.3-0.5-0.6c0-0.3,0.3-0.6,0.6-0.5l2.6,0c0.3,0,0.5,0.3,0.5,0.6C142.5,374.4,142.2,374.6,141.9,374.6z
					 M181.9,374.4c-0.2,0-0.4-0.1-0.5-0.3c-0.1-0.3,0-0.6,0.3-0.7c0.4-0.2,0.8-0.4,0.9-0.5l0.7-1c0.2-0.3,0.5-0.3,0.8-0.1
					c0.2,0.2,0.3,0.5,0.2,0.8l-0.7,1.1c-0.3,0.4-0.9,0.7-1.4,0.9C182.1,374.4,182,374.4,181.9,374.4z M135.9,374.3
					c-0.1,0-0.2,0-0.3-0.1c-0.2-0.1-0.7-0.4-0.9-0.7l-0.9-1.4c-0.2-0.3-0.1-0.6,0.1-0.8c0.3-0.2,0.6-0.1,0.8,0.2l0.9,1.4
					c0,0,0.2,0.2,0.6,0.4c0.3,0.1,0.4,0.5,0.2,0.7C136.3,374.2,136.1,374.3,135.9,374.3z M185.7,369.8c-0.1,0-0.2,0-0.3-0.1
					c-0.2-0.2-0.3-0.5-0.1-0.8l1.5-2.2c0.2-0.2,0.5-0.3,0.8-0.1c0.2,0.2,0.3,0.5,0.1,0.8l-1.5,2.2
					C186,369.7,185.9,369.8,185.7,369.8z M132.3,369.4c-0.2,0-0.3-0.1-0.5-0.2l-1.5-2.2c-0.2-0.3-0.1-0.6,0.1-0.8
					c0.3-0.2,0.6-0.1,0.8,0.1l1.5,2.2c0.2,0.3,0.1,0.6-0.1,0.8C132.5,369.4,132.4,369.4,132.3,369.4z M189.1,364.7
					c-0.1,0-0.2,0-0.3-0.1c-0.3-0.2-0.3-0.5-0.1-0.8l1.5-2.2c0.2-0.2,0.5-0.3,0.8-0.1c0.2,0.2,0.3,0.5,0.1,0.8l-1.5,2.2
					C189.5,364.6,189.3,364.7,189.1,364.7z M128.8,364.4c-0.2,0-0.3-0.1-0.4-0.2l-1.5-2.2c-0.2-0.3-0.1-0.6,0.1-0.8
					c0.2-0.2,0.6-0.1,0.8,0.1l1.5,2.2c0.2,0.2,0.1,0.6-0.1,0.8C129,364.4,128.9,364.4,128.8,364.4z M192.6,359.7
					c-0.1,0-0.2,0-0.3-0.1c-0.2-0.2-0.3-0.5-0.1-0.8l1.5-2.1c0.2-0.3,0.5-0.3,0.8-0.1c0.2,0.2,0.3,0.5,0.1,0.8l-1.5,2.1
					C192.9,359.6,192.7,359.7,192.6,359.7z M125.4,359.4c-0.2,0-0.3-0.1-0.4-0.2l-1.5-2.1c-0.2-0.2-0.1-0.6,0.1-0.8
					c0.2-0.2,0.6-0.1,0.8,0.1l1.5,2.1c0.2,0.3,0.1,0.6-0.1,0.8C125.6,359.3,125.5,359.4,125.4,359.4z M196,354.7
					c-0.1,0-0.2,0-0.3-0.1c-0.2-0.2-0.3-0.5-0.1-0.8l1.5-2.1c0.2-0.2,0.5-0.3,0.8-0.1c0.2,0.2,0.3,0.5,0.1,0.8l-1.5,2.1
					C196.4,354.6,196.2,354.7,196,354.7z M121.9,354.4c-0.2,0-0.3-0.1-0.4-0.2l-1.5-2.1c-0.2-0.2-0.1-0.6,0.1-0.8
					c0.2-0.2,0.6-0.1,0.8,0.1l1.5,2.1c0.2,0.2,0.1,0.6-0.1,0.8C122.1,354.3,122,354.4,121.9,354.4z M199.5,349.7
					c-0.1,0-0.2,0-0.3-0.1c-0.2-0.2-0.3-0.5-0.1-0.8c0.5-0.7,1-1.4,1.5-2.1c0.2-0.2,0.5-0.3,0.8-0.1c0.2,0.2,0.3,0.5,0.1,0.8
					c-0.5,0.7-1,1.4-1.5,2.1C199.9,349.6,199.7,349.7,199.5,349.7z M118.4,349.4c-0.2,0-0.3-0.1-0.4-0.2l-1.5-2.1
					c-0.2-0.2-0.1-0.6,0.1-0.8c0.2-0.2,0.6-0.1,0.8,0.1l1.5,2.1c0.2,0.2,0.1,0.6-0.1,0.8C118.6,349.4,118.5,349.4,118.4,349.4z
					 M203.1,344.7c-0.1,0-0.2,0-0.3-0.1c-0.2-0.2-0.3-0.5-0.1-0.8c0.5-0.7,1-1.4,1.5-2.1c0.2-0.2,0.5-0.3,0.8-0.1
					c0.2,0.2,0.3,0.5,0.1,0.8c-0.5,0.7-1,1.4-1.5,2.1C203.4,344.7,203.3,344.7,203.1,344.7z M114.8,344.4c-0.2,0-0.3-0.1-0.4-0.2
					l-1.5-2.1c-0.2-0.2-0.1-0.6,0.1-0.8c0.2-0.2,0.6-0.1,0.8,0.1l1.5,2.1c0.2,0.2,0.1,0.6-0.1,0.8
					C115.1,344.4,114.9,344.4,114.8,344.4z M206.7,339.8c-0.1,0-0.2,0-0.3-0.1c-0.2-0.2-0.3-0.5-0.1-0.8c0.5-0.7,1-1.4,1.6-2.1
					c0.2-0.2,0.5-0.3,0.8-0.1c0.2,0.2,0.3,0.5,0.1,0.8c-0.5,0.7-1,1.4-1.5,2.1C207,339.7,206.8,339.8,206.7,339.8z M111.3,339.5
					c-0.2,0-0.3-0.1-0.4-0.2c-0.5-0.7-1-1.4-1.5-2.1c-0.2-0.2-0.1-0.6,0.1-0.8c0.2-0.2,0.6-0.1,0.8,0.1c0.5,0.7,1,1.4,1.6,2.1
					c0.2,0.2,0.1,0.6-0.1,0.8C111.5,339.5,111.4,339.5,111.3,339.5z M210.3,334.9c-0.1,0-0.2,0-0.3-0.1c-0.2-0.2-0.3-0.5-0.1-0.8
					c0.5-0.7,1.1-1.4,1.6-2.1c0.2-0.2,0.5-0.3,0.8-0.1c0.2,0.2,0.3,0.5,0.1,0.8c-0.5,0.7-1,1.4-1.6,2.1
					C210.6,334.8,210.5,334.9,210.3,334.9z M107.6,334.6c-0.2,0-0.3-0.1-0.4-0.2c-0.5-0.7-1-1.4-1.6-2.1c-0.2-0.2-0.1-0.6,0.1-0.8
					c0.2-0.2,0.6-0.1,0.8,0.1c0.5,0.7,1,1.4,1.6,2.1c0.2,0.2,0.1,0.6-0.1,0.8C107.9,334.6,107.7,334.6,107.6,334.6z"/>
			</g>
		</g>
	</g>
	<g>
		<g>
			<g>
				<path fill="#130000" d="M179.6,418.7l-3.5-15.4c0-1.2-1-2.2-2.2-2.2h-29.5c-1.2,0-2.2,1-2.2,2.2l-3.5,15.4
					c0,0.8-0.7,1.5-1.5,1.5c-0.8,0-1.5-0.7-1.5-1.5l3.5-20.8c0-1.2,1-2.2,2.2-2.2h35.6c1.2,0,2.2,1,2.2,2.2l3.5,20.8
					c0,0.8-0.7,1.5-1.5,1.5C180.3,420.2,179.6,419.5,179.6,418.7z"/>
			</g>
			<g>
				<path fill="#44261B" d="M190.2,416.4c-7.7,1.1-18.7,1.8-30.9,1.8c-12.2,0-23.2-0.7-30.9-1.8c-2.4-0.3-4.3,1.2-4.3,3.6v25.1v8.8
					v0.5c0,0.2,0,0.3,0.1,0.5c0.5,7.7,7.2,13.9,15.4,13.9H179c8.2,0,14.9-6.1,15.4-13.9c0-0.2,0.1-0.3,0.1-0.5V454v-8.8v-25.1
					C194.5,417.7,192.5,416.1,190.2,416.4z"/>
				<path fill="#FFFFFF" d="M187.1,427.4l-0.4-0.1c-0.2,0-0.4,0-0.6,0.1c0,0,0,0,0.1,0.1c-2.9,2.3-7.7,3.8-13.1,3.8
					c-5.7,0-10.7-1.7-13.5-4.1c0,0,0-0.1,0.1-0.1c-0.4,0-0.8-0.1-1.2-0.1c0.1,0.1,0.1,0.2,0.2,0.2c0,0,0,0,0,0c-0.1,0-0.1,0-0.2,0
					c0,0,0.1,0.1,0.1,0.1c0,0-0.1,0-0.1,0c0,0,0,0,0,0c-2.8,2.4-7.7,4-13.4,4c-5.5,0-10.3-1.5-13.1-3.8c0,0,0,0,0,0
					c-0.3,0-0.7,0-1,0c-1.6,1.3-4,2-6.8,2.1v0.2v0.1v0.2v0.1v0.2v0.1v0.2c3-0.1,5.6-0.9,7.3-2.3c3,2.4,8,4,13.6,4
					c5.9,0,11-1.7,14-4.3c2.9,2.6,8.1,4.3,14,4.3c5.6,0,10.6-1.6,13.6-4c1.8,1.5,4.5,2.4,7.8,2.4v-0.2v-0.1v-0.2v-0.1v-0.2v-0.1
					v-0.2C191.4,429.5,188.8,428.8,187.1,427.4z"/>
				<path fill="#260B0B" d="M161.1,429.1c0.1-0.1,0.1-0.3,0.1-0.4c0-0.3-0.1-0.5-0.3-0.7c0.5-0.4,1.1-1,1.1-1.6c0-1-0.8-1.7-1.7-1.7
					c-1,0-1.7,0.8-1.7,1.7c0,0.6,0.6,1.2,1.1,1.6c-0.2,0.2-0.3,0.4-0.3,0.7c0,0.2,0.1,0.3,0.1,0.4c-2.4,1.7-9.1,6.9-9.1,11.4
					c0,5.5,4.4,9.9,9.9,9.9c5.5,0,9.9-4.5,9.9-9.9C170.2,436,163.5,430.8,161.1,429.1z"/>
				<path fill="#260B0B" d="M133.4,429.1c0.1-0.1,0.1-0.3,0.1-0.4c0-0.3-0.1-0.5-0.3-0.7c0.5-0.4,1.1-1,1.1-1.6c0-1-0.8-1.7-1.7-1.7
					c-1,0-1.7,0.8-1.7,1.7c0,0.6,0.6,1.2,1.1,1.6c-0.2,0.2-0.3,0.4-0.3,0.7c0,0.2,0.1,0.3,0.1,0.4c-2.4,1.7-9.1,6.9-9.1,11.4
					c0,5.5,4.4,9.9,9.9,9.9c5.5,0,9.9-4.5,9.9-9.9C142.6,436,135.8,430.8,133.4,429.1z"/>
				<g>
					<path fill="#260B0B" d="M188.8,429.1c0.1-0.1,0.1-0.3,0.1-0.4c0-0.3-0.1-0.5-0.3-0.7c0.5-0.4,1.1-1,1.1-1.6
						c0-1-0.8-1.7-1.7-1.7c-1,0-1.7,0.8-1.7,1.7c0,0.6,0.6,1.2,1.1,1.6c-0.2,0.2-0.3,0.4-0.3,0.7c0,0.2,0.1,0.3,0.1,0.4
						c-2.4,1.7-9.1,6.9-9.1,11.4c0,5.5,4.4,9.9,9.9,9.9c2.5,0,4.7-0.9,6.5-2.4V434C192.4,431.8,190,430,188.8,429.1z"/>
				</g>
				<path fill="#00B5B2" d="M132.2,428.5c0.1-0.1,0.1-0.3,0.1-0.4c0-0.3-0.1-0.5-0.3-0.7c0.5-0.4,1.1-1,1.1-1.6c0-1-0.8-1.7-1.7-1.7
					c-1,0-1.7,0.8-1.7,1.7c0,0.6,0.6,1.2,1.1,1.6c-0.2,0.2-0.3,0.4-0.3,0.7c0,0.2,0.1,0.3,0.1,0.4c-2.4,1.7-9.1,6.9-9.1,11.4
					c0,5.5,4.4,9.9,9.9,9.9c5.5,0,9.9-4.5,9.9-9.9C141.4,435.4,134.6,430.2,132.2,428.5z"/>
				<path fill="#F16646" d="M159.9,428.5c0.1-0.1,0.1-0.3,0.1-0.4c0-0.3-0.1-0.5-0.3-0.7c0.5-0.4,1.1-1,1.1-1.6c0-1-0.8-1.7-1.7-1.7
					c-1,0-1.7,0.8-1.7,1.7c0,0.6,0.6,1.2,1.1,1.6c-0.2,0.2-0.3,0.4-0.3,0.7c0,0.2,0.1,0.3,0.1,0.4c-2.4,1.7-9.1,6.9-9.1,11.4
					c0,5.5,4.5,9.9,9.9,9.9c5.5,0,9.9-4.5,9.9-9.9C169,435.4,162.3,430.2,159.9,428.5z"/>
				<path fill="#00B5B2" d="M187.6,428.5c0.1-0.1,0.1-0.3,0.1-0.4c0-0.3-0.1-0.5-0.3-0.7c0.5-0.4,1.1-1,1.1-1.6c0-1-0.8-1.7-1.7-1.7
					c-1,0-1.7,0.8-1.7,1.7c0,0.6,0.6,1.2,1.1,1.6c-0.2,0.2-0.3,0.4-0.3,0.7c0,0.2,0.1,0.3,0.1,0.4c-2.4,1.7-9.1,6.9-9.1,11.4
					c0,5.5,4.4,9.9,9.9,9.9c5.5,0,9.9-4.5,9.9-9.9C196.7,435.4,190,430.2,187.6,428.5z"/>
			</g>
		</g>
		<rect x="145.8" y="395.8" fill="#F16646" width="26.5" height="5.4"/>
	</g>
</g>
</svg>
