<!-- Generator: Adobe Illustrator 18.1.1, SVG Export Plug-In  -->
<svg version="1.1"
	 xmlns="http://www.w3.org/2000/svg" xmlns:xlink="http://www.w3.org/1999/xlink" xmlns:a="http://ns.adobe.com/AdobeSVGViewerExtensions/3.0/"
	 x="0px" y="0px" width="548px" height="182.9px" viewBox="0 0 548 182.9" enable-background="new 0 0 548 182.9"
	 xml:space="preserve">
<defs>
</defs>
<g>
	<path fill="#E6E7E8" d="M503,182.9c-42-10-81-26-123-39c-23-7-48-11-71-4c-4,2-9,3-13,0c-7-6-6-16-5-25c1-4,2-8,2-12c0-1,2-3,2-4
		c7-29,21-52,34-78c4-7,8-14,12-20c9-3,18,2,27,3c11,2,20,6,31,8c4,1,6,3,10,4c5,1,10,3,15,4c41,14,81,30,124,32
		c-33,22-70,37-108,47c6,9,10,19,17,29c9,12,16,23,26,34C490,168.9,497,175.9,503,182.9L503,182.9z"/>
</g>
<g>
	<path fill="#E6E7E8" d="M19,152.9c19-6,38-10,58-13c12-1,23-1,35-1c36-1,72,1,109-5c6-1,11-3,16-5c4-2,7-3,11-5c5-3,10-8,14-12
		c3-4,5-8,6-13c1-8,1-16-3-23c-14-25-39-41-65-52c-2-1-3-1-5-1c-1,0-3-2-4-2c-67-13-133-2-191,28c31,3,61,13,90,26
		C63,96.9,39,123.9,19,152.9L19,152.9z"/>
</g>
<path fill="#BCBEC0" d="M120.2,119.8c0,0,32.8,21.4,46.9,22.1l-19.8-27.8L120.2,119.8z"/>
<path fill="#BCBEC0" d="M408.8,118.5c0,0-29.8,21.4-43.9,22.1l19.8-27.8L408.8,118.5z"/>
</svg>
