<!-- Generator: Adobe Illustrator 18.1.1, SVG Export Plug-In  -->
<svg version="1.1"
	 xmlns="http://www.w3.org/2000/svg" xmlns:xlink="http://www.w3.org/1999/xlink" xmlns:a="http://ns.adobe.com/AdobeSVGViewerExtensions/3.0/"
	 x="0px" y="0px" width="3692.6px" height="1861px" viewBox="0 0 3692.6 1861" enable-background="new 0 0 3692.6 1861"
	 xml:space="preserve">
<defs>
</defs>
<path fill="#FFFFFF" d="M3691.6,144.9V64.6c-9.5-5.2-20.4-8.1-32-8.1c-13,0-25.1,3.7-35.4,10.1c-14.2-23.9-40.3-39.9-70.1-39.9
	c-35,0-64.8,22.1-76.4,53.1c-11.1-4.3-23.1-6.8-35.7-6.8c-30.3,0-57.4,13.8-75.4,35.5c-9.3-4.7-19.6-7.4-30.5-7.4
	c-23.3,0-44.1,12.1-57.1,30.7c-11.3-10.8-26.5-17.4-43.2-17.4c-14.5,0-27.9,5-38.6,13.3c-9.3-34.1-40.5-59.1-77.6-59.1
	c-26,0-49.1,12.3-63.8,31.4c-9.5-9.4-22.6-15.1-37-15.1c-3.5,0-6.9,0.3-10.3,1c-9.4-5.5-20.3-8.7-31.9-8.7c-15.6,0-29.8,5.7-40.8,15
	c-17.5-40.2-57.6-68.4-104.3-68.4c-19.8,0-38.4,5-54.6,13.9c-16.2-8.9-34.8-13.9-54.6-13.9c-46.7,0-86.8,28.1-104.3,68.4
	c-11-9.4-25.2-15-40.8-15c-11.7,0-22.6,3.2-31.9,8.7c-3.3-0.7-6.7-1-10.3-1c-14.4,0-27.5,5.8-37,15.1
	c-14.7-19.1-37.8-31.4-63.8-31.4c-37.1,0-68.3,25.1-77.6,59.1c-10.7-8.4-24-13.3-38.6-13.3c-16.7,0-31.9,6.6-43.2,17.4
	c-13-18.7-33.8-30.7-57.1-30.7c-10.9,0-21.3,2.7-30.5,7.4c-17.9-21.7-45-35.5-75.4-35.5c-12.6,0-24.6,2.4-35.7,6.8
	c-11.5-31-41.4-53.1-76.4-53.1c-29.8,0-55.9,16-70.1,39.9c-10.3-6.4-22.4-10.1-35.4-10.1c-11.1,0-21.6,2.7-30.9,7.5
	c-12.3,3.3-22.9,10.9-30.1,21.2c-7.3-3.5-15.5-5.4-24.2-5.4c-8.6,0-16.7,1.9-23.9,5.3c-11.2-14-28.4-22.9-47.7-22.9
	c-25.8,0-47.8,16-56.8,38.5c-7.8-4.1-16.6-6.4-26-6.4c-4.6,0-9.1,0.6-13.4,1.6c-8.9-19.2-28.4-32.6-51-32.6
	c-20.8,0-39,11.3-48.7,28.2c-12.9-12.7-30.7-20.6-50.3-20.6c-10.5,0-20.5,2.3-29.4,6.3c-10.5-17.1-29.3-28.5-50.8-28.5
	c-14,0-26.9,4.9-37.1,13c-11.2-35.2-44.2-60.8-83.2-60.8c-43.4,0-79.5,31.7-86.1,73.2c-9.6-4.6-20.4-7.2-31.8-7.2
	c-34.2,0-63,23.5-71,55.2c-5.5-1.7-11.3-2.7-17.4-2.7c-12,0-23.1,3.7-32.3,9.9c-7.4-12.9-19.7-22.6-34.4-26.6
	c-5.7-1.9-11.9-3-18.3-3c-21.3,0-39.8,11.6-49.8,28.7c-9.2-6.3-20.3-9.9-32.3-9.9c-6.1,0-11.9,0.9-17.4,2.7
	c-8-31.7-36.7-55.2-71-55.2c-11.4,0-22.2,2.6-31.8,7.2C790.8,31.7,754.8,0,711.3,0c-39,0-72,25.5-83.2,60.8
	c-10.2-8.1-23.1-13-37.1-13c-21.5,0-40.4,11.4-50.8,28.5c-9-4-18.9-6.3-29.4-6.3c-19.6,0-37.3,7.8-50.3,20.6
	c-9.7-16.8-27.9-28.2-48.7-28.2c-22.6,0-42.1,13.3-51,32.6c-4.3-1.1-8.8-1.6-13.4-1.6c-9.4,0-18.2,2.3-26,6.4
	c-9-22.6-31-38.5-56.8-38.5c-19.3,0-36.5,8.9-47.7,22.9c-7.3-3.4-15.4-5.3-23.9-5.3c-8.7,0-16.8,1.9-24.2,5.4
	c-9.7-13.9-25.8-23-44.1-23c-7,0-13.8,1.4-19.9,3.8C91.3,27.1,55.1,0,12.6,0C8.3,0,4.1,0.3,0,0.8l0.2,144.1V1861h3692.4V144.9
	H3691.6z"/>
</svg>
