<!-- Generator: Adobe Illustrator 18.1.1, SVG Export Plug-In  -->
<svg version="1.1"
	 xmlns="http://www.w3.org/2000/svg" xmlns:xlink="http://www.w3.org/1999/xlink" xmlns:a="http://ns.adobe.com/AdobeSVGViewerExtensions/3.0/"
	 x="0px" y="0px" width="349.2px" height="173.6px" viewBox="0 0 349.2 173.6" enable-background="new 0 0 349.2 173.6"
	 xml:space="preserve">
<defs>
</defs>
<g>
	<path fill="#F1F2F2" d="M308.3,76.9c-3.3-0.1-6.5,0.3-9.5,1c-10.5-23-33.5-39.1-60.4-39.5c-14.9-0.2-28.7,4.4-40,12.4
		c-8.5-28.9-35-50.2-66.7-50.8C95.1-0.6,64.7,26.5,60.3,61.9c-2.1-0.3-4.1-0.5-6.3-0.5c-29.4-0.5-53.6,23-54,52.3
		c-0.5,29.4,23,53.6,52.3,54c15.3,0.2,29.1-6,39-16.2c10.7,13.2,26.9,21.7,45.2,22c20,0.3,37.8-9.3,48.8-24.3
		c12.2,14.6,30.4,24,50.9,24.3c19.2,0.3,36.7-7.4,49.2-20.1c6.3,4,13.6,6.4,21.6,6.5c22.9,0.4,41.8-17.9,42.2-40.9
		C349.6,96.2,331.3,77.3,308.3,76.9z"/>
</g>
</svg>
