<!-- Generator: Adobe Illustrator 18.1.1, SVG Export Plug-In  -->
<svg version="1.1"
	 xmlns="http://www.w3.org/2000/svg" xmlns:xlink="http://www.w3.org/1999/xlink" xmlns:a="http://ns.adobe.com/AdobeSVGViewerExtensions/3.0/"
	 x="0px" y="0px" width="3692.6px" height="1861px" viewBox="0 0 3692.6 1861" enable-background="new 0 0 3692.6 1861"
	 xml:space="preserve">
<defs>
</defs>
<path fill="#ABDDDC" d="M0.9,144.9V64.6c9.5-5.2,20.4-8.1,32-8.1c13,0,25.1,3.7,35.4,10.1c14.2-23.9,40.3-39.9,70.1-39.9
	c35,0,64.8,22.1,76.4,53.1c11.1-4.3,23.1-6.8,35.7-6.8c30.3,0,57.4,13.8,75.4,35.5c9.3-4.7,19.6-7.4,30.5-7.4
	c23.3,0,44.1,12.1,57.1,30.7c11.3-10.8,26.5-17.4,43.2-17.4c14.5,0,27.9,5,38.6,13.3c9.3-34.1,40.5-59.1,77.6-59.1
	c26,0,49.1,12.3,63.8,31.4c9.5-9.4,22.6-15.1,37-15.1c3.5,0,6.9,0.3,10.3,1c9.4-5.5,20.3-8.7,31.9-8.7c15.6,0,29.8,5.7,40.8,15
	C774.2,52,814.3,23.8,861,23.8c19.8,0,38.4,5,54.6,13.9c16.2-8.9,34.8-13.9,54.6-13.9c46.7,0,86.8,28.1,104.3,68.4
	c11-9.4,25.2-15,40.8-15c11.7,0,22.6,3.2,31.9,8.7c3.3-0.7,6.7-1,10.3-1c14.4,0,27.5,5.8,37,15.1c14.7-19.1,37.8-31.4,63.8-31.4
	c37.1,0,68.3,25.1,77.6,59.1c10.7-8.4,24-13.3,38.6-13.3c16.7,0,31.9,6.6,43.2,17.4c13-18.7,33.8-30.7,57.1-30.7
	c10.9,0,21.3,2.7,30.5,7.4c17.9-21.7,45-35.5,75.4-35.5c12.6,0,24.6,2.4,35.7,6.8c11.5-31,41.4-53.1,76.4-53.1
	c29.8,0,55.9,16,70.1,39.9c10.3-6.4,22.4-10.1,35.4-10.1c11.1,0,21.6,2.7,30.9,7.5c12.3,3.3,22.9,10.9,30.1,21.2
	c7.3-3.5,15.5-5.4,24.2-5.4c8.6,0,16.7,1.9,23.9,5.3c11.2-14,28.4-22.9,47.7-22.9c25.8,0,47.8,16,56.8,38.5c7.8-4.1,16.6-6.4,26-6.4
	c4.6,0,9.1,0.6,13.4,1.6c8.9-19.2,28.4-32.6,51-32.6c20.8,0,39,11.3,48.7,28.2c12.9-12.7,30.7-20.6,50.3-20.6
	c10.5,0,20.5,2.3,29.4,6.3c10.5-17.1,29.3-28.5,50.8-28.5c14,0,26.9,4.9,37.1,13c11.2-35.2,44.2-60.8,83.2-60.8
	c43.4,0,79.5,31.7,86.1,73.2c9.6-4.6,20.4-7.2,31.8-7.2c34.2,0,63,23.5,71,55.2c5.5-1.7,11.3-2.7,17.4-2.7c12,0,23.1,3.7,32.3,9.9
	c7.4-12.9,19.7-22.6,34.4-26.6c5.7-1.9,11.9-3,18.3-3c21.3,0,39.8,11.6,49.8,28.7c9.2-6.3,20.3-9.9,32.3-9.9
	c6.1,0,11.9,0.9,17.4,2.7c8-31.7,36.7-55.2,71-55.2c11.4,0,22.2,2.6,31.8,7.2c6.6-41.5,42.7-73.2,86.1-73.2c39,0,72,25.5,83.2,60.8
	c10.2-8.1,23.1-13,37.1-13c21.5,0,40.4,11.4,50.8,28.5c9-4,18.9-6.3,29.4-6.3c19.6,0,37.3,7.8,50.3,20.6
	c9.7-16.8,27.9-28.2,48.7-28.2c22.6,0,42.1,13.3,51,32.6c4.3-1.1,8.8-1.6,13.4-1.6c9.4,0,18.2,2.3,26,6.4c9-22.6,31-38.5,56.8-38.5
	c19.3,0,36.5,8.9,47.7,22.9c7.3-3.4,15.4-5.3,23.9-5.3c8.7,0,16.8,1.9,24.2,5.4c9.7-13.9,25.8-23,44.1-23c7,0,13.8,1.4,19.9,3.8
	c13.5-37.9,49.7-65,92.2-65c4.3,0,8.5,0.3,12.6,0.8l-0.2,144.1V1861H0L0,144.9H0.9z"/>
</svg>
