<!-- Generator: Adobe Illustrator 18.1.1, SVG Export Plug-In  -->
<svg version="1.1"
	 xmlns="http://www.w3.org/2000/svg" xmlns:xlink="http://www.w3.org/1999/xlink" xmlns:a="http://ns.adobe.com/AdobeSVGViewerExtensions/3.0/"
	 x="0px" y="0px" width="358.8px" height="269.3px" viewBox="0 0 358.8 269.3" enable-background="new 0 0 358.8 269.3"
	 xml:space="preserve">
<defs>
	<symbol  id="New_Symbol" viewBox="-56.4 -49.2 112.7 98.5">
		<g>
			<g>
				<g>
					<path fill="#FF6400" d="M-52.1,14.5c-0.8,3.5-1.2,20.8-0.7,24c1.3,8.9,2.7,0.3,2.8-4c0.2-4.3-0.1-8.5-0.3-13.8
						C-50.4,18.2-51.2,11-52.1,14.5z"/>
					<path fill="#FF6400" d="M-52.1,9.6c-0.8-3.5-1.2-20.8-0.7-24c1.3-8.9,2.7-0.3,2.8,4c0.2,4.3-0.1,8.5-0.3,13.8
						C-50.4,5.9-51.2,13.1-52.1,9.6z"/>
					<polygon fill="#961400" points="-19.1,-35.3 -31.1,2.1 -28.8,2.8 -16.8,-34.5 					"/>
					<polygon fill="#961400" points="-16.8,-35.3 -19.1,-34.5 -7.2,2.8 -4.9,2.1 					"/>
					<path fill="#961400" d="M-42.6,12.1c0-2.7-3.1-4.8-6.9-4.8c-3.8,0-6.9,2.2-6.9,4.8s3.1,4.8,6.9,4.8
						C-45.7,16.9-42.6,14.7-42.6,12.1z"/>
					<path fill="#DC1E00" d="M56.4,26.6l-19,2.2c0,0-3.4-5.4-11.3-5.2c-6.5,0.2-11.6,7-11.6,7s-46.8,0.1-61.1,0
						c-1.8,0-2.5-1.4-2.5-1.7V4.7c0,0,13.2-13.4,36.6-13.7c19.3-0.3,45.5,1,69,2.9"/>
					<path fill="#282828" d="M-3.6-34.9c0-7.9-6.4-14.3-14.3-14.3c-7.9,0-14.3,6.4-14.3,14.3c0,7.9,6.4,14.3,14.3,14.3
						C-10.1-20.6-3.6-27-3.6-34.9z"/>
					<path fill="#E6DCDC" d="M-6.8-34.9c0-6.2-5-11.2-11.2-11.2s-11.2,5-11.2,11.2c0,6.2,5,11.2,11.2,11.2S-6.8-28.7-6.8-34.9z"/>
					<path fill="#282828" d="M-16.5-34.9c0-0.8-0.6-1.4-1.4-1.4c-0.8,0-1.4,0.6-1.4,1.4c0,0.8,0.6,1.4,1.4,1.4
						C-17.2-33.5-16.5-34.1-16.5-34.9z"/>
					<path fill="#641400" d="M-29.9,17.8c0,0-0.1,0-0.1,0c-0.7,0.1-1.2,0.6-1.1,1.3l2.5,27c0.1,0.7,0.6,1.2,1.3,1.1
						c0.7-0.1,1.2-0.7,1.1-1.3l-2.5-27C-28.8,18.3-29.3,17.8-29.9,17.8z"/>
					<path fill="#641400" d="M-11.6,17.3c-0.1,0-0.1,0-0.2,0c-0.7,0.1-1.1,0.7-1,1.4l4.1,26.4c0.1,0.7,0.7,1.1,1.4,1
						c0.7-0.1,1.1-0.7,1-1.4l-4.1-26.4C-10.5,17.7-11,17.3-11.6,17.3z"/>
					<polygon fill="#961400" points="-7.4,-8.1 -27.9,45 -25.1,46.1 -4.6,-7 					"/>
					<polygon fill="#961400" points="15.8,-8.1 -4.7,45 -1.9,46.1 18.6,-7 					"/>
					<polygon fill="#961400" points="-5,-8.1 -7.5,46.1 -4.5,46.2 -1.9,-8 					"/>
					<path fill="#FF6400" d="M-30.7,48.4c-5.6-2.3-2.9-3.7,1.8-4c4.7-0.3,27.4-0.6,33.4-0.1c5.1,0.5,13.5,0.7,3.8,2.3
						C-5.1,48.8-26.4,50.2-30.7,48.4z"/>
					<path fill="#FF6400" d="M-9.6-6.1c-5-1.9-2.6-3,1.6-3.2c4.1-0.3,24.3-0.5,29.5-0.1C26-9,33.4-8.9,24.9-7.5
						C13.1-5.7-5.7-4.6-9.6-6.1z"/>
				</g>
			</g>
		</g>
	</symbol>
	<symbol  id="New_Symbol_2" viewBox="-169 -109.6 339 219.3">
		<g>
			<g opacity="0.4">
				<path fill="#5F8989" d="M-81,8.6h-72.9c-8.2,0-15,6.8-15,15v66.9c0,8.2,6.8,15,15,15H-81c8.2,0,15-6.8,15-15V23.6
					C-66,15.3-72.7,8.6-81,8.6z"/>
				<path fill="none" stroke="#5F8989" stroke-width="0.4035" stroke-miterlimit="10" d="M-81,8.6h-72.9c-8.2,0-15,6.8-15,15v66.9
					c0,8.2,6.8,15,15,15H-81c8.2,0,15-6.8,15-15V23.6C-66,15.3-72.7,8.6-81,8.6z"/>
			</g>
			<g>
				<path fill="#F1F2F2" d="M-81,12.6h-72.9c-8.2,0-15,6.8-15,15v66.9c0,8.2,6.8,15,15,15H-81c8.2,0,15-6.8,15-15V27.6
					C-66,19.3-72.7,12.6-81,12.6z"/>
				<path fill="none" stroke="#BCBEC0" stroke-width="0.4035" stroke-miterlimit="10" d="M-81,12.6h-72.9c-8.2,0-15,6.8-15,15v66.9
					c0,8.2,6.8,15,15,15H-81c8.2,0,15-6.8,15-15V27.6C-66,19.3-72.7,12.6-81,12.6z"/>
			</g>
		</g>
		<g>
			<g opacity="0.4">
				<path fill="#5F8989" d="M36.4,8.6h-72.9c-8.2,0-15,6.8-15,15v66.9c0,8.2,6.8,15,15,15h72.9c8.2,0,15-6.8,15-15V23.6
					C51.4,15.3,44.7,8.6,36.4,8.6z"/>
				<path fill="none" stroke="#5F8989" stroke-width="0.4035" stroke-miterlimit="10" d="M36.4,8.6h-72.9c-8.2,0-15,6.8-15,15v66.9
					c0,8.2,6.8,15,15,15h72.9c8.2,0,15-6.8,15-15V23.6C51.4,15.3,44.7,8.6,36.4,8.6z"/>
			</g>
			<g>
				<path fill="#F1F2F2" d="M36.4,12.6h-72.9c-8.2,0-15,6.8-15,15v66.9c0,8.2,6.8,15,15,15h72.9c8.2,0,15-6.8,15-15V27.6
					C51.4,19.3,44.7,12.6,36.4,12.6z"/>
				<path fill="none" stroke="#BCBEC0" stroke-width="0.4035" stroke-miterlimit="10" d="M36.4,12.6h-72.9c-8.2,0-15,6.8-15,15v66.9
					c0,8.2,6.8,15,15,15h72.9c8.2,0,15-6.8,15-15V27.6C51.4,19.3,44.7,12.6,36.4,12.6z"/>
			</g>
		</g>
		<g>
			<g opacity="0.4">
				<path fill="#5F8989" d="M-81-109.4h-72.9c-8.2,0-15,6.8-15,15v66.9c0,8.2,6.8,15,15,15H-81c8.2,0,15-6.8,15-15v-66.9
					C-66-102.7-72.7-109.4-81-109.4z"/>
				<path fill="none" stroke="#5F8989" stroke-width="0.4035" stroke-miterlimit="10" d="M-81-109.4h-72.9c-8.2,0-15,6.8-15,15v66.9
					c0,8.2,6.8,15,15,15H-81c8.2,0,15-6.8,15-15v-66.9C-66-102.7-72.7-109.4-81-109.4z"/>
			</g>
			<g>
				<path fill="#F1F2F2" d="M-81-105.4h-72.9c-8.2,0-15,6.8-15,15v66.9c0,8.2,6.8,15,15,15H-81c8.2,0,15-6.8,15-15v-66.9
					C-66-98.7-72.7-105.4-81-105.4z"/>
				<path fill="none" stroke="#BCBEC0" stroke-width="0.4035" stroke-miterlimit="10" d="M-81-105.4h-72.9c-8.2,0-15,6.8-15,15v66.9
					c0,8.2,6.8,15,15,15H-81c8.2,0,15-6.8,15-15v-66.9C-66-98.7-72.7-105.4-81-105.4z"/>
			</g>
		</g>
		<g>
			<g opacity="0.4">
				<path fill="#5F8989" d="M36.4-109.4h-72.9c-8.2,0-15,6.8-15,15v66.9c0,8.2,6.8,15,15,15h72.9c8.2,0,15-6.8,15-15v-66.9
					C51.4-102.7,44.7-109.4,36.4-109.4z"/>
				<path fill="none" stroke="#5F8989" stroke-width="0.4035" stroke-miterlimit="10" d="M36.4-109.4h-72.9c-8.2,0-15,6.8-15,15
					v66.9c0,8.2,6.8,15,15,15h72.9c8.2,0,15-6.8,15-15v-66.9C51.4-102.7,44.7-109.4,36.4-109.4z"/>
			</g>
			<g>
				<path fill="#F1F2F2" d="M36.4-105.4h-72.9c-8.2,0-15,6.8-15,15v66.9c0,8.2,6.8,15,15,15h72.9c8.2,0,15-6.8,15-15v-66.9
					C51.4-98.7,44.7-105.4,36.4-105.4z"/>
				<path fill="none" stroke="#BCBEC0" stroke-width="0.4035" stroke-miterlimit="10" d="M36.4-105.4h-72.9c-8.2,0-15,6.8-15,15
					v66.9c0,8.2,6.8,15,15,15h72.9c8.2,0,15-6.8,15-15v-66.9C51.4-98.7,44.7-105.4,36.4-105.4z"/>
			</g>
		</g>
		<g>
			<g opacity="0.4">
				<path fill="#5F8989" d="M153.8-109.4H81c-8.2,0-15,6.8-15,15v66.9c0,8.2,6.8,15,15,15h72.9c8.2,0,15-6.8,15-15v-66.9
					C168.8-102.7,162.1-109.4,153.8-109.4z"/>
				<path fill="none" stroke="#5F8989" stroke-width="0.4035" stroke-miterlimit="10" d="M153.8-109.4H81c-8.2,0-15,6.8-15,15v66.9
					c0,8.2,6.8,15,15,15h72.9c8.2,0,15-6.8,15-15v-66.9C168.8-102.7,162.1-109.4,153.8-109.4z"/>
			</g>
			<g>
				<path fill="#F1F2F2" d="M153.8-105.4H81c-8.2,0-15,6.8-15,15v66.9c0,8.2,6.8,15,15,15h72.9c8.2,0,15-6.8,15-15v-66.9
					C168.8-98.7,162.1-105.4,153.8-105.4z"/>
				<path fill="none" stroke="#BCBEC0" stroke-width="0.4035" stroke-miterlimit="10" d="M153.8-105.4H81c-8.2,0-15,6.8-15,15v66.9
					c0,8.2,6.8,15,15,15h72.9c8.2,0,15-6.8,15-15v-66.9C168.8-98.7,162.1-105.4,153.8-105.4z"/>
			</g>
		</g>
		<g opacity="0.6">
			<path fill="#0077BE" d="M-131.5,38.8l-7.8,0.3c2.9-3.2,6.5-5.8,10.5-7.6L-131.5,38.8z"/>
			<path fill="#0077BE" d="M-121.4,34.3l-7.2-2.9c3.9-1.7,8.2-2.7,12.7-2.7L-121.4,34.3z"/>
			<path fill="#0077BE" d="M-115.9,28.8c4.5,0,8.8,1,12.7,2.7l-7.2,2.9L-115.9,28.8z"/>
			<path fill="#0077BE" d="M-139.4,39.3l0.5,7.8l-7,3.5C-144.5,46.3-142.3,42.5-139.4,39.3"/>
			<path fill="#0077BE" d="M-100.3,38.8l-2.7-7.3c4,1.8,7.6,4.4,10.5,7.6L-100.3,38.8z"/>
			<path fill="#CD1543" d="M-145.9,50.6l3.6,6.9l-5,6c-0.1-1.1-0.2-2.1-0.2-3.2C-147.4,56.9-146.9,53.6-145.9,50.6"/>
			<path fill="#CD1543" d="M-143.2,76c-2.1-3.7-3.5-7.9-4-12.4l6.1,4.8L-143.2,76z"/>
			<path fill="#CD1543" d="M-134.4,85.8l7.7-1.3l4.2,6.6C-126.9,90.2-130.9,88.3-134.4,85.8"/>
			<path fill="#CD1543" d="M-109.3,91.1l4.2-6.6l7.7,1.3C-100.9,88.3-105,90.2-109.3,91.1"/>
			<path fill="#CD1543" d="M-96.2,78l7.6-1.9c-2.2,3.8-5.2,7.1-8.7,9.7L-96.2,78z"/>
			<path fill="#CD1543" d="M-135.6,78l1.1,7.7c-3.5-2.6-6.5-5.9-8.7-9.7L-135.6,78z"/>
			<path fill="#CD1543" d="M-115.9,86.8l6.5,4.3c-2.1,0.4-4.3,0.7-6.5,0.7c-2.2,0-4.4-0.2-6.5-0.7L-115.9,86.8z"/>
			<path fill="#CD1543" d="M-88.6,76l-2.1-7.5l6.1-4.8C-85.1,68.1-86.5,72.3-88.6,76"/>
			<path fill="#0077BE" d="M-93,47l0.5-7.8c2.9,3.2,5.1,7,6.5,11.2L-93,47z"/>
			<path fill="#CD1543" d="M-89.6,57.5l3.6-6.9c1,3.1,1.5,6.3,1.5,9.7c0,1.1-0.1,2.2-0.2,3.2L-89.6,57.5z"/>
			<path fill="#EB6724" d="M-102.9,78.3l6.5-0.3c-2.4,2.7-5.4,4.9-8.8,6.4L-102.9,78.3z"/>
			<path fill="#EB6724" d="M-111.3,82l6.1,2.4c-3.3,1.4-6.9,2.3-10.7,2.3L-111.3,82z"/>
			<path fill="#EB6724" d="M-116,86.7c-3.8,0-7.4-0.8-10.7-2.3l6.1-2.4L-116,86.7z"/>
			<path fill="#EB6724" d="M-96.3,77.9l-0.4-6.5l5.9-2.9C-92,72-93.8,75.2-96.3,77.9"/>
			<path fill="#EB6724" d="M-129,78.3l2.3,6.1c-3.4-1.5-6.4-3.7-8.8-6.4L-129,78.3z"/>
			<path fill="#EB6724" d="M-90.8,68.4l-3-5.8l4.2-5c0.1,0.9,0.1,1.8,0.1,2.7C-89.5,63.1-89.9,65.8-90.8,68.4"/>
			<path fill="#EB6724" d="M-93,47.1c1.8,3.1,3,6.6,3.4,10.4l-5.1-4.1L-93,47.1z"/>
			<path fill="#61AEE1" d="M-100.4,38.9l-6.4,1.1l-3.5-5.5C-106.7,35.2-103.4,36.8-100.4,38.9"/>
			<path fill="#61AEE1" d="M-121.5,34.4L-125,40l-6.4-1.1C-128.5,36.8-125.1,35.2-121.5,34.4"/>
			<path fill="#61AEE1" d="M-132.5,45.4l-6.3,1.6c1.8-3.2,4.3-5.9,7.3-8.1L-132.5,45.4z"/>
			<path fill="#61AEE1" d="M-99.4,45.4l-1-6.5c3,2.2,5.4,4.9,7.3,8.1L-99.4,45.4z"/>
			<path fill="#61AEE1" d="M-115.9,38l-5.5-3.6c1.8-0.4,3.6-0.6,5.5-0.6c1.9,0,3.7,0.2,5.5,0.6L-115.9,38z"/>
			<path fill="#EB6724" d="M-138.8,47.1l1.8,6.3l-5.1,4.1C-141.8,53.7-140.6,50.2-138.8,47.1"/>
			<path fill="#EB6724" d="M-135.2,71.4l-0.4,6.5c-2.4-2.7-4.3-5.9-5.4-9.4L-135.2,71.4z"/>
			<path fill="#EB6724" d="M-138.1,62.6l-3,5.8c-0.8-2.6-1.3-5.3-1.3-8.1c0-0.9,0-1.8,0.1-2.7L-138.1,62.6z"/>
			<path fill="#BDCB26" d="M-126.9,45.2l-5.5,0.2c2.1-2.3,4.6-4.1,7.4-5.4L-126.9,45.2z"/>
			<path fill="#BDCB26" d="M-119.8,42l-5.1-2c2.7-1.2,5.8-1.9,8.9-1.9L-119.8,42z"/>
			<path fill="#BDCB26" d="M-115.9,38.1c3.2,0,6.2,0.7,8.9,1.9l-5.1,2L-115.9,38.1z"/>
			<path fill="#F7941E" d="M-132.4,45.5l0.3,5.5l-4.9,2.4C-136,50.4-134.5,47.8-132.4,45.5"/>
			<path fill="#BDCB26" d="M-105,45.2l-1.9-5.1c2.8,1.3,5.3,3.1,7.4,5.4L-105,45.2z"/>
			<path fill="#F7941E" d="M-137,53.5l2.5,4.9l-3.5,4.2c-0.1-0.7-0.1-1.5-0.1-2.3C-138.1,57.9-137.7,55.6-137,53.5"/>
			<path fill="#F7941E" d="M-135.1,71.3c-1.5-2.6-2.5-5.6-2.8-8.7l4.3,3.4L-135.1,71.3z"/>
			<path fill="#F7941E" d="M-128.9,78.2l5.4-0.9l2.9,4.6C-123.6,81.3-126.5,80-128.9,78.2"/>
			<path fill="#F7941E" d="M-111.3,82l2.9-4.6l5.4,0.9C-105.4,80-108.2,81.3-111.3,82"/>
			<path fill="#F7941E" d="M-102.1,72.8l5.3-1.4c-1.5,2.7-3.6,5-6.1,6.8L-102.1,72.8z"/>
			<path fill="#F7941E" d="M-129.8,72.8l0.8,5.4c-2.5-1.8-4.6-4.1-6.1-6.8L-129.8,72.8z"/>
			<path fill="#F7941E" d="M-115.9,78.9l4.6,3c-1.5,0.3-3,0.5-4.6,0.5c-1.6,0-3.1-0.2-4.6-0.5L-115.9,78.9z"/>
			<path fill="#F7941E" d="M-96.7,71.3l-1.5-5.3l4.3-3.4C-94.2,65.8-95.2,68.7-96.7,71.3"/>
			<path fill="#F7941E" d="M-99.8,51l0.3-5.5c2,2.3,3.6,4.9,4.6,7.9L-99.8,51z"/>
			<path fill="#F7941E" d="M-97.4,58.3l2.5-4.9c0.7,2.1,1.1,4.4,1.1,6.8c0,0.8,0,1.5-0.1,2.3L-97.4,58.3z"/>
			<path fill="#FDB913" d="M-106.7,72.9l4.6-0.2c-1.7,1.9-3.8,3.4-6.2,4.5L-106.7,72.9z"/>
			<path fill="#FDB913" d="M-112.7,75.6l4.3,1.7c-2.3,1-4.8,1.6-7.5,1.6L-112.7,75.6z"/>
			<path fill="#FDB913" d="M-116,78.8c-2.7,0-5.2-0.6-7.5-1.6l4.3-1.7L-116,78.8z"/>
			<path fill="#FDB913" d="M-102.1,72.7l-0.3-4.6l4.1-2C-99.1,68.5-100.4,70.8-102.1,72.7"/>
			<path fill="#FDB913" d="M-125.1,72.9l1.6,4.3c-2.4-1.1-4.5-2.6-6.2-4.5L-125.1,72.9z"/>
			<path fill="#FDB913" d="M-98.3,66l-2.1-4.1l2.9-3.5c0.1,0.6,0.1,1.3,0.1,1.9C-97.4,62.3-97.7,64.2-98.3,66"/>
			<path fill="#FDB913" d="M-99.8,51c1.3,2.2,2.1,4.6,2.4,7.3l-3.6-2.9L-99.8,51z"/>
			<path fill="#BDCB26" d="M-105,45.2l-4.5,0.8l-2.5-3.9C-109.5,42.7-107.1,43.8-105,45.2"/>
			<path fill="#BDCB26" d="M-119.8,42.1l-2.5,3.9l-4.5-0.8C-124.8,43.8-122.4,42.7-119.8,42.1"/>
			<path fill="#FDB913" d="M-127.5,49.8L-132,51c1.3-2.2,3-4.2,5.1-5.7L-127.5,49.8z"/>
			<path fill="#FDB913" d="M-104.3,49.8l-0.7-4.5c2.1,1.5,3.8,3.5,5.1,5.7L-104.3,49.8z"/>
			<path fill="#BDCB26" d="M-115.9,44.7l-3.8-2.5c1.2-0.3,2.5-0.4,3.8-0.4c1.3,0,2.6,0.1,3.8,0.4L-115.9,44.7z"/>
			<path fill="#FDB913" d="M-132,51l1.2,4.4l-3.6,2.9C-134.1,55.7-133.3,53.2-132,51"/>
			<path fill="#FDB913" d="M-129.5,68.1l-0.3,4.6c-1.7-1.9-3-4.1-3.8-6.6L-129.5,68.1z"/>
			<path fill="#FDB913" d="M-131.5,61.9l-2.1,4.1c-0.6-1.8-0.9-3.7-0.9-5.7c0-0.6,0-1.3,0.1-1.9L-131.5,61.9z"/>
		</g>
		<g opacity="0.6">
			<path fill="#0077BE" d="M-14.2,38.8l-7.8,0.3c2.9-3.2,6.5-5.8,10.5-7.6L-14.2,38.8z"/>
			<path fill="#0077BE" d="M-4.1,34.3l-7.2-2.9c3.9-1.7,8.2-2.7,12.7-2.7L-4.1,34.3z"/>
			<path fill="#0077BE" d="M1.5,28.8c4.5,0,8.8,1,12.7,2.7l-7.2,2.9L1.5,28.8z"/>
			<path fill="#0077BE" d="M-22.1,39.3l0.5,7.8l-7,3.5C-27.2,46.3-24.9,42.5-22.1,39.3"/>
			<path fill="#0077BE" d="M17,38.8l-2.7-7.3c4,1.8,7.6,4.4,10.5,7.6L17,38.8z"/>
			<path fill="#CD1543" d="M-28.6,50.6l3.6,6.9l-5,6c-0.1-1.1-0.2-2.1-0.2-3.2C-30.1,56.9-29.6,53.6-28.6,50.6"/>
			<path fill="#CD1543" d="M-25.9,76c-2.1-3.7-3.5-7.9-4-12.4l6.1,4.8L-25.9,76z"/>
			<path fill="#CD1543" d="M-17.1,85.8l7.7-1.3l4.2,6.6C-9.6,90.2-13.6,88.3-17.1,85.8"/>
			<path fill="#CD1543" d="M8,91.1l4.2-6.6l7.7,1.3C16.4,88.3,12.4,90.2,8,91.1"/>
			<path fill="#CD1543" d="M21.1,78l7.6-1.9c-2.2,3.8-5.2,7.1-8.7,9.7L21.1,78z"/>
			<path fill="#CD1543" d="M-18.3,78l1.1,7.7c-3.5-2.6-6.5-5.9-8.7-9.7L-18.3,78z"/>
			<path fill="#CD1543" d="M1.4,86.8l6.5,4.3c-2.1,0.4-4.3,0.7-6.5,0.7c-2.2,0-4.4-0.2-6.5-0.7L1.4,86.8z"/>
			<path fill="#CD1543" d="M28.7,76l-2.1-7.5l6.1-4.8C32.2,68.1,30.8,72.3,28.7,76"/>
			<path fill="#0077BE" d="M24.4,47l0.5-7.8c2.9,3.2,5.1,7,6.5,11.2L24.4,47z"/>
			<path fill="#CD1543" d="M27.8,57.5l3.6-6.9c1,3.1,1.5,6.3,1.5,9.7c0,1.1-0.1,2.2-0.2,3.2L27.8,57.5z"/>
			<path fill="#EB6724" d="M14.5,78.3L21,78c-2.4,2.7-5.4,4.9-8.8,6.4L14.5,78.3z"/>
			<path fill="#EB6724" d="M6,82l6.1,2.4c-3.3,1.4-6.9,2.3-10.7,2.3L6,82z"/>
			<path fill="#EB6724" d="M1.3,86.7c-3.8,0-7.4-0.8-10.7-2.3l6.1-2.4L1.3,86.7z"/>
			<path fill="#EB6724" d="M21.1,77.9l-0.4-6.5l5.9-2.9C25.4,72,23.5,75.2,21.1,77.9"/>
			<path fill="#EB6724" d="M-11.7,78.3l2.3,6.1c-3.4-1.5-6.4-3.7-8.8-6.4L-11.7,78.3z"/>
			<path fill="#EB6724" d="M26.5,68.4l-3-5.8l4.2-5c0.1,0.9,0.1,1.8,0.1,2.7C27.8,63.1,27.4,65.8,26.5,68.4"/>
			<path fill="#EB6724" d="M24.3,47.1c1.8,3.1,3,6.6,3.4,10.4l-5.1-4.1L24.3,47.1z"/>
			<path fill="#61AEE1" d="M16.9,38.9L10.4,40l-3.5-5.5C10.6,35.2,14,36.8,16.9,38.9"/>
			<path fill="#61AEE1" d="M-4.1,34.4L-7.7,40l-6.4-1.1C-11.2,36.8-7.8,35.2-4.1,34.4"/>
			<path fill="#61AEE1" d="M-15.1,45.4l-6.3,1.6c1.8-3.2,4.3-5.9,7.3-8.1L-15.1,45.4z"/>
			<path fill="#61AEE1" d="M17.9,45.4l-1-6.5c3,2.2,5.4,4.9,7.3,8.1L17.9,45.4z"/>
			<path fill="#61AEE1" d="M1.4,38l-5.5-3.6c1.8-0.4,3.6-0.6,5.5-0.6c1.9,0,3.7,0.2,5.5,0.6L1.4,38z"/>
			<path fill="#EB6724" d="M-21.5,47.1l1.8,6.3l-5.1,4.1C-24.5,53.7-23.3,50.2-21.5,47.1"/>
			<path fill="#EB6724" d="M-17.9,71.4l-0.4,6.5c-2.4-2.7-4.3-5.9-5.4-9.4L-17.9,71.4z"/>
			<path fill="#EB6724" d="M-20.7,62.6l-3,5.8c-0.8-2.6-1.3-5.3-1.3-8.1c0-0.9,0-1.8,0.1-2.7L-20.7,62.6z"/>
			<path fill="#BDCB26" d="M-9.6,45.2l-5.5,0.2c2.1-2.3,4.6-4.1,7.4-5.4L-9.6,45.2z"/>
			<path fill="#BDCB26" d="M-2.5,42l-5.1-2c2.7-1.2,5.8-1.9,8.9-1.9L-2.5,42z"/>
			<path fill="#BDCB26" d="M1.4,38.1c3.2,0,6.2,0.7,8.9,1.9l-5.1,2L1.4,38.1z"/>
			<path fill="#F7941E" d="M-15.1,45.5l0.3,5.5l-4.9,2.4C-18.7,50.4-17.1,47.8-15.1,45.5"/>
			<path fill="#BDCB26" d="M12.4,45.2l-1.9-5.1c2.8,1.3,5.3,3.1,7.4,5.4L12.4,45.2z"/>
			<path fill="#F7941E" d="M-19.7,53.5l2.5,4.9l-3.5,4.2c-0.1-0.7-0.1-1.5-0.1-2.3C-20.8,57.9-20.4,55.6-19.7,53.5"/>
			<path fill="#F7941E" d="M-17.8,71.3c-1.5-2.6-2.5-5.6-2.8-8.7l4.3,3.4L-17.8,71.3z"/>
			<path fill="#F7941E" d="M-11.6,78.2l5.4-0.9l2.9,4.6C-6.3,81.3-9.1,80-11.6,78.2"/>
			<path fill="#F7941E" d="M6,82L9,77.3l5.4,0.9C11.9,80,9.1,81.3,6,82"/>
			<path fill="#F7941E" d="M15.3,72.8l5.3-1.4c-1.5,2.7-3.6,5-6.1,6.8L15.3,72.8z"/>
			<path fill="#F7941E" d="M-12.5,72.8l0.8,5.4c-2.5-1.8-4.6-4.1-6.1-6.8L-12.5,72.8z"/>
			<path fill="#F7941E" d="M1.4,78.9L6,82c-1.5,0.3-3,0.5-4.6,0.5c-1.6,0-3.1-0.2-4.6-0.5L1.4,78.9z"/>
			<path fill="#F7941E" d="M20.6,71.3L19.1,66l4.3-3.4C23.1,65.8,22.1,68.7,20.6,71.3"/>
			<path fill="#F7941E" d="M17.5,51l0.3-5.5c2,2.3,3.6,4.9,4.6,7.9L17.5,51z"/>
			<path fill="#F7941E" d="M19.9,58.3l2.5-4.9c0.7,2.1,1.1,4.4,1.1,6.8c0,0.8,0,1.5-0.1,2.3L19.9,58.3z"/>
			<path fill="#FDB913" d="M10.6,72.9l4.6-0.2c-1.7,1.9-3.8,3.4-6.2,4.5L10.6,72.9z"/>
			<path fill="#FDB913" d="M4.6,75.6l4.3,1.7c-2.3,1-4.8,1.6-7.5,1.6L4.6,75.6z"/>
			<path fill="#FDB913" d="M1.4,78.8c-2.7,0-5.2-0.6-7.5-1.6l4.3-1.7L1.4,78.8z"/>
			<path fill="#FDB913" d="M15.2,72.7l-0.3-4.6l4.1-2C18.2,68.5,16.9,70.8,15.2,72.7"/>
			<path fill="#FDB913" d="M-7.8,72.9l1.6,4.3c-2.4-1.1-4.5-2.6-6.2-4.5L-7.8,72.9z"/>
			<path fill="#FDB913" d="M19.1,66l-2.1-4.1l2.9-3.5c0.1,0.6,0.1,1.3,0.1,1.9C20,62.3,19.6,64.2,19.1,66"/>
			<path fill="#FDB913" d="M17.5,51c1.3,2.2,2.1,4.6,2.4,7.3l-3.6-2.9L17.5,51z"/>
			<path fill="#BDCB26" d="M12.3,45.2L7.8,46l-2.5-3.9C7.9,42.7,10.2,43.8,12.3,45.2"/>
			<path fill="#BDCB26" d="M-2.5,42.1L-5,46l-4.5-0.8C-7.4,43.8-5.1,42.7-2.5,42.1"/>
			<path fill="#FDB913" d="M-10.2,49.8l-4.5,1.1c1.3-2.2,3-4.2,5.1-5.7L-10.2,49.8z"/>
			<path fill="#FDB913" d="M13,49.8l-0.7-4.5c2.1,1.5,3.8,3.5,5.1,5.7L13,49.8z"/>
			<path fill="#BDCB26" d="M1.4,44.7l-3.8-2.5c1.2-0.3,2.5-0.4,3.8-0.4c1.3,0,2.6,0.1,3.8,0.4L1.4,44.7z"/>
			<path fill="#FDB913" d="M-14.7,51l1.2,4.4l-3.6,2.9C-16.8,55.7-16,53.2-14.7,51"/>
			<path fill="#FDB913" d="M-12.1,68.1l-0.3,4.6c-1.7-1.9-3-4.1-3.8-6.6L-12.1,68.1z"/>
			<path fill="#FDB913" d="M-14.1,61.9l-2.1,4.1c-0.6-1.8-0.9-3.7-0.9-5.7c0-0.6,0-1.3,0.1-1.9L-14.1,61.9z"/>
		</g>
		<g opacity="0.6">
			<path fill="#0077BE" d="M-131.5-78.6l-7.8,0.3c2.9-3.2,6.5-5.8,10.5-7.6L-131.5-78.6z"/>
			<path fill="#0077BE" d="M-121.4-83.1l-7.2-2.9c3.9-1.7,8.2-2.7,12.7-2.7L-121.4-83.1z"/>
			<path fill="#0077BE" d="M-115.9-88.7c4.5,0,8.8,1,12.7,2.7l-7.2,2.9L-115.9-88.7z"/>
			<path fill="#0077BE" d="M-139.4-78.2l0.5,7.8l-7,3.5C-144.5-71.2-142.3-75-139.4-78.2"/>
			<path fill="#0077BE" d="M-100.3-78.6l-2.7-7.3c4,1.8,7.6,4.4,10.5,7.6L-100.3-78.6z"/>
			<path fill="#CD1543" d="M-145.9-66.9l3.6,6.9l-5,6c-0.1-1.1-0.2-2.1-0.2-3.2C-147.4-60.6-146.9-63.8-145.9-66.9"/>
			<path fill="#CD1543" d="M-143.2-41.5c-2.1-3.7-3.5-7.9-4-12.4l6.1,4.8L-143.2-41.5z"/>
			<path fill="#CD1543" d="M-134.4-31.7l7.7-1.3l4.2,6.6C-126.9-27.3-130.9-29.1-134.4-31.7"/>
			<path fill="#CD1543" d="M-109.3-26.4l4.2-6.6l7.7,1.3C-100.9-29.1-105-27.3-109.3-26.4"/>
			<path fill="#CD1543" d="M-96.2-39.4l7.6-1.9c-2.2,3.8-5.2,7.1-8.7,9.7L-96.2-39.4z"/>
			<path fill="#CD1543" d="M-135.6-39.4l1.1,7.7c-3.5-2.6-6.5-5.9-8.7-9.7L-135.6-39.4z"/>
			<path fill="#CD1543" d="M-115.9-30.7l6.5,4.3c-2.1,0.4-4.3,0.7-6.5,0.7c-2.2,0-4.4-0.2-6.5-0.7L-115.9-30.7z"/>
			<path fill="#CD1543" d="M-88.6-41.5l-2.1-7.5l6.1-4.8C-85.1-49.4-86.5-45.2-88.6-41.5"/>
			<path fill="#0077BE" d="M-93-70.4l0.5-7.8c2.9,3.2,5.1,7,6.5,11.2L-93-70.4z"/>
			<path fill="#CD1543" d="M-89.6-59.9l3.6-6.9c1,3.1,1.5,6.3,1.5,9.7c0,1.1-0.1,2.2-0.2,3.2L-89.6-59.9z"/>
			<path fill="#EB6724" d="M-102.9-39.2l6.5-0.3c-2.4,2.7-5.4,4.9-8.8,6.4L-102.9-39.2z"/>
			<path fill="#EB6724" d="M-111.3-35.4l6.1,2.4c-3.3,1.4-6.9,2.3-10.7,2.3L-111.3-35.4z"/>
			<path fill="#EB6724" d="M-116-30.7c-3.8,0-7.4-0.8-10.7-2.3l6.1-2.4L-116-30.7z"/>
			<path fill="#EB6724" d="M-96.3-39.5l-0.4-6.5l5.9-2.9C-92-45.4-93.8-42.2-96.3-39.5"/>
			<path fill="#EB6724" d="M-129-39.2l2.3,6.1c-3.4-1.5-6.4-3.7-8.8-6.4L-129-39.2z"/>
			<path fill="#EB6724" d="M-90.8-49l-3-5.8l4.2-5c0.1,0.9,0.1,1.8,0.1,2.7C-89.5-54.3-89.9-51.6-90.8-49"/>
			<path fill="#EB6724" d="M-93-70.3c1.8,3.1,3,6.6,3.4,10.4l-5.1-4.1L-93-70.3z"/>
			<path fill="#61AEE1" d="M-100.4-78.6l-6.4,1.1l-3.5-5.5C-106.7-82.2-103.4-80.7-100.4-78.6"/>
			<path fill="#61AEE1" d="M-121.5-83l-3.5,5.5l-6.4-1.1C-128.5-80.7-125.1-82.2-121.5-83"/>
			<path fill="#61AEE1" d="M-132.5-72.1l-6.3,1.6c1.8-3.2,4.3-5.9,7.3-8.1L-132.5-72.1z"/>
			<path fill="#61AEE1" d="M-99.4-72.1l-1-6.5c3,2.2,5.4,4.9,7.3,8.1L-99.4-72.1z"/>
			<path fill="#61AEE1" d="M-115.9-79.4l-5.5-3.6c1.8-0.4,3.6-0.6,5.5-0.6c1.9,0,3.7,0.2,5.5,0.6L-115.9-79.4z"/>
			<path fill="#EB6724" d="M-138.8-70.3l1.8,6.3l-5.1,4.1C-141.8-63.7-140.6-67.2-138.8-70.3"/>
			<path fill="#EB6724" d="M-135.2-46l-0.4,6.5c-2.4-2.7-4.3-5.9-5.4-9.4L-135.2-46z"/>
			<path fill="#EB6724" d="M-138.1-54.8l-3,5.8c-0.8-2.6-1.3-5.3-1.3-8.1c0-0.9,0-1.8,0.1-2.7L-138.1-54.8z"/>
			<path fill="#BDCB26" d="M-126.9-72.3l-5.5,0.2c2.1-2.3,4.6-4.1,7.4-5.4L-126.9-72.3z"/>
			<path fill="#BDCB26" d="M-119.8-75.4l-5.1-2c2.7-1.2,5.8-1.9,8.9-1.9L-119.8-75.4z"/>
			<path fill="#BDCB26" d="M-115.9-79.3c3.2,0,6.2,0.7,8.9,1.9l-5.1,2L-115.9-79.3z"/>
			<path fill="#F7941E" d="M-132.4-72l0.3,5.5l-4.9,2.4C-136-67-134.5-69.7-132.4-72"/>
			<path fill="#BDCB26" d="M-105-72.3l-1.9-5.1c2.8,1.3,5.3,3.1,7.4,5.4L-105-72.3z"/>
			<path fill="#F7941E" d="M-137-64l2.5,4.9l-3.5,4.2c-0.1-0.7-0.1-1.5-0.1-2.3C-138.1-59.6-137.7-61.8-137-64"/>
			<path fill="#F7941E" d="M-135.1-46.1c-1.5-2.6-2.5-5.6-2.8-8.7l4.3,3.4L-135.1-46.1z"/>
			<path fill="#F7941E" d="M-128.9-39.2l5.4-0.9l2.9,4.6C-123.6-36.2-126.5-37.4-128.9-39.2"/>
			<path fill="#F7941E" d="M-111.3-35.5l2.9-4.6l5.4,0.9C-105.4-37.4-108.2-36.2-111.3-35.5"/>
			<path fill="#F7941E" d="M-102.1-44.7l5.3-1.4c-1.5,2.7-3.6,5-6.1,6.8L-102.1-44.7z"/>
			<path fill="#F7941E" d="M-129.8-44.7l0.8,5.4c-2.5-1.8-4.6-4.1-6.1-6.8L-129.8-44.7z"/>
			<path fill="#F7941E" d="M-115.9-38.5l4.6,3c-1.5,0.3-3,0.5-4.6,0.5c-1.6,0-3.1-0.2-4.6-0.5L-115.9-38.5z"/>
			<path fill="#F7941E" d="M-96.7-46.1l-1.5-5.3l4.3-3.4C-94.2-51.7-95.2-48.7-96.7-46.1"/>
			<path fill="#F7941E" d="M-99.8-66.5l0.3-5.5c2,2.3,3.6,4.9,4.6,7.9L-99.8-66.5z"/>
			<path fill="#F7941E" d="M-97.4-59.1l2.5-4.9c0.7,2.1,1.1,4.4,1.1,6.8c0,0.8,0,1.5-0.1,2.3L-97.4-59.1z"/>
			<path fill="#FDB913" d="M-106.7-44.5l4.6-0.2c-1.7,1.9-3.8,3.4-6.2,4.5L-106.7-44.5z"/>
			<path fill="#FDB913" d="M-112.7-41.9l4.3,1.7c-2.3,1-4.8,1.6-7.5,1.6L-112.7-41.9z"/>
			<path fill="#FDB913" d="M-116-38.6c-2.7,0-5.2-0.6-7.5-1.6l4.3-1.7L-116-38.6z"/>
			<path fill="#FDB913" d="M-102.1-44.8l-0.3-4.6l4.1-2C-99.1-48.9-100.4-46.7-102.1-44.8"/>
			<path fill="#FDB913" d="M-125.1-44.5l1.6,4.3c-2.4-1.1-4.5-2.6-6.2-4.5L-125.1-44.5z"/>
			<path fill="#FDB913" d="M-98.3-51.5l-2.1-4.1l2.9-3.5c0.1,0.6,0.1,1.3,0.1,1.9C-97.4-55.2-97.7-53.3-98.3-51.5"/>
			<path fill="#FDB913" d="M-99.8-66.4c1.3,2.2,2.1,4.6,2.4,7.3l-3.6-2.9L-99.8-66.4z"/>
			<path fill="#BDCB26" d="M-105-72.2l-4.5,0.8l-2.5-3.9C-109.5-74.8-107.1-73.7-105-72.2"/>
			<path fill="#BDCB26" d="M-119.8-75.3l-2.5,3.9l-4.5-0.8C-124.8-73.7-122.4-74.8-119.8-75.3"/>
			<path fill="#FDB913" d="M-127.5-67.6l-4.5,1.1c1.3-2.2,3-4.2,5.1-5.7L-127.5-67.6z"/>
			<path fill="#FDB913" d="M-104.3-67.6l-0.7-4.5c2.1,1.5,3.8,3.5,5.1,5.7L-104.3-67.6z"/>
			<path fill="#BDCB26" d="M-115.9-72.8l-3.8-2.5c1.2-0.3,2.5-0.4,3.8-0.4c1.3,0,2.6,0.1,3.8,0.4L-115.9-72.8z"/>
			<path fill="#FDB913" d="M-132-66.4l1.2,4.4l-3.6,2.9C-134.1-61.8-133.3-64.2-132-66.4"/>
			<path fill="#FDB913" d="M-129.5-49.4l-0.3,4.6c-1.7-1.9-3-4.1-3.8-6.6L-129.5-49.4z"/>
			<path fill="#FDB913" d="M-131.5-55.5l-2.1,4.1c-0.6-1.8-0.9-3.7-0.9-5.7c0-0.6,0-1.3,0.1-1.9L-131.5-55.5z"/>
		</g>
		<g opacity="0.6">
			<path fill="#0077BE" d="M-14.2-78.6l-7.8,0.3c2.9-3.2,6.5-5.8,10.5-7.6L-14.2-78.6z"/>
			<path fill="#0077BE" d="M-4.1-83.1l-7.2-2.9c3.9-1.7,8.2-2.7,12.7-2.7L-4.1-83.1z"/>
			<path fill="#0077BE" d="M1.5-88.7c4.5,0,8.8,1,12.7,2.7l-7.2,2.9L1.5-88.7z"/>
			<path fill="#0077BE" d="M-22.1-78.2l0.5,7.8l-7,3.5C-27.2-71.2-24.9-75-22.1-78.2"/>
			<path fill="#0077BE" d="M17-78.6l-2.7-7.3c4,1.8,7.6,4.4,10.5,7.6L17-78.6z"/>
			<path fill="#CD1543" d="M-28.6-66.9l3.6,6.9l-5,6c-0.1-1.1-0.2-2.1-0.2-3.2C-30.1-60.6-29.6-63.8-28.6-66.9"/>
			<path fill="#CD1543" d="M-25.9-41.5c-2.1-3.7-3.5-7.9-4-12.4l6.1,4.8L-25.9-41.5z"/>
			<path fill="#CD1543" d="M-17.1-31.7l7.7-1.3l4.2,6.6C-9.6-27.3-13.6-29.1-17.1-31.7"/>
			<path fill="#CD1543" d="M8-26.4l4.2-6.6l7.7,1.3C16.4-29.1,12.4-27.3,8-26.4"/>
			<path fill="#CD1543" d="M21.1-39.4l7.6-1.9c-2.2,3.8-5.2,7.1-8.7,9.7L21.1-39.4z"/>
			<path fill="#CD1543" d="M-18.3-39.4l1.1,7.7c-3.5-2.6-6.5-5.9-8.7-9.7L-18.3-39.4z"/>
			<path fill="#CD1543" d="M1.4-30.7l6.5,4.3c-2.1,0.4-4.3,0.7-6.5,0.7c-2.2,0-4.4-0.2-6.5-0.7L1.4-30.7z"/>
			<path fill="#CD1543" d="M28.7-41.5L26.6-49l6.1-4.8C32.2-49.4,30.8-45.2,28.7-41.5"/>
			<path fill="#0077BE" d="M24.4-70.4l0.5-7.8c2.9,3.2,5.1,7,6.5,11.2L24.4-70.4z"/>
			<path fill="#CD1543" d="M27.8-59.9l3.6-6.9c1,3.1,1.5,6.3,1.5,9.7c0,1.1-0.1,2.2-0.2,3.2L27.8-59.9z"/>
			<path fill="#EB6724" d="M14.5-39.2l6.5-0.3c-2.4,2.7-5.4,4.9-8.8,6.4L14.5-39.2z"/>
			<path fill="#EB6724" d="M6-35.4l6.1,2.4c-3.3,1.4-6.9,2.3-10.7,2.3L6-35.4z"/>
			<path fill="#EB6724" d="M1.3-30.7c-3.8,0-7.4-0.8-10.7-2.3l6.1-2.4L1.3-30.7z"/>
			<path fill="#EB6724" d="M21.1-39.5L20.7-46l5.9-2.9C25.4-45.4,23.5-42.2,21.1-39.5"/>
			<path fill="#EB6724" d="M-11.7-39.2l2.3,6.1c-3.4-1.5-6.4-3.7-8.8-6.4L-11.7-39.2z"/>
			<path fill="#EB6724" d="M26.5-49l-3-5.8l4.2-5c0.1,0.9,0.1,1.8,0.1,2.7C27.8-54.3,27.4-51.6,26.5-49"/>
			<path fill="#EB6724" d="M24.3-70.3c1.8,3.1,3,6.6,3.4,10.4L22.6-64L24.3-70.3z"/>
			<path fill="#61AEE1" d="M16.9-78.6l-6.4,1.1L6.9-83C10.6-82.2,14-80.7,16.9-78.6"/>
			<path fill="#61AEE1" d="M-4.1-83l-3.5,5.5l-6.4-1.1C-11.2-80.7-7.8-82.2-4.1-83"/>
			<path fill="#61AEE1" d="M-15.1-72.1l-6.3,1.6c1.8-3.2,4.3-5.9,7.3-8.1L-15.1-72.1z"/>
			<path fill="#61AEE1" d="M17.9-72.1l-1-6.5c3,2.2,5.4,4.9,7.3,8.1L17.9-72.1z"/>
			<path fill="#61AEE1" d="M1.4-79.4L-4.1-83c1.8-0.4,3.6-0.6,5.5-0.6c1.9,0,3.7,0.2,5.5,0.6L1.4-79.4z"/>
			<path fill="#EB6724" d="M-21.5-70.3l1.8,6.3l-5.1,4.1C-24.5-63.7-23.3-67.2-21.5-70.3"/>
			<path fill="#EB6724" d="M-17.9-46l-0.4,6.5c-2.4-2.7-4.3-5.9-5.4-9.4L-17.9-46z"/>
			<path fill="#EB6724" d="M-20.7-54.8l-3,5.8c-0.8-2.6-1.3-5.3-1.3-8.1c0-0.9,0-1.8,0.1-2.7L-20.7-54.8z"/>
			<path fill="#BDCB26" d="M-9.6-72.3L-15-72c2.1-2.3,4.6-4.1,7.4-5.4L-9.6-72.3z"/>
			<path fill="#BDCB26" d="M-2.5-75.4l-5.1-2c2.7-1.2,5.8-1.9,8.9-1.9L-2.5-75.4z"/>
			<path fill="#BDCB26" d="M1.4-79.3c3.2,0,6.2,0.7,8.9,1.9l-5.1,2L1.4-79.3z"/>
			<path fill="#F7941E" d="M-15.1-72l0.3,5.5l-4.9,2.4C-18.7-67-17.1-69.7-15.1-72"/>
			<path fill="#BDCB26" d="M12.4-72.3l-1.9-5.1c2.8,1.3,5.3,3.1,7.4,5.4L12.4-72.3z"/>
			<path fill="#F7941E" d="M-19.7-64l2.5,4.9l-3.5,4.2c-0.1-0.7-0.1-1.5-0.1-2.3C-20.8-59.6-20.4-61.8-19.7-64"/>
			<path fill="#F7941E" d="M-17.8-46.1c-1.5-2.6-2.5-5.6-2.8-8.7l4.3,3.4L-17.8-46.1z"/>
			<path fill="#F7941E" d="M-11.6-39.2l5.4-0.9l2.9,4.6C-6.3-36.2-9.1-37.4-11.6-39.2"/>
			<path fill="#F7941E" d="M6-35.5L9-40.1l5.4,0.9C11.9-37.4,9.1-36.2,6-35.5"/>
			<path fill="#F7941E" d="M15.3-44.7l5.3-1.4c-1.5,2.7-3.6,5-6.1,6.8L15.3-44.7z"/>
			<path fill="#F7941E" d="M-12.5-44.7l0.8,5.4c-2.5-1.8-4.6-4.1-6.1-6.8L-12.5-44.7z"/>
			<path fill="#F7941E" d="M1.4-38.5l4.6,3C4.5-35.2,3-35,1.4-35c-1.6,0-3.1-0.2-4.6-0.5L1.4-38.5z"/>
			<path fill="#F7941E" d="M20.6-46.1l-1.5-5.3l4.3-3.4C23.1-51.7,22.1-48.7,20.6-46.1"/>
			<path fill="#F7941E" d="M17.5-66.5l0.3-5.5c2,2.3,3.6,4.9,4.6,7.9L17.5-66.5z"/>
			<path fill="#F7941E" d="M19.9-59.1l2.5-4.9c0.7,2.1,1.1,4.4,1.1,6.8c0,0.8,0,1.5-0.1,2.3L19.9-59.1z"/>
			<path fill="#FDB913" d="M10.6-44.5l4.6-0.2c-1.7,1.9-3.8,3.4-6.2,4.5L10.6-44.5z"/>
			<path fill="#FDB913" d="M4.6-41.9l4.3,1.7c-2.3,1-4.8,1.6-7.5,1.6L4.6-41.9z"/>
			<path fill="#FDB913" d="M1.4-38.6c-2.7,0-5.2-0.6-7.5-1.6l4.3-1.7L1.4-38.6z"/>
			<path fill="#FDB913" d="M15.2-44.8l-0.3-4.6l4.1-2C18.2-48.9,16.9-46.7,15.2-44.8"/>
			<path fill="#FDB913" d="M-7.8-44.5l1.6,4.3c-2.4-1.1-4.5-2.6-6.2-4.5L-7.8-44.5z"/>
			<path fill="#FDB913" d="M19.1-51.5l-2.1-4.1l2.9-3.5c0.1,0.6,0.1,1.3,0.1,1.9C20-55.2,19.6-53.3,19.1-51.5"/>
			<path fill="#FDB913" d="M17.5-66.4c1.3,2.2,2.1,4.6,2.4,7.3L16.3-62L17.5-66.4z"/>
			<path fill="#BDCB26" d="M12.3-72.2l-4.5,0.8l-2.5-3.9C7.9-74.8,10.2-73.7,12.3-72.2"/>
			<path fill="#BDCB26" d="M-2.5-75.3L-5-71.4l-4.5-0.8C-7.4-73.7-5.1-74.8-2.5-75.3"/>
			<path fill="#FDB913" d="M-10.2-67.6l-4.5,1.1c1.3-2.2,3-4.2,5.1-5.7L-10.2-67.6z"/>
			<path fill="#FDB913" d="M13-67.6l-0.7-4.5c2.1,1.5,3.8,3.5,5.1,5.7L13-67.6z"/>
			<path fill="#BDCB26" d="M1.4-72.8l-3.8-2.5c1.2-0.3,2.5-0.4,3.8-0.4c1.3,0,2.6,0.1,3.8,0.4L1.4-72.8z"/>
			<path fill="#FDB913" d="M-14.7-66.4l1.2,4.4l-3.6,2.9C-16.8-61.8-16-64.2-14.7-66.4"/>
			<path fill="#FDB913" d="M-12.1-49.4l-0.3,4.6c-1.7-1.9-3-4.1-3.8-6.6L-12.1-49.4z"/>
			<path fill="#FDB913" d="M-14.1-55.5l-2.1,4.1c-0.6-1.8-0.9-3.7-0.9-5.7c0-0.6,0-1.3,0.1-1.9L-14.1-55.5z"/>
		</g>
		<g opacity="0.6">
			<path fill="#0077BE" d="M103.1-78.6l-7.8,0.3c2.9-3.2,6.5-5.8,10.5-7.6L103.1-78.6z"/>
			<path fill="#0077BE" d="M113.2-83.1L106-86c3.9-1.7,8.2-2.7,12.7-2.7L113.2-83.1z"/>
			<path fill="#0077BE" d="M118.8-88.7c4.5,0,8.8,1,12.7,2.7l-7.2,2.9L118.8-88.7z"/>
			<path fill="#0077BE" d="M95.3-78.2l0.5,7.8l-7,3.5C90.1-71.2,92.4-75,95.3-78.2"/>
			<path fill="#0077BE" d="M134.3-78.6l-2.7-7.3c4,1.8,7.6,4.4,10.5,7.6L134.3-78.6z"/>
			<path fill="#CD1543" d="M88.7-66.9l3.6,6.9l-5,6c-0.1-1.1-0.2-2.1-0.2-3.2C87.2-60.6,87.8-63.8,88.7-66.9"/>
			<path fill="#CD1543" d="M91.4-41.5c-2.1-3.7-3.5-7.9-4-12.4l6.1,4.8L91.4-41.5z"/>
			<path fill="#CD1543" d="M100.3-31.7l7.7-1.3l4.2,6.6C107.8-27.3,103.7-29.1,100.3-31.7"/>
			<path fill="#CD1543" d="M125.3-26.4l4.2-6.6l7.7,1.3C133.7-29.1,129.7-27.3,125.3-26.4"/>
			<path fill="#CD1543" d="M138.4-39.4l7.6-1.9c-2.2,3.8-5.2,7.1-8.7,9.7L138.4-39.4z"/>
			<path fill="#CD1543" d="M99-39.4l1.1,7.7c-3.5-2.6-6.5-5.9-8.7-9.7L99-39.4z"/>
			<path fill="#CD1543" d="M118.7-30.7l6.5,4.3c-2.1,0.4-4.3,0.7-6.5,0.7c-2.2,0-4.4-0.2-6.5-0.7L118.7-30.7z"/>
			<path fill="#CD1543" d="M146-41.5l-2.1-7.5l6.1-4.8C149.6-49.4,148.2-45.2,146-41.5"/>
			<path fill="#0077BE" d="M141.7-70.4l0.5-7.8c2.9,3.2,5.1,7,6.5,11.2L141.7-70.4z"/>
			<path fill="#CD1543" d="M145.1-59.9l3.6-6.9c1,3.1,1.5,6.3,1.5,9.7c0,1.1-0.1,2.2-0.2,3.2L145.1-59.9z"/>
			<path fill="#EB6724" d="M131.8-39.2l6.5-0.3c-2.4,2.7-5.4,4.9-8.8,6.4L131.8-39.2z"/>
			<path fill="#EB6724" d="M123.3-35.4l6.1,2.4c-3.3,1.4-6.9,2.3-10.7,2.3L123.3-35.4z"/>
			<path fill="#EB6724" d="M118.7-30.7c-3.8,0-7.4-0.8-10.7-2.3l6.1-2.4L118.7-30.7z"/>
			<path fill="#EB6724" d="M138.4-39.5L138-46l5.9-2.9C142.7-45.4,140.8-42.2,138.4-39.5"/>
			<path fill="#EB6724" d="M105.6-39.2l2.3,6.1c-3.4-1.5-6.4-3.7-8.8-6.4L105.6-39.2z"/>
			<path fill="#EB6724" d="M143.9-49l-3-5.8l4.2-5c0.1,0.9,0.1,1.8,0.1,2.7C145.1-54.3,144.7-51.6,143.9-49"/>
			<path fill="#EB6724" d="M141.6-70.3c1.8,3.1,3,6.6,3.4,10.4l-5.1-4.1L141.6-70.3z"/>
			<path fill="#61AEE1" d="M134.2-78.6l-6.4,1.1l-3.5-5.5C127.9-82.2,131.3-80.7,134.2-78.6"/>
			<path fill="#61AEE1" d="M113.2-83l-3.5,5.5l-6.4-1.1C106.1-80.7,109.5-82.2,113.2-83"/>
			<path fill="#61AEE1" d="M102.2-72.1l-6.3,1.6c1.8-3.2,4.3-5.9,7.3-8.1L102.2-72.1z"/>
			<path fill="#61AEE1" d="M135.3-72.1l-1-6.5c3,2.2,5.4,4.9,7.3,8.1L135.3-72.1z"/>
			<path fill="#61AEE1" d="M118.7-79.4l-5.5-3.6c1.8-0.4,3.6-0.6,5.5-0.6c1.9,0,3.7,0.2,5.5,0.6L118.7-79.4z"/>
			<path fill="#EB6724" d="M95.8-70.3l1.8,6.3L92.4-60C92.8-63.7,94-67.2,95.8-70.3"/>
			<path fill="#EB6724" d="M99.5-46L99-39.5c-2.4-2.7-4.3-5.9-5.4-9.4L99.5-46z"/>
			<path fill="#EB6724" d="M96.6-54.8l-3,5.8c-0.8-2.6-1.3-5.3-1.3-8.1c0-0.9,0-1.8,0.1-2.7L96.6-54.8z"/>
			<path fill="#BDCB26" d="M107.8-72.3l-5.5,0.2c2.1-2.3,4.6-4.1,7.4-5.4L107.8-72.3z"/>
			<path fill="#BDCB26" d="M114.8-75.4l-5.1-2c2.7-1.2,5.8-1.9,8.9-1.9L114.8-75.4z"/>
			<path fill="#BDCB26" d="M118.8-79.3c3.2,0,6.2,0.7,8.9,1.9l-5.1,2L118.8-79.3z"/>
			<path fill="#F7941E" d="M102.2-72l0.3,5.5l-4.9,2.4C98.6-67,100.2-69.7,102.2-72"/>
			<path fill="#BDCB26" d="M129.7-72.3l-1.9-5.1c2.8,1.3,5.3,3.1,7.4,5.4L129.7-72.3z"/>
			<path fill="#F7941E" d="M97.6-64l2.5,4.9l-3.5,4.2c-0.1-0.7-0.1-1.5-0.1-2.3C96.6-59.6,96.9-61.8,97.6-64"/>
			<path fill="#F7941E" d="M99.5-46.1c-1.5-2.6-2.5-5.6-2.8-8.7l4.3,3.4L99.5-46.1z"/>
			<path fill="#F7941E" d="M105.7-39.2l5.4-0.9l2.9,4.6C111-36.2,108.2-37.4,105.7-39.2"/>
			<path fill="#F7941E" d="M123.4-35.5l2.9-4.6l5.4,0.9C129.3-37.4,126.4-36.2,123.4-35.5"/>
			<path fill="#F7941E" d="M132.6-44.7l5.3-1.4c-1.5,2.7-3.6,5-6.1,6.8L132.6-44.7z"/>
			<path fill="#F7941E" d="M104.9-44.7l0.8,5.4c-2.5-1.8-4.6-4.1-6.1-6.8L104.9-44.7z"/>
			<path fill="#F7941E" d="M118.7-38.5l4.6,3c-1.5,0.3-3,0.5-4.6,0.5c-1.6,0-3.1-0.2-4.6-0.5L118.7-38.5z"/>
			<path fill="#F7941E" d="M137.9-46.1l-1.5-5.3l4.3-3.4C140.4-51.7,139.4-48.7,137.9-46.1"/>
			<path fill="#F7941E" d="M134.9-66.5l0.3-5.5c2,2.3,3.6,4.9,4.6,7.9L134.9-66.5z"/>
			<path fill="#F7941E" d="M137.3-59.1l2.5-4.9c0.7,2.1,1.1,4.4,1.1,6.8c0,0.8,0,1.5-0.1,2.3L137.3-59.1z"/>
			<path fill="#FDB913" d="M127.9-44.5l4.6-0.2c-1.7,1.9-3.8,3.4-6.2,4.5L127.9-44.5z"/>
			<path fill="#FDB913" d="M122-41.9l4.3,1.7c-2.3,1-4.8,1.6-7.5,1.6L122-41.9z"/>
			<path fill="#FDB913" d="M118.7-38.6c-2.7,0-5.2-0.6-7.5-1.6l4.3-1.7L118.7-38.6z"/>
			<path fill="#FDB913" d="M132.5-44.8l-0.3-4.6l4.1-2C135.6-48.9,134.2-46.7,132.5-44.8"/>
			<path fill="#FDB913" d="M109.5-44.5l1.6,4.3c-2.4-1.1-4.5-2.6-6.2-4.5L109.5-44.5z"/>
			<path fill="#FDB913" d="M136.4-51.5l-2.1-4.1l2.9-3.5c0.1,0.6,0.1,1.3,0.1,1.9C137.3-55.2,137-53.3,136.4-51.5"/>
			<path fill="#FDB913" d="M134.8-66.4c1.3,2.2,2.1,4.6,2.4,7.3l-3.6-2.9L134.8-66.4z"/>
			<path fill="#BDCB26" d="M129.6-72.2l-4.5,0.8l-2.5-3.9C125.2-74.8,127.6-73.7,129.6-72.2"/>
			<path fill="#BDCB26" d="M114.8-75.3l-2.5,3.9l-4.5-0.8C109.9-73.7,112.3-74.8,114.8-75.3"/>
			<path fill="#FDB913" d="M107.1-67.6l-4.5,1.1c1.3-2.2,3-4.2,5.1-5.7L107.1-67.6z"/>
			<path fill="#FDB913" d="M130.3-67.6l-0.7-4.5c2.1,1.5,3.8,3.5,5.1,5.7L130.3-67.6z"/>
			<path fill="#BDCB26" d="M118.7-72.8l-3.8-2.5c1.2-0.3,2.5-0.4,3.8-0.4c1.3,0,2.6,0.1,3.8,0.4L118.7-72.8z"/>
			<path fill="#FDB913" d="M102.6-66.4l1.2,4.4l-3.6,2.9C100.5-61.8,101.4-64.2,102.6-66.4"/>
			<path fill="#FDB913" d="M105.2-49.4l-0.3,4.6c-1.7-1.9-3-4.1-3.8-6.6L105.2-49.4z"/>
			<path fill="#FDB913" d="M103.2-55.5l-2.1,4.1c-0.6-1.8-0.9-3.7-0.9-5.7c0-0.6,0-1.3,0.1-1.9L103.2-55.5z"/>
		</g>
		<g>
			<path fill="#5AC7E0" d="M154.7,12.6H84.1c-8.2,0-15,6.8-15,15v64.8c0,8.2,6.8,15,15,15h70.7c8.2,0,15-6.8,15-15V27.6
				C169.7,19.4,163,12.6,154.7,12.6z"/>
			<path fill="none" stroke="#BCBEC0" stroke-width="0.3949" stroke-miterlimit="10" d="M154.7,12.6H84.1c-8.2,0-15,6.8-15,15v64.8
				c0,8.2,6.8,15,15,15h70.7c8.2,0,15-6.8,15-15V27.6C169.7,19.4,163,12.6,154.7,12.6z"/>
		</g>
		<g>
			<defs>
				<path id="SVGID_1_" d="M154.7,12.6H84.1c-8.2,0-15,6.8-15,15v64.8c0,8.2,6.8,15,15,15h70.7c8.2,0,15-6.8,15-15V27.6
					C169.7,19.4,163,12.6,154.7,12.6z"/>
			</defs>
			<clipPath id="SVGID_2_">
				<use xlink:href="#SVGID_1_"  overflow="visible"/>
			</clipPath>
			<g clip-path="url(#SVGID_2_)">
				
					<use xlink:href="#New_Symbol"  width="112.7" height="98.5" id="XMLID_3_" x="-56.4" y="-49.2" transform="matrix(0.7189 0 0 0.7189 129.3082 56.659)" overflow="visible"/>
			</g>
		</g>
	</symbol>
</defs>
<g>
	<g opacity="0.2">
		<g>
			<defs>
				<path id="SVGID_3_" d="M326.5,127h-63.3c-8.3,0-15-6.8-15-15V54.2c0-8.2,6.8-15,15-15h63.3c8.2,0,15,6.8,15,15V112
					C341.5,120.3,334.8,127,326.5,127z"/>
			</defs>
			<clipPath id="SVGID_4_">
				<use xlink:href="#SVGID_3_"  overflow="visible"/>
			</clipPath>
		</g>
		<path d="M358.8,221c0,26.7-21.7,48.4-48.4,48.4H54.4C27.7,269.3,6,247.7,6,221V54.4C6,27.7,27.7,6,54.4,6h256.1
			c26.7,0,48.4,21.7,48.4,48.4V221z"/>
		<path d="M109.1,130.8H41.6c-7.6,0-13.9-6.3-13.9-13.9v-62c0-7.6,6.3-13.9,13.9-13.9h67.5c7.6,0,13.9,6.3,13.9,13.9v62
			C123,124.6,116.8,130.8,109.1,130.8z"/>
		<path fill="none" stroke="#000000" stroke-width="0.3741" stroke-miterlimit="10" d="M109.1,130.8H41.6c-7.6,0-13.9-6.3-13.9-13.9
			v-62c0-7.6,6.3-13.9,13.9-13.9h67.5c7.6,0,13.9,6.3,13.9,13.9v62C123,124.6,116.8,130.8,109.1,130.8z"/>
		<path d="M109.1,127.1H41.6c-7.6,0-13.9-6.3-13.9-13.9v-62c0-7.6,6.3-13.9,13.9-13.9h67.5c7.6,0,13.9,6.3,13.9,13.9v62
			C123,120.8,116.8,127.1,109.1,127.1z"/>
		<path fill="none" stroke="#000000" stroke-width="0.3741" stroke-miterlimit="10" d="M109.1,127.1H41.6c-7.6,0-13.9-6.3-13.9-13.9
			v-62c0-7.6,6.3-13.9,13.9-13.9h67.5c7.6,0,13.9,6.3,13.9,13.9v62C123,120.8,116.8,127.1,109.1,127.1z"/>
		<path d="M217.9,130.8h-67.5c-7.6,0-13.9-6.3-13.9-13.9v-62c0-7.6,6.3-13.9,13.9-13.9h67.5c7.6,0,13.9,6.3,13.9,13.9v62
			C231.8,124.6,225.6,130.8,217.9,130.8z"/>
		<path fill="none" stroke="#000000" stroke-width="0.3741" stroke-miterlimit="10" d="M217.9,130.8h-67.5
			c-7.6,0-13.9-6.3-13.9-13.9v-62c0-7.6,6.3-13.9,13.9-13.9h67.5c7.6,0,13.9,6.3,13.9,13.9v62C231.8,124.6,225.6,130.8,217.9,130.8z
			"/>
		<path d="M217.9,127.1h-67.5c-7.6,0-13.9-6.3-13.9-13.9v-62c0-7.6,6.3-13.9,13.9-13.9h67.5c7.6,0,13.9,6.3,13.9,13.9v62
			C231.8,120.8,225.6,127.1,217.9,127.1z"/>
		<path fill="none" stroke="#000000" stroke-width="0.3741" stroke-miterlimit="10" d="M217.9,127.1h-67.5
			c-7.6,0-13.9-6.3-13.9-13.9v-62c0-7.6,6.3-13.9,13.9-13.9h67.5c7.6,0,13.9,6.3,13.9,13.9v62C231.8,120.8,225.6,127.1,217.9,127.1z
			"/>
		<path d="M109.1,240.2H41.6c-7.6,0-13.9-6.3-13.9-13.9v-62c0-7.6,6.3-13.9,13.9-13.9h67.5c7.6,0,13.9,6.3,13.9,13.9v62
			C123,233.9,116.8,240.2,109.1,240.2z"/>
		<path fill="none" stroke="#000000" stroke-width="0.3741" stroke-miterlimit="10" d="M109.1,240.2H41.6c-7.6,0-13.9-6.3-13.9-13.9
			v-62c0-7.6,6.3-13.9,13.9-13.9h67.5c7.6,0,13.9,6.3,13.9,13.9v62C123,233.9,116.8,240.2,109.1,240.2z"/>
		<path d="M109.1,236.5H41.6c-7.6,0-13.9-6.3-13.9-13.9v-62c0-7.6,6.3-13.9,13.9-13.9h67.5c7.6,0,13.9,6.3,13.9,13.9v62
			C123,230.2,116.8,236.5,109.1,236.5z"/>
		<path fill="none" stroke="#000000" stroke-width="0.3741" stroke-miterlimit="10" d="M109.1,236.5H41.6c-7.6,0-13.9-6.3-13.9-13.9
			v-62c0-7.6,6.3-13.9,13.9-13.9h67.5c7.6,0,13.9,6.3,13.9,13.9v62C123,230.2,116.8,236.5,109.1,236.5z"/>
		<path d="M217.9,240.2h-67.5c-7.6,0-13.9-6.3-13.9-13.9v-62c0-7.6,6.3-13.9,13.9-13.9h67.5c7.6,0,13.9,6.3,13.9,13.9v62
			C231.8,233.9,225.6,240.2,217.9,240.2z"/>
		<path fill="none" stroke="#000000" stroke-width="0.3741" stroke-miterlimit="10" d="M217.9,240.2h-67.5
			c-7.6,0-13.9-6.3-13.9-13.9v-62c0-7.6,6.3-13.9,13.9-13.9h67.5c7.6,0,13.9,6.3,13.9,13.9v62C231.8,233.9,225.6,240.2,217.9,240.2z
			"/>
		<path d="M217.9,236.5h-67.5c-7.6,0-13.9-6.3-13.9-13.9v-62c0-7.6,6.3-13.9,13.9-13.9h67.5c7.6,0,13.9,6.3,13.9,13.9v62
			C231.8,230.2,225.6,236.5,217.9,236.5z"/>
		<path fill="none" stroke="#000000" stroke-width="0.3741" stroke-miterlimit="10" d="M217.9,236.5h-67.5
			c-7.6,0-13.9-6.3-13.9-13.9v-62c0-7.6,6.3-13.9,13.9-13.9h67.5c7.6,0,13.9,6.3,13.9,13.9v62C231.8,230.2,225.6,236.5,217.9,236.5z
			"/>
		<path d="M326.8,240.2h-67.5c-7.6,0-13.9-6.3-13.9-13.9v-62c0-7.6,6.3-13.9,13.9-13.9h67.5c7.6,0,13.9,6.3,13.9,13.9v62
			C340.7,233.9,334.4,240.2,326.8,240.2z"/>
		<path fill="none" stroke="#000000" stroke-width="0.3741" stroke-miterlimit="10" d="M326.8,240.2h-67.5
			c-7.6,0-13.9-6.3-13.9-13.9v-62c0-7.6,6.3-13.9,13.9-13.9h67.5c7.6,0,13.9,6.3,13.9,13.9v62C340.7,233.9,334.4,240.2,326.8,240.2z
			"/>
		<path d="M326.8,236.5h-67.5c-7.6,0-13.9-6.3-13.9-13.9v-62c0-7.6,6.3-13.9,13.9-13.9h67.5c7.6,0,13.9,6.3,13.9,13.9v62
			C340.7,230.2,334.4,236.5,326.8,236.5z"/>
		<path fill="none" stroke="#000000" stroke-width="0.3741" stroke-miterlimit="10" d="M326.8,236.5h-67.5
			c-7.6,0-13.9-6.3-13.9-13.9v-62c0-7.6,6.3-13.9,13.9-13.9h67.5c7.6,0,13.9,6.3,13.9,13.9v62C340.7,230.2,334.4,236.5,326.8,236.5z
			"/>
		<path d="M62.3,102.8l-7.2-0.3c2.7,3,6,5.4,9.7,7.1L62.3,102.8z"/>
		<path d="M71.6,106.9l-6.7,2.7c3.6,1.6,7.6,2.5,11.8,2.5L71.6,106.9z"/>
		<path d="M76.8,112.1c4.2,0,8.2-0.9,11.8-2.5l-6.7-2.7L76.8,112.1z"/>
		<path d="M55,102.4l0.5-7.2l-6.5-3.2C50.2,95.8,52.3,99.4,55,102.4"/>
		<path d="M91.1,102.8l-2.5,6.8c3.7-1.7,7-4.1,9.7-7.1L91.1,102.8z"/>
		<path d="M48.9,91.8l3.4-6.4l-4.6-5.6c-0.1,1-0.2,2-0.2,3C47.5,86,48,89,48.9,91.8"/>
		<path d="M51.4,68.3c-2,3.4-3.3,7.3-3.7,11.5l5.7-4.5L51.4,68.3z"/>
		<path d="M59.6,59.2l7.1,1.2l3.9-6.1C66.5,55.2,62.8,56.9,59.6,59.2"/>
		<path d="M82.8,54.3l3.9,6.1l7.1-1.2C90.6,56.9,86.9,55.2,82.8,54.3"/>
		<path d="M95,66.4l7,1.8c-2-3.5-4.8-6.6-8.1-8.9L95,66.4z"/>
		<path d="M58.4,66.4l1.1-7.1c-3.3,2.4-6,5.4-8.1,8.9L58.4,66.4z"/>
		<path d="M76.7,58.3l6-4c-1.9-0.4-4-0.6-6-0.6c-2.1,0-4.1,0.2-6,0.6L76.7,58.3z"/>
		<path d="M102,68.3l-1.9,7l5.7,4.5C105.3,75.6,104,71.7,102,68.3"/>
		<path d="M98,95.2l0.5,7.2c2.7-3,4.7-6.5,6-10.4L98,95.2z"/>
		<path d="M101.1,85.4l3.4,6.4c0.9-2.8,1.4-5.8,1.4-9c0-1-0.1-2-0.2-3L101.1,85.4z"/>
		<path d="M88.8,66.2l6.1,0.3c-2.3-2.5-5-4.5-8.2-5.9L88.8,66.2z"/>
		<path d="M81,62.7l5.6-2.2c-3-1.3-6.4-2.1-9.9-2.1L81,62.7z"/>
		<path d="M76.6,58.4c-3.5,0-6.9,0.8-9.9,2.1l5.6,2.2L76.6,58.4z"/>
		<path d="M94.9,66.5l-0.4,6l5.4,2.7C98.9,72,97.2,69,94.9,66.5"/>
		<path d="M64.6,66.2l2.1-5.7c-3.1,1.4-5.9,3.4-8.2,5.9L64.6,66.2z"/>
		<path d="M100,75.3l-2.8,5.4l3.9,4.7c0.1-0.8,0.1-1.7,0.1-2.5C101.2,80.2,100.8,77.7,100,75.3"/>
		<path d="M97.9,95.1c1.7-2.9,2.8-6.1,3.1-9.6l-4.8,3.8L97.9,95.1z"/>
		<path d="M91.1,102.7l-6-1l-3.3,5.1C85.2,106.1,88.4,104.7,91.1,102.7"/>
		<path d="M71.6,106.8l-3.3-5.1l-6,1C65,104.7,68.2,106.1,71.6,106.8"/>
		<path d="M61.4,96.7l-5.9-1.5c1.7,2.9,4,5.5,6.8,7.5L61.4,96.7z"/>
		<path d="M92,96.7l-0.9,6c2.7-2,5-4.6,6.8-7.5L92,96.7z"/>
		<path d="M76.7,103.5l-5.1,3.4c1.6,0.3,3.3,0.5,5.1,0.5c1.7,0,3.4-0.2,5.1-0.5L76.7,103.5z"/>
		<path d="M55.5,95.1l1.6-5.8l-4.8-3.8C52.7,88.9,53.8,92.2,55.5,95.1"/>
		<path d="M58.8,72.5l-0.4-6c-2.2,2.5-4,5.5-5.1,8.7L58.8,72.5z"/>
		<path d="M56.2,80.7l-2.8-5.4c-0.8,2.4-1.2,4.9-1.2,7.5c0,0.8,0,1.7,0.1,2.5L56.2,80.7z"/>
		<path d="M66.5,96.9l-5.1-0.2c1.9,2.1,4.2,3.8,6.8,5L66.5,96.9z"/>
		<path d="M73.1,99.8l-4.7,1.9c2.5,1.1,5.3,1.8,8.3,1.8L73.1,99.8z"/>
		<path d="M76.7,103.4c2.9,0,5.7-0.6,8.3-1.8l-4.7-1.9L76.7,103.4z"/>
		<path d="M61.4,96.6l0.3-5.1l-4.6-2.3C58.1,92,59.5,94.5,61.4,96.6"/>
		<path d="M86.9,96.9l-1.8,4.8c2.6-1.2,4.9-2.9,6.8-5L86.9,96.9z"/>
		<path d="M57.1,89.2l2.4-4.5l-3.2-3.9c-0.1,0.7-0.1,1.4-0.1,2.1C56.2,85.1,56.5,87.2,57.1,89.2"/>
		<path d="M58.9,72.6c-1.4,2.4-2.3,5.1-2.6,8.1l4-3.2L58.9,72.6z"/>
		<path d="M64.7,66.2l5,0.8l2.7-4.3C69.6,63.4,66.9,64.6,64.7,66.2"/>
		<path d="M81,62.8l2.7,4.3l5-0.8C86.5,64.6,83.9,63.4,81,62.8"/>
		<path d="M89.6,71.3l4.9,1.3c-1.4-2.5-3.4-4.6-5.7-6.3L89.6,71.3z"/>
		<path d="M63.9,71.3l0.7-5c-2.3,1.7-4.2,3.8-5.7,6.3L63.9,71.3z"/>
		<path d="M76.7,65.6l4.2-2.8c-1.4-0.3-2.8-0.4-4.2-0.4c-1.5,0-2.9,0.2-4.2,0.4L76.7,65.6z"/>
		<path d="M94.5,72.6l-1.4,4.9l4,3.2C96.8,77.8,95.9,75,94.5,72.6"/>
		<path d="M91.7,91.5l0.3,5.1c1.9-2.1,3.3-4.6,4.2-7.3L91.7,91.5z"/>
		<path d="M93.9,84.7l2.4,4.5c0.6-2,1-4.1,1-6.3c0-0.7,0-1.4-0.1-2.1L93.9,84.7z"/>
		<path d="M85.2,71.1l4.3,0.2c-1.6-1.8-3.5-3.2-5.7-4.2L85.2,71.1z"/>
		<path d="M79.7,68.7l4-1.6c-2.1-0.9-4.5-1.5-6.9-1.5L79.7,68.7z"/>
		<path d="M76.7,65.7c-2.5,0-4.8,0.5-6.9,1.5l4,1.6L76.7,65.7z"/>
		<path d="M89.5,71.4l-0.3,4.2l3.8,1.9C92.3,75.2,91.1,73.1,89.5,71.4"/>
		<path d="M68.2,71.1l1.5-4c-2.2,1-4.1,2.4-5.7,4.2L68.2,71.1z"/>
		<path d="M93.1,77.6l-2,3.8l2.7,3.3c0.1-0.6,0.1-1.2,0.1-1.8C93.9,81,93.6,79.2,93.1,77.6"/>
		<path d="M91.6,91.4c1.2-2,1.9-4.3,2.2-6.7l-3.3,2.6L91.6,91.4z"/>
		<path d="M86.8,96.8l-4.2-0.7l-2.3,3.6C82.7,99.2,84.9,98.2,86.8,96.8"/>
		<path d="M73.1,99.7l-2.3-3.6l-4.2,0.7C68.5,98.2,70.7,99.2,73.1,99.7"/>
		<path d="M65.9,92.5l-4.1-1.1c1.2,2.1,2.8,3.9,4.7,5.3L65.9,92.5z"/>
		<path d="M87.5,92.5l-0.6,4.2c1.9-1.4,3.5-3.2,4.7-5.3L87.5,92.5z"/>
		<path d="M76.7,97.3l-3.5,2.4c1.1,0.2,2.3,0.4,3.5,0.4c1.2,0,2.4-0.1,3.5-0.4L76.7,97.3z"/>
		<path d="M61.8,91.4l1.1-4.1l-3.3-2.6C59.8,87.1,60.6,89.4,61.8,91.4"/>
		<path d="M64.2,75.6l-0.3-4.2c-1.6,1.8-2.8,3.8-3.5,6.1L64.2,75.6z"/>
		<path d="M62.3,81.3l-2-3.8c-0.5,1.7-0.8,3.4-0.8,5.3c0,0.6,0,1.2,0.1,1.8L62.3,81.3z"/>
		<path d="M171,102.8l-7.2-0.3c2.7,3,6,5.4,9.7,7.1L171,102.8z"/>
		<path d="M180.4,106.9l-6.7,2.7c3.6,1.6,7.6,2.5,11.8,2.5L180.4,106.9z"/>
		<path d="M185.5,112.1c4.2,0,8.2-0.9,11.8-2.5l-6.7-2.7L185.5,112.1z"/>
		<path d="M163.7,102.4l0.5-7.2l-6.5-3.2C159,95.8,161,99.4,163.7,102.4"/>
		<path d="M199.9,102.8l-2.5,6.8c3.7-1.7,7-4.1,9.7-7.1L199.9,102.8z"/>
		<path d="M157.7,91.8l3.4-6.4l-4.6-5.6c-0.1,1-0.2,2-0.2,3C156.3,86,156.8,89,157.7,91.8"/>
		<path d="M160.1,68.3c-2,3.4-3.3,7.3-3.7,11.5l5.7-4.5L160.1,68.3z"/>
		<path d="M168.3,59.2l7.1,1.2l3.9-6.1C175.3,55.2,171.6,56.9,168.3,59.2"/>
		<path d="M191.6,54.3l3.9,6.1l7.1-1.2C199.4,56.9,195.6,55.2,191.6,54.3"/>
		<path d="M203.7,66.4l7,1.8c-2-3.5-4.8-6.6-8.1-8.9L203.7,66.4z"/>
		<path d="M167.2,66.4l1.1-7.1c-3.3,2.4-6,5.4-8.1,8.9L167.2,66.4z"/>
		<path d="M185.5,58.3l6-4c-1.9-0.4-4-0.6-6-0.6c-2.1,0-4.1,0.2-6,0.6L185.5,58.3z"/>
		<path d="M210.8,68.3l-1.9,7l5.7,4.5C214.1,75.6,212.8,71.7,210.8,68.3"/>
		<path d="M206.8,95.2l0.5,7.2c2.7-3,4.7-6.5,6-10.4L206.8,95.2z"/>
		<path d="M209.9,85.4l3.4,6.4c0.9-2.8,1.4-5.8,1.4-9c0-1-0.1-2-0.2-3L209.9,85.4z"/>
		<path d="M197.6,66.2l6.1,0.3c-2.3-2.5-5-4.5-8.2-5.9L197.6,66.2z"/>
		<path d="M189.8,62.7l5.6-2.2c-3-1.3-6.4-2.1-9.9-2.1L189.8,62.7z"/>
		<path d="M185.4,58.4c-3.5,0-6.9,0.8-9.9,2.1l5.6,2.2L185.4,58.4z"/>
		<path d="M203.7,66.5l-0.4,6l5.4,2.7C207.7,72,205.9,69,203.7,66.5"/>
		<path d="M173.3,66.2l2.1-5.7c-3.1,1.4-5.9,3.4-8.2,5.9L173.3,66.2z"/>
		<path d="M208.8,75.3l-2.8,5.4l3.9,4.7c0.1-0.8,0.1-1.7,0.1-2.5C210,80.2,209.5,77.7,208.8,75.3"/>
		<path d="M206.7,95.1c1.7-2.9,2.8-6.1,3.1-9.6l-4.8,3.8L206.7,95.1z"/>
		<path d="M199.8,102.7l-6-1l-3.3,5.1C194,106.1,197.1,104.7,199.8,102.7"/>
		<path d="M180.3,106.8l-3.3-5.1l-6,1C173.8,104.7,176.9,106.1,180.3,106.8"/>
		<path d="M170.1,96.7l-5.9-1.5c1.7,2.9,4,5.5,6.8,7.5L170.1,96.7z"/>
		<path d="M200.8,96.7l-0.9,6c2.7-2,5-4.6,6.8-7.5L200.8,96.7z"/>
		<path d="M185.5,103.5l-5.1,3.4c1.6,0.3,3.3,0.5,5.1,0.5c1.7,0,3.4-0.2,5.1-0.5L185.5,103.5z"/>
		<path d="M164.2,95.1l1.6-5.8l-4.8-3.8C161.5,88.9,162.6,92.2,164.2,95.1"/>
		<path d="M167.6,72.5l-0.4-6c-2.2,2.5-4,5.5-5.1,8.7L167.6,72.5z"/>
		<path d="M165,80.7l-2.8-5.4c-0.8,2.4-1.2,4.9-1.2,7.5c0,0.8,0,1.7,0.1,2.5L165,80.7z"/>
		<path d="M175.3,96.9l-5.1-0.2c1.9,2.1,4.2,3.8,6.8,5L175.3,96.9z"/>
		<path d="M181.9,99.8l-4.7,1.9c2.5,1.1,5.3,1.8,8.3,1.8L181.9,99.8z"/>
		<path d="M185.5,103.4c2.9,0,5.7-0.6,8.3-1.8l-4.7-1.9L185.5,103.4z"/>
		<path d="M170.2,96.6l0.3-5.1l-4.6-2.3C166.8,92,168.3,94.5,170.2,96.6"/>
		<path d="M195.6,96.9l-1.8,4.8c2.6-1.2,4.9-2.9,6.8-5L195.6,96.9z"/>
		<path d="M165.9,89.2l2.4-4.5l-3.2-3.9c-0.1,0.7-0.1,1.4-0.1,2.1C164.9,85.1,165.3,87.2,165.9,89.2"/>
		<path d="M167.7,72.6c-1.4,2.4-2.3,5.1-2.6,8.1l4-3.2L167.7,72.6z"/>
		<path d="M173.4,66.2l5,0.8l2.7-4.3C178.3,63.4,175.7,64.6,173.4,66.2"/>
		<path d="M189.8,62.8l2.7,4.3l5-0.8C195.2,64.6,192.6,63.4,189.8,62.8"/>
		<path d="M198.3,71.3l4.9,1.3c-1.4-2.5-3.4-4.6-5.7-6.3L198.3,71.3z"/>
		<path d="M172.6,71.3l0.7-5c-2.3,1.7-4.2,3.8-5.7,6.3L172.6,71.3z"/>
		<path d="M185.5,65.6l4.2-2.8c-1.4-0.3-2.8-0.4-4.2-0.4c-1.5,0-2.9,0.2-4.2,0.4L185.5,65.6z"/>
		<path d="M203.3,72.6l-1.4,4.9l4,3.2C205.6,77.8,204.7,75,203.3,72.6"/>
		<path d="M200.4,91.5l0.3,5.1c1.9-2.1,3.3-4.6,4.2-7.3L200.4,91.5z"/>
		<path d="M202.7,84.7l2.4,4.5c0.6-2,1-4.1,1-6.3c0-0.7,0-1.4-0.1-2.1L202.7,84.7z"/>
		<path d="M194,71.1l4.3,0.2c-1.6-1.8-3.5-3.2-5.7-4.2L194,71.1z"/>
		<path d="M188.5,68.7l4-1.6c-2.1-0.9-4.5-1.5-6.9-1.5L188.5,68.7z"/>
		<path d="M185.4,65.7c-2.5,0-4.8,0.5-6.9,1.5l4,1.6L185.4,65.7z"/>
		<path d="M198.3,71.4l-0.3,4.2l3.8,1.9C201.1,75.2,199.9,73.1,198.3,71.4"/>
		<path d="M177,71.1l1.5-4c-2.2,1-4.1,2.4-5.7,4.2L177,71.1z"/>
		<path d="M201.8,77.6l-2,3.8l2.7,3.3c0.1-0.6,0.1-1.2,0.1-1.8C202.7,81,202.4,79.2,201.8,77.6"/>
		<path d="M200.4,91.4c1.2-2,1.9-4.3,2.2-6.7l-3.3,2.6L200.4,91.4z"/>
		<path d="M195.6,96.8l-4.2-0.7l-2.3,3.6C191.5,99.2,193.7,98.2,195.6,96.8"/>
		<path d="M181.9,99.7l-2.3-3.6l-4.2,0.7C177.3,98.2,179.5,99.2,181.9,99.7"/>
		<path d="M174.7,92.5l-4.1-1.1c1.2,2.1,2.8,3.9,4.7,5.3L174.7,92.5z"/>
		<path d="M196.2,92.5l-0.6,4.2c1.9-1.4,3.5-3.2,4.7-5.3L196.2,92.5z"/>
		<path d="M185.5,97.3l-3.5,2.4c1.1,0.2,2.3,0.4,3.5,0.4c1.2,0,2.4-0.1,3.5-0.4L185.5,97.3z"/>
		<path d="M170.5,91.4l1.1-4.1l-3.3-2.6C168.6,87.1,169.4,89.4,170.5,91.4"/>
		<path d="M172.9,75.6l-0.3-4.2c-1.6,1.8-2.8,3.8-3.5,6.1L172.9,75.6z"/>
		<path d="M171.1,81.3l-2-3.8c-0.5,1.7-0.8,3.4-0.8,5.3c0,0.6,0,1.2,0.1,1.8L171.1,81.3z"/>
		<path d="M62.3,211.6l-7.2-0.3c2.7,3,6,5.4,9.7,7.1L62.3,211.6z"/>
		<path d="M71.6,215.8l-6.7,2.7c3.6,1.6,7.6,2.5,11.8,2.5L71.6,215.8z"/>
		<path d="M76.8,221c4.2,0,8.2-0.9,11.8-2.5l-6.7-2.7L76.8,221z"/>
		<path d="M55,211.2l0.5-7.2l-6.5-3.2C50.2,204.7,52.3,208.3,55,211.2"/>
		<path d="M91.1,211.6l-2.5,6.8c3.7-1.7,7-4.1,9.7-7.1L91.1,211.6z"/>
		<path d="M48.9,200.7l3.4-6.4l-4.6-5.6c-0.1,1-0.2,2-0.2,3C47.5,194.9,48,197.9,48.9,200.7"/>
		<path d="M51.4,177.2c-2,3.4-3.3,7.3-3.7,11.5l5.7-4.5L51.4,177.2z"/>
		<path d="M59.6,168.1l7.1,1.2l3.9-6.1C66.5,164,62.8,165.7,59.6,168.1"/>
		<path d="M82.8,163.2l3.9,6.1l7.1-1.2C90.6,165.7,86.9,164,82.8,163.2"/>
		<path d="M95,175.3l7,1.8c-2-3.5-4.8-6.6-8.1-8.9L95,175.3z"/>
		<path d="M58.4,175.3l1.1-7.1c-3.3,2.4-6,5.4-8.1,8.9L58.4,175.3z"/>
		<path d="M76.7,167.2l6-4c-1.9-0.4-4-0.6-6-0.6c-2.1,0-4.1,0.2-6,0.6L76.7,167.2z"/>
		<path d="M102,177.2l-1.9,7l5.7,4.5C105.3,184.5,104,180.6,102,177.2"/>
		<path d="M98,204l0.5,7.2c2.7-3,4.7-6.5,6-10.4L98,204z"/>
		<path d="M101.1,194.3l3.4,6.4c0.9-2.8,1.4-5.8,1.4-9c0-1-0.1-2-0.2-3L101.1,194.3z"/>
		<path d="M88.8,175.1l6.1,0.3c-2.3-2.5-5-4.5-8.2-5.9L88.8,175.1z"/>
		<path d="M81,171.6l5.6-2.2c-3-1.3-6.4-2.1-9.9-2.1L81,171.6z"/>
		<path d="M76.6,167.2c-3.5,0-6.9,0.8-9.9,2.1l5.6,2.2L76.6,167.2z"/>
		<path d="M94.9,175.4l-0.4,6l5.4,2.7C98.9,180.9,97.2,177.9,94.9,175.4"/>
		<path d="M64.6,175.1l2.1-5.7c-3.1,1.4-5.9,3.4-8.2,5.9L64.6,175.1z"/>
		<path d="M100,184.2l-2.8,5.4l3.9,4.7c0.1-0.8,0.1-1.7,0.1-2.5C101.2,189.1,100.8,186.6,100,184.2"/>
		<path d="M97.9,204c1.7-2.9,2.8-6.1,3.1-9.6l-4.8,3.8L97.9,204z"/>
		<path d="M91.1,211.6l-6-1l-3.3,5.1C85.2,215,88.4,213.6,91.1,211.6"/>
		<path d="M71.6,215.7l-3.3-5.1l-6,1C65,213.6,68.2,215,71.6,215.7"/>
		<path d="M61.4,205.5l-5.9-1.5c1.7,2.9,4,5.5,6.8,7.5L61.4,205.5z"/>
		<path d="M92,205.5l-0.9,6c2.7-2,5-4.6,6.8-7.5L92,205.5z"/>
		<path d="M76.7,212.4l-5.1,3.4c1.6,0.3,3.3,0.5,5.1,0.5c1.7,0,3.4-0.2,5.1-0.5L76.7,212.4z"/>
		<path d="M55.5,204l1.6-5.8l-4.8-3.8C52.7,197.8,53.8,201.1,55.5,204"/>
		<path d="M58.8,181.4l-0.4-6c-2.2,2.5-4,5.5-5.1,8.7L58.8,181.4z"/>
		<path d="M56.2,189.6l-2.8-5.4c-0.8,2.4-1.2,4.9-1.2,7.5c0,0.8,0,1.7,0.1,2.5L56.2,189.6z"/>
		<path d="M66.5,205.7l-5.1-0.2c1.9,2.1,4.2,3.8,6.8,5L66.5,205.7z"/>
		<path d="M73.1,208.7l-4.7,1.9c2.5,1.1,5.3,1.8,8.3,1.8L73.1,208.7z"/>
		<path d="M76.7,212.3c2.9,0,5.7-0.6,8.3-1.8l-4.7-1.9L76.7,212.3z"/>
		<path d="M61.4,205.5l0.3-5.1l-4.6-2.3C58.1,200.9,59.5,203.4,61.4,205.5"/>
		<path d="M86.9,205.7l-1.8,4.8c2.6-1.2,4.9-2.9,6.8-5L86.9,205.7z"/>
		<path d="M57.1,198.1l2.4-4.5l-3.2-3.9c-0.1,0.7-0.1,1.4-0.1,2.1C56.2,194,56.5,196.1,57.1,198.1"/>
		<path d="M58.9,181.5c-1.4,2.4-2.3,5.1-2.6,8.1l4-3.2L58.9,181.5z"/>
		<path d="M64.7,175.1l5,0.8l2.7-4.3C69.6,172.3,66.9,173.5,64.7,175.1"/>
		<path d="M81,171.7l2.7,4.3l5-0.8C86.5,173.5,83.9,172.3,81,171.7"/>
		<path d="M89.6,180.2l4.9,1.3c-1.4-2.5-3.4-4.6-5.7-6.3L89.6,180.2z"/>
		<path d="M63.9,180.2l0.7-5c-2.3,1.7-4.2,3.8-5.7,6.3L63.9,180.2z"/>
		<path d="M76.7,174.5l4.2-2.8c-1.4-0.3-2.8-0.4-4.2-0.4c-1.5,0-2.9,0.2-4.2,0.4L76.7,174.5z"/>
		<path d="M94.5,181.5l-1.4,4.9l4,3.2C96.8,186.7,95.9,183.9,94.5,181.5"/>
		<path d="M91.7,200.4l0.3,5.1c1.9-2.1,3.3-4.6,4.2-7.3L91.7,200.4z"/>
		<path d="M93.9,193.6l2.4,4.5c0.6-2,1-4.1,1-6.3c0-0.7,0-1.4-0.1-2.1L93.9,193.6z"/>
		<path d="M85.2,180l4.3,0.2c-1.6-1.8-3.5-3.2-5.7-4.2L85.2,180z"/>
		<path d="M79.7,177.6l4-1.6c-2.1-0.9-4.5-1.5-6.9-1.5L79.7,177.6z"/>
		<path d="M76.7,174.5c-2.5,0-4.8,0.5-6.9,1.5l4,1.6L76.7,174.5z"/>
		<path d="M89.5,180.3l-0.3,4.2l3.8,1.9C92.3,184.1,91.1,182,89.5,180.3"/>
		<path d="M68.2,180l1.5-4c-2.2,1-4.1,2.4-5.7,4.2L68.2,180z"/>
		<path d="M93.1,186.5l-2,3.8l2.7,3.3c0.1-0.6,0.1-1.2,0.1-1.8C93.9,189.9,93.6,188.1,93.1,186.5"/>
		<path d="M91.6,200.3c1.2-2,1.9-4.3,2.2-6.7l-3.3,2.6L91.6,200.3z"/>
		<path d="M86.8,205.7l-4.2-0.7l-2.3,3.6C82.7,208.1,84.9,207.1,86.8,205.7"/>
		<path d="M73.1,208.6l-2.3-3.6l-4.2,0.7C68.5,207.1,70.7,208.1,73.1,208.6"/>
		<path d="M65.9,201.4l-4.1-1.1c1.2,2.1,2.8,3.9,4.7,5.3L65.9,201.4z"/>
		<path d="M87.5,201.4l-0.6,4.2c1.9-1.4,3.5-3.2,4.7-5.3L87.5,201.4z"/>
		<path d="M76.7,206.2l-3.5,2.4c1.1,0.2,2.3,0.4,3.5,0.4c1.2,0,2.4-0.1,3.5-0.4L76.7,206.2z"/>
		<path d="M61.8,200.3l1.1-4.1l-3.3-2.6C59.8,196,60.6,198.3,61.8,200.3"/>
		<path d="M64.2,184.5l-0.3-4.2c-1.6,1.8-2.8,3.8-3.5,6.1L64.2,184.5z"/>
		<path d="M62.3,190.2l-2-3.8c-0.5,1.7-0.8,3.4-0.8,5.3c0,0.6,0,1.2,0.1,1.8L62.3,190.2z"/>
		<path d="M171,211.6l-7.2-0.3c2.7,3,6,5.4,9.7,7.1L171,211.6z"/>
		<path d="M180.4,215.8l-6.7,2.7c3.6,1.6,7.6,2.5,11.8,2.5L180.4,215.8z"/>
		<path d="M185.5,221c4.2,0,8.2-0.9,11.8-2.5l-6.7-2.7L185.5,221z"/>
		<path d="M163.7,211.2l0.5-7.2l-6.5-3.2C159,204.7,161,208.3,163.7,211.2"/>
		<path d="M199.9,211.6l-2.5,6.8c3.7-1.7,7-4.1,9.7-7.1L199.9,211.6z"/>
		<path d="M157.7,200.7l3.4-6.4l-4.6-5.6c-0.1,1-0.2,2-0.2,3C156.3,194.9,156.8,197.9,157.7,200.7"/>
		<path d="M160.1,177.2c-2,3.4-3.3,7.3-3.7,11.5l5.7-4.5L160.1,177.2z"/>
		<path d="M168.3,168.1l7.1,1.2l3.9-6.1C175.3,164,171.6,165.7,168.3,168.1"/>
		<path d="M191.6,163.2l3.9,6.1l7.1-1.2C199.4,165.7,195.6,164,191.6,163.2"/>
		<path d="M203.7,175.3l7,1.8c-2-3.5-4.8-6.6-8.1-8.9L203.7,175.3z"/>
		<path d="M167.2,175.3l1.1-7.1c-3.3,2.4-6,5.4-8.1,8.9L167.2,175.3z"/>
		<path d="M185.5,167.2l6-4c-1.9-0.4-4-0.6-6-0.6c-2.1,0-4.1,0.2-6,0.6L185.5,167.2z"/>
		<path d="M210.8,177.2l-1.9,7l5.7,4.5C214.1,184.5,212.8,180.6,210.8,177.2"/>
		<path d="M206.8,204l0.5,7.2c2.7-3,4.7-6.5,6-10.4L206.8,204z"/>
		<path d="M209.9,194.3l3.4,6.4c0.9-2.8,1.4-5.8,1.4-9c0-1-0.1-2-0.2-3L209.9,194.3z"/>
		<path d="M197.6,175.1l6.1,0.3c-2.3-2.5-5-4.5-8.2-5.9L197.6,175.1z"/>
		<path d="M189.8,171.6l5.6-2.2c-3-1.3-6.4-2.1-9.9-2.1L189.8,171.6z"/>
		<path d="M185.4,167.2c-3.5,0-6.9,0.8-9.9,2.1l5.6,2.2L185.4,167.2z"/>
		<path d="M203.7,175.4l-0.4,6l5.4,2.7C207.7,180.9,205.9,177.9,203.7,175.4"/>
		<path d="M173.3,175.1l2.1-5.7c-3.1,1.4-5.9,3.4-8.2,5.9L173.3,175.1z"/>
		<path d="M208.8,184.2l-2.8,5.4l3.9,4.7c0.1-0.8,0.1-1.7,0.1-2.5C210,189.1,209.5,186.6,208.8,184.2"/>
		<path d="M206.7,204c1.7-2.9,2.8-6.1,3.1-9.6l-4.8,3.8L206.7,204z"/>
		<path d="M199.8,211.6l-6-1l-3.3,5.1C194,215,197.1,213.6,199.8,211.6"/>
		<path d="M180.3,215.7l-3.3-5.1l-6,1C173.8,213.6,176.9,215,180.3,215.7"/>
		<path d="M170.1,205.5l-5.9-1.5c1.7,2.9,4,5.5,6.8,7.5L170.1,205.5z"/>
		<path d="M200.8,205.5l-0.9,6c2.7-2,5-4.6,6.8-7.5L200.8,205.5z"/>
		<path d="M185.5,212.4l-5.1,3.4c1.6,0.3,3.3,0.5,5.1,0.5c1.7,0,3.4-0.2,5.1-0.5L185.5,212.4z"/>
		<path d="M164.2,204l1.6-5.8l-4.8-3.8C161.5,197.8,162.6,201.1,164.2,204"/>
		<path d="M167.6,181.4l-0.4-6c-2.2,2.5-4,5.5-5.1,8.7L167.6,181.4z"/>
		<path d="M165,189.6l-2.8-5.4c-0.8,2.4-1.2,4.9-1.2,7.5c0,0.8,0,1.7,0.1,2.5L165,189.6z"/>
		<path d="M175.3,205.7l-5.1-0.2c1.9,2.1,4.2,3.8,6.8,5L175.3,205.7z"/>
		<path d="M181.9,208.7l-4.7,1.9c2.5,1.1,5.3,1.8,8.3,1.8L181.9,208.7z"/>
		<path d="M185.5,212.3c2.9,0,5.7-0.6,8.3-1.8l-4.7-1.9L185.5,212.3z"/>
		<path d="M170.2,205.5l0.3-5.1l-4.6-2.3C166.8,200.9,168.3,203.4,170.2,205.5"/>
		<path d="M195.6,205.7l-1.8,4.8c2.6-1.2,4.9-2.9,6.8-5L195.6,205.7z"/>
		<path d="M165.9,198.1l2.4-4.5l-3.2-3.9c-0.1,0.7-0.1,1.4-0.1,2.1C164.9,194,165.3,196.1,165.9,198.1"/>
		<path d="M167.7,181.5c-1.4,2.4-2.3,5.1-2.6,8.1l4-3.2L167.7,181.5z"/>
		<path d="M173.4,175.1l5,0.8l2.7-4.3C178.3,172.3,175.7,173.5,173.4,175.1"/>
		<path d="M189.8,171.7l2.7,4.3l5-0.8C195.2,173.5,192.6,172.3,189.8,171.7"/>
		<path d="M198.3,180.2l4.9,1.3c-1.4-2.5-3.4-4.6-5.7-6.3L198.3,180.2z"/>
		<path d="M172.6,180.2l0.7-5c-2.3,1.7-4.2,3.8-5.7,6.3L172.6,180.2z"/>
		<path d="M185.5,174.5l4.2-2.8c-1.4-0.3-2.8-0.4-4.2-0.4c-1.5,0-2.9,0.2-4.2,0.4L185.5,174.5z"/>
		<path d="M203.3,181.5l-1.4,4.9l4,3.2C205.6,186.7,204.7,183.9,203.3,181.5"/>
		<path d="M200.4,200.4l0.3,5.1c1.9-2.1,3.3-4.6,4.2-7.3L200.4,200.4z"/>
		<path d="M202.7,193.6l2.4,4.5c0.6-2,1-4.1,1-6.3c0-0.7,0-1.4-0.1-2.1L202.7,193.6z"/>
		<path d="M194,180l4.3,0.2c-1.6-1.8-3.5-3.2-5.7-4.2L194,180z"/>
		<path d="M188.5,177.6l4-1.6c-2.1-0.9-4.5-1.5-6.9-1.5L188.5,177.6z"/>
		<path d="M185.4,174.5c-2.5,0-4.8,0.5-6.9,1.5l4,1.6L185.4,174.5z"/>
		<path d="M198.3,180.3l-0.3,4.2l3.8,1.9C201.1,184.1,199.9,182,198.3,180.3"/>
		<path d="M177,180l1.5-4c-2.2,1-4.1,2.4-5.7,4.2L177,180z"/>
		<path d="M201.8,186.5l-2,3.8l2.7,3.3c0.1-0.6,0.1-1.2,0.1-1.8C202.7,189.9,202.4,188.1,201.8,186.5"/>
		<path d="M200.4,200.3c1.2-2,1.9-4.3,2.2-6.7l-3.3,2.6L200.4,200.3z"/>
		<path d="M195.6,205.7l-4.2-0.7l-2.3,3.6C191.5,208.1,193.7,207.1,195.6,205.7"/>
		<path d="M181.9,208.6l-2.3-3.6l-4.2,0.7C177.3,207.1,179.5,208.1,181.9,208.6"/>
		<path d="M174.7,201.4l-4.1-1.1c1.2,2.1,2.8,3.9,4.7,5.3L174.7,201.4z"/>
		<path d="M196.2,201.4l-0.6,4.2c1.9-1.4,3.5-3.2,4.7-5.3L196.2,201.4z"/>
		<path d="M185.5,206.2l-3.5,2.4c1.1,0.2,2.3,0.4,3.5,0.4c1.2,0,2.4-0.1,3.5-0.4L185.5,206.2z"/>
		<path d="M170.5,200.3l1.1-4.1l-3.3-2.6C168.6,196,169.4,198.3,170.5,200.3"/>
		<path d="M172.9,184.5l-0.3-4.2c-1.6,1.8-2.8,3.8-3.5,6.1L172.9,184.5z"/>
		<path d="M171.1,190.2l-2-3.8c-0.5,1.7-0.8,3.4-0.8,5.3c0,0.6,0,1.2,0.1,1.8L171.1,190.2z"/>
		<path d="M279.8,211.6l-7.2-0.3c2.7,3,6,5.4,9.7,7.1L279.8,211.6z"/>
		<path d="M289.1,215.8l-6.7,2.7c3.6,1.6,7.6,2.5,11.8,2.5L289.1,215.8z"/>
		<path d="M294.3,221c4.2,0,8.2-0.9,11.8-2.5l-6.7-2.7L294.3,221z"/>
		<path d="M272.5,211.2l0.5-7.2l-6.5-3.2C267.7,204.7,269.8,208.3,272.5,211.2"/>
		<path d="M308.7,211.6l-2.5,6.8c3.7-1.7,7-4.1,9.7-7.1L308.7,211.6z"/>
		<path d="M266.4,200.7l3.4-6.4l-4.6-5.6c-0.1,1-0.2,2-0.2,3C265,194.9,265.5,197.9,266.4,200.7"/>
		<path d="M268.9,177.2c-2,3.4-3.3,7.3-3.7,11.5l5.7-4.5L268.9,177.2z"/>
		<path d="M277.1,168.1l7.1,1.2l3.9-6.1C284.1,164,280.3,165.7,277.1,168.1"/>
		<path d="M300.4,163.2l3.9,6.1l7.1-1.2C308.1,165.7,304.4,164,300.4,163.2"/>
		<path d="M312.5,175.3l7,1.8c-2-3.5-4.8-6.6-8.1-8.9L312.5,175.3z"/>
		<path d="M276,175.3l1.1-7.1c-3.3,2.4-6,5.4-8.1,8.9L276,175.3z"/>
		<path d="M294.2,167.2l6-4c-1.9-0.4-4-0.6-6-0.6c-2.1,0-4.1,0.2-6,0.6L294.2,167.2z"/>
		<path d="M319.6,177.2l-1.9,7l5.7,4.5C322.8,184.5,321.5,180.6,319.6,177.2"/>
		<path d="M315.5,204l0.5,7.2c2.7-3,4.7-6.5,6-10.4L315.5,204z"/>
		<path d="M318.7,194.3l3.4,6.4c0.9-2.8,1.4-5.8,1.4-9c0-1-0.1-2-0.2-3L318.7,194.3z"/>
		<path d="M306.3,175.1l6.1,0.3c-2.3-2.5-5-4.5-8.2-5.9L306.3,175.1z"/>
		<path d="M298.5,171.6l5.6-2.2c-3-1.3-6.4-2.1-9.9-2.1L298.5,171.6z"/>
		<path d="M294.2,167.2c-3.5,0-6.9,0.8-9.9,2.1l5.6,2.2L294.2,167.2z"/>
		<path d="M312.5,175.4l-0.4,6l5.4,2.7C316.5,180.9,314.7,177.9,312.5,175.4"/>
		<path d="M282.1,175.1l2.1-5.7c-3.1,1.4-5.9,3.4-8.2,5.9L282.1,175.1z"/>
		<path d="M317.5,184.2l-2.8,5.4l3.9,4.7c0.1-0.8,0.1-1.7,0.1-2.5C318.7,189.1,318.3,186.6,317.5,184.2"/>
		<path d="M315.5,204c1.7-2.9,2.8-6.1,3.1-9.6l-4.8,3.8L315.5,204z"/>
		<path d="M308.6,211.6l-6-1l-3.3,5.1C302.8,215,305.9,213.6,308.6,211.6"/>
		<path d="M289.1,215.7l-3.3-5.1l-6,1C282.6,213.6,285.7,215,289.1,215.7"/>
		<path d="M278.9,205.5L273,204c1.7,2.9,4,5.5,6.8,7.5L278.9,205.5z"/>
		<path d="M309.6,205.5l-0.9,6c2.7-2,5-4.6,6.8-7.5L309.6,205.5z"/>
		<path d="M294.2,212.4l-5.1,3.4c1.6,0.3,3.3,0.5,5.1,0.5c1.7,0,3.4-0.2,5.1-0.5L294.2,212.4z"/>
		<path d="M273,204l1.6-5.8l-4.8-3.8C270.2,197.8,271.3,201.1,273,204"/>
		<path d="M276.4,181.4l-0.4-6c-2.2,2.5-4,5.5-5.1,8.7L276.4,181.4z"/>
		<path d="M273.7,189.6l-2.8-5.4c-0.8,2.4-1.2,4.9-1.2,7.5c0,0.8,0,1.7,0.1,2.5L273.7,189.6z"/>
		<path d="M284.1,205.7l-5.1-0.2c1.9,2.1,4.2,3.8,6.8,5L284.1,205.7z"/>
		<path d="M290.6,208.7l-4.7,1.9c2.5,1.1,5.3,1.8,8.3,1.8L290.6,208.7z"/>
		<path d="M294.3,212.3c2.9,0,5.7-0.6,8.3-1.8l-4.7-1.9L294.3,212.3z"/>
		<path d="M278.9,205.5l0.3-5.1l-4.6-2.3C275.6,200.9,277.1,203.4,278.9,205.5"/>
		<path d="M304.4,205.7l-1.8,4.8c2.6-1.2,4.9-2.9,6.8-5L304.4,205.7z"/>
		<path d="M274.7,198.1l2.4-4.5l-3.2-3.9c-0.1,0.7-0.1,1.4-0.1,2.1C273.7,194,274,196.1,274.7,198.1"/>
		<path d="M276.4,181.5c-1.4,2.4-2.3,5.1-2.6,8.1l4-3.2L276.4,181.5z"/>
		<path d="M282.2,175.1l5,0.8l2.7-4.3C287.1,172.3,284.5,173.5,282.2,175.1"/>
		<path d="M298.5,171.7l2.7,4.3l5-0.8C304,173.5,301.4,172.3,298.5,171.7"/>
		<path d="M307.1,180.2l4.9,1.3c-1.4-2.5-3.4-4.6-5.7-6.3L307.1,180.2z"/>
		<path d="M281.4,180.2l0.7-5c-2.3,1.7-4.2,3.8-5.7,6.3L281.4,180.2z"/>
		<path d="M294.2,174.5l4.2-2.8c-1.4-0.3-2.8-0.4-4.2-0.4c-1.5,0-2.9,0.2-4.2,0.4L294.2,174.5z"/>
		<path d="M312,181.5l-1.4,4.9l4,3.2C314.3,186.7,313.4,183.9,312,181.5"/>
		<path d="M309.2,200.4l0.3,5.1c1.9-2.1,3.3-4.6,4.2-7.3L309.2,200.4z"/>
		<path d="M311.4,193.6l2.4,4.5c0.6-2,1-4.1,1-6.3c0-0.7,0-1.4-0.1-2.1L311.4,193.6z"/>
		<path d="M302.7,180l4.3,0.2c-1.6-1.8-3.5-3.2-5.7-4.2L302.7,180z"/>
		<path d="M297.2,177.6l4-1.6c-2.1-0.9-4.5-1.5-6.9-1.5L297.2,177.6z"/>
		<path d="M294.2,174.5c-2.5,0-4.8,0.5-6.9,1.5l4,1.6L294.2,174.5z"/>
		<path d="M307,180.3l-0.3,4.2l3.8,1.9C309.8,184.1,308.6,182,307,180.3"/>
		<path d="M285.7,180l1.5-4c-2.2,1-4.1,2.4-5.7,4.2L285.7,180z"/>
		<path d="M310.6,186.5l-2,3.8l2.7,3.3c0.1-0.6,0.1-1.2,0.1-1.8C311.4,189.9,311.1,188.1,310.6,186.5"/>
		<path d="M309.2,200.3c1.2-2,1.9-4.3,2.2-6.7l-3.3,2.6L309.2,200.3z"/>
		<path d="M304.3,205.7l-4.2-0.7l-2.3,3.6C300.2,208.1,302.4,207.1,304.3,205.7"/>
		<path d="M290.6,208.6l-2.3-3.6l-4.2,0.7C286,207.1,288.2,208.1,290.6,208.6"/>
		<path d="M283.5,201.4l-4.1-1.1c1.2,2.1,2.8,3.9,4.7,5.3L283.5,201.4z"/>
		<path d="M305,201.4l-0.6,4.2c1.9-1.4,3.5-3.2,4.7-5.3L305,201.4z"/>
		<path d="M294.2,206.2l-3.5,2.4c1.1,0.2,2.3,0.4,3.5,0.4c1.2,0,2.4-0.1,3.5-0.4L294.2,206.2z"/>
		<path d="M279.3,200.3l1.1-4.1l-3.3-2.6C277.4,196,278.1,198.3,279.3,200.3"/>
		<path d="M281.7,184.5l-0.3-4.2c-1.6,1.8-2.8,3.8-3.5,6.1L281.7,184.5z"/>
		<path d="M279.8,190.2l-2-3.8c-0.5,1.7-0.8,3.4-0.8,5.3c0,0.6,0,1.2,0.1,1.8L279.8,190.2z"/>
		<path d="M327.6,127h-65.5c-7.6,0-13.9-6.3-13.9-13.9V53.1c0-7.6,6.3-13.9,13.9-13.9h65.5c7.6,0,13.9,6.3,13.9,13.9v60.1
			C341.5,120.8,335.3,127,327.6,127z"/>
		<path fill="none" stroke="#000000" stroke-width="0.3661" stroke-miterlimit="10" d="M327.6,127h-65.5c-7.6,0-13.9-6.3-13.9-13.9
			V53.1c0-7.6,6.3-13.9,13.9-13.9h65.5c7.6,0,13.9,6.3,13.9,13.9v60.1C341.5,120.8,335.3,127,327.6,127z"/>
		<g>
			<defs>
				<path id="SVGID_5_" d="M326.5,127h-63.3c-8.3,0-15-6.8-15-15V54.2c0-8.2,6.8-15,15-15h63.3c8.2,0,15,6.8,15,15V112
					C341.5,120.3,334.8,127,326.5,127z"/>
			</defs>
			<clipPath id="SVGID_6_">
				<use xlink:href="#SVGID_5_"  overflow="visible"/>
			</clipPath>
			<path clip-path="url(#SVGID_6_)" d="M269.4,76.5c-0.6-2.3-0.8-13.8-0.5-16c0.9-5.9,1.8-0.2,1.9,2.7c0.1,2.9,0,5.7-0.2,9.2
				C270.5,74.1,269.9,78.9,269.4,76.5z"/>
			<path clip-path="url(#SVGID_6_)" d="M269.4,79.8c-0.6,2.3-0.8,13.8-0.5,16c0.9,5.9,1.8,0.2,1.9-2.7c0.1-2.9,0-5.7-0.2-9.2
				C270.5,82.3,269.9,77.5,269.4,79.8z"/>
			
				<rect x="275" y="96.2" transform="matrix(0.3053 0.9523 -0.9523 0.3053 292.5394 -206.9121)" clip-path="url(#SVGID_6_)" width="26.1" height="1.6"/>
			
				<rect x="295.2" y="84" transform="matrix(0.9523 0.3051 -0.3051 0.9523 43.7136 -85.6905)" clip-path="url(#SVGID_6_)" width="1.6" height="26.1"/>
			<ellipse clip-path="url(#SVGID_6_)" cx="271.1" cy="78.2" rx="4.6" ry="3.2"/>
			<path clip-path="url(#SVGID_6_)" d="M341.6,68.5L328.9,67c0,0-2.3,3.6-7.5,3.5c-4.3-0.1-7.7-4.6-7.7-4.6s-31.2-0.1-40.7,0
				c-1.2,0-1.7,0.9-1.7,1.1v16.1c0,0,8.8,8.9,24.4,9.2c12.8,0.2,30.3-0.7,46-1.9"/>
			<circle clip-path="url(#SVGID_6_)" cx="292.1" cy="109.5" r="9.5"/>
			<circle clip-path="url(#SVGID_6_)" cx="292.1" cy="109.5" r="7.4"/>
			<circle clip-path="url(#SVGID_6_)" cx="292.1" cy="109.5" r="1"/>
			<path clip-path="url(#SVGID_6_)" d="M284.1,74.4C284.1,74.4,284,74.4,284.1,74.4c-0.5,0-0.8-0.4-0.8-0.9l1.7-18
				c0-0.4,0.4-0.8,0.9-0.7c0.4,0,0.8,0.4,0.7,0.9l-1.7,18C284.8,74,284.5,74.4,284.1,74.4z"/>
			<path clip-path="url(#SVGID_6_)" d="M296.3,74.7c0,0-0.1,0-0.1,0c-0.4-0.1-0.7-0.5-0.7-0.9l2.7-17.6c0.1-0.4,0.5-0.7,0.9-0.7
				c0.4,0.1,0.7,0.5,0.7,0.9L297.1,74C297.1,74.4,296.7,74.7,296.3,74.7z"/>
			
				<rect x="274.3" y="72.5" transform="matrix(0.3602 0.9329 -0.9329 0.3602 256.2081 -226.4719)" clip-path="url(#SVGID_6_)" width="37.9" height="2"/>
			
				<rect x="289.7" y="72.5" transform="matrix(0.3602 0.9329 -0.9329 0.3602 266.0921 -240.884)" clip-path="url(#SVGID_6_)" width="37.9" height="2"/>
			
				<rect x="282.8" y="72.5" transform="matrix(4.704867e-02 0.9989 -0.9989 4.704867e-02 360.1954 -230.4833)" clip-path="url(#SVGID_6_)" width="36.2" height="2"/>
			<path clip-path="url(#SVGID_6_)" d="M283.6,54c-3.8,1.5-1.9,2.4,1.2,2.7c3.1,0.2,18.3,0.4,22.2,0.1c3.4-0.3,9-0.4,2.5-1.5
				C300.7,53.7,286.5,52.8,283.6,54z"/>
			<path clip-path="url(#SVGID_6_)" d="M297.7,90.3c-3.3,1.2-1.7,2,1.1,2.2c2.8,0.2,16.2,0.4,19.7,0.1c3-0.3,7.9-0.4,2.2-1.2
				C312.8,90,300.2,89.3,297.7,90.3z"/>
		</g>
		<path d="M358.8,134.2c0,26.7-21.7,48.4-48.4,48.4H54.4C27.7,182.5,6,160.9,6,134.2V221c0,26.7,21.7,48.4,48.4,48.4h256.1
			c26.7,0,48.4-21.7,48.4-48.4V134.2z"/>
		<g>
			<defs>
				<path id="SVGID_7_" d="M326.5,127h-63.3c-8.3,0-15-6.8-15-15V54.2c0-8.2,6.8-15,15-15h63.3c8.2,0,15,6.8,15,15V112
					C341.5,120.3,334.8,127,326.5,127z"/>
			</defs>
			<clipPath id="SVGID_8_">
				<use xlink:href="#SVGID_7_"  overflow="visible"/>
			</clipPath>
		</g>
	</g>
	<g>
		<g>
			<g>
				<g id="XMLID_31_">
					<g>
						<defs>
							<path id="SVGID_9_" d="M320.5,121h-63.3c-8.3,0-15-6.8-15-15V48.2c0-8.2,6.8-15,15-15h63.3c8.2,0,15,6.8,15,15V106
								C335.5,114.3,328.8,121,320.5,121z"/>
						</defs>
						<clipPath id="SVGID_10_">
							<use xlink:href="#SVGID_9_"  overflow="visible"/>
						</clipPath>
					</g>
				</g>
			</g>
		</g>
		<g>
			<g>
				<path fill="#4F4F10" d="M352.8,215c0,26.7-21.7,48.4-48.4,48.4H48.4C21.7,263.3,0,241.7,0,215V48.4C0,21.7,21.7,0,48.4,0h256.1
					c26.7,0,48.4,21.7,48.4,48.4V215z"/>
				
					<use xlink:href="#New_Symbol_2"  width="339" height="219.3" id="XMLID_30_" x="-169" y="-109.6" transform="matrix(0.927 0 0 -0.927 178.171 132.7457)" overflow="visible"/>
				<path fill="#BDCB26" d="M352.8,128.2c0,26.7-21.7,48.4-48.4,48.4H48.4C21.7,176.5,0,154.9,0,128.2V215
					c0,26.7,21.7,48.4,48.4,48.4h256.1c26.7,0,48.4-21.7,48.4-48.4V128.2z"/>
			</g>
		</g>
		<g>
			<g>
				<g id="XMLID_28_">
					<g>
						<defs>
							<path id="SVGID_11_" d="M320.5,121h-63.3c-8.3,0-15-6.8-15-15V48.2c0-8.2,6.8-15,15-15h63.3c8.2,0,15,6.8,15,15V106
								C335.5,114.3,328.8,121,320.5,121z"/>
						</defs>
						<clipPath id="SVGID_12_">
							<use xlink:href="#SVGID_11_"  overflow="visible"/>
						</clipPath>
					</g>
				</g>
			</g>
		</g>
	</g>
</g>
<g>
	<g opacity="0.4">
		<rect x="4.6" y="202.6" fill="none" width="351.1" height="61.4"/>
		
			<text transform="matrix(1 0 0 1 91.7628 243.626)" fill="#5F8989" font-family="'OstrichSans-Black'" font-size="55.6222" letter-spacing="4">memory</text>
	</g>
	<g>
		<rect x="1.8" y="199.9" fill="none" width="351.1" height="61.4"/>
		
			<text transform="matrix(1 0 0 1 88.9817 240.8449)" fill="#FFFFFF" font-family="'OstrichSans-Black'" font-size="55.6222" letter-spacing="4">memory</text>
	</g>
</g>
</svg>
