<!-- Generator: Adobe Illustrator 18.1.1, SVG Export Plug-In  -->
<svg version="1.1"
	 xmlns="http://www.w3.org/2000/svg" xmlns:xlink="http://www.w3.org/1999/xlink" xmlns:a="http://ns.adobe.com/AdobeSVGViewerExtensions/3.0/"
	 x="0px" y="0px" width="166.2px" height="179.8px" viewBox="0 0 166.2 179.8" enable-background="new 0 0 166.2 179.8"
	 xml:space="preserve">
<defs>
</defs>
<g>
	<path fill="#F1F2F2" d="M24.7,90.3L0,49.6l5.2-3.2L26.8,82l12.5-7.6l3.2,5.2L24.7,90.3z"/>
	<path fill="#F1F2F2" d="M29.2,39.1l7.6,12.5l11.7-7.1l3.2,5.2l-11.7,7.1l7.6,12.6l11.7-7.1l3.2,5.2L45.5,77.8L20.8,37l16.9-10.2
		l3.2,5.2L29.2,39.1z"/>
	<path fill="#F1F2F2" d="M68.7,15.1l-8.9,5.4L81.3,56L76,59.2L54.5,23.7l-8.9,5.4l-3.2-5.2l23-14L68.7,15.1z"/>
	<path fill="#F1F2F2" d="M103.5,42.5c-3.2,2-6.3,2.4-9.3,1.3c-2.8-1-5.3-3.3-7.5-7l-1.6-2.6l5.2-3.2l1.6,2.6
		c1.5,2.4,2.9,3.9,4.4,4.4c0.3,0.1,0.8,0.2,1.5,0.2c0.6,0,1.5-0.3,2.5-1c1-0.6,1.7-1.3,2-2.1c0.3-0.8,0.5-1.6,0.4-2.4
		c-0.1-0.8-0.3-1.6-0.6-2.4c-0.3-0.8-0.7-1.4-1-2c-0.6-1-1.2-1.7-1.9-2.2c-0.7-0.5-1.4-0.8-2.2-1c-0.8-0.2-1.5-0.2-2.3-0.2
		c-0.8,0-1.5,0.1-2.3,0.2l-1.3,0.2c-0.7,0.1-1.7,0.2-2.9,0.3c-1.2,0.1-2.5,0-3.9-0.3c-3.5-0.8-6.3-2.9-8.3-6.2
		c-1.1-1.7-1.8-3.5-2.2-5.2c-0.4-1.7-0.5-3.3-0.2-4.9c0.3-1.5,0.8-3,1.7-4.3s2-2.4,3.4-3.3c2-1.2,3.8-1.8,5.4-1.8
		C85.7,0,87,0.2,88,0.6c2.8,1.1,5.3,3.4,7.5,7l1.6,2.6l-5.2,3.2l-1.6-2.6c-1-1.6-1.9-2.7-2.7-3.4s-1.6-1.1-2.3-1.2
		c-0.7-0.1-1.4,0-1.9,0.2c-0.6,0.2-1,0.5-1.4,0.7c-1.1,0.6-1.7,1.4-2,2.3c-0.3,0.9-0.4,1.8-0.2,2.7c0.1,0.9,0.4,1.7,0.7,2.5
		c0.4,0.8,0.7,1.3,0.9,1.7c0.6,1,1.2,1.7,1.9,2.2c0.7,0.5,1.5,0.9,2.2,1.1c0.8,0.2,1.6,0.3,2.4,0.3c0.8,0,1.6-0.1,2.5-0.2l1.1-0.1
		c0.6-0.1,1.6-0.2,2.7-0.3c1.2-0.1,2.4,0,3.8,0.3c3.6,0.7,6.3,2.7,8.4,6c1.9,3.1,2.7,6.2,2.4,9.2C108.3,38,106.6,40.6,103.5,42.5z"
		/>
	<path fill="#F1F2F2" d="M103.5,177.2c-2.9,1.7-5.4,2.6-7.8,2.6c-2.3,0-4.2-0.3-5.7-0.8c-4-1.4-7.7-4.8-10.9-10.2l-15.6-25.7
		c-3.2-5.3-4.6-10.1-4-14.4c0.6-4.5,3.2-8.2,7.9-11.1c4.7-2.9,9.3-3.5,13.5-1.9c4,1.5,7.7,4.8,10.9,10.2l2.3,3.8l-7.7,4.7l-2.3-3.8
		c-1.3-2.2-2.5-3.7-3.7-4.7c-1.1-1-2.2-1.6-3.2-1.9c-1-0.2-1.9-0.2-2.8,0.1c-0.9,0.3-1.7,0.7-2.5,1.2c-0.8,0.5-1.6,1.1-2.2,1.7
		c-0.7,0.6-1.1,1.5-1.4,2.4c-0.2,1-0.2,2.2,0.2,3.7c0.4,1.5,1.2,3.3,2.5,5.4l15.6,25.7c1.4,2.4,2.8,4,4,5c1.2,1,2.4,1.6,3.4,1.7
		c1,0.1,2,0,2.8-0.3c0.8-0.3,1.5-0.7,2.1-1c0.6-0.4,1.2-0.8,1.9-1.4c0.7-0.6,1.2-1.3,1.5-2.3c0.3-1,0.3-2.2,0-3.8
		c-0.3-1.5-1.2-3.5-2.6-5.9l-2.7-4.5l-9.2,5.6l-4.7-7.7l16.9-10.2l7.4,12.2c3.2,5.3,4.6,10.1,4,14.4c-0.2,1.6-0.8,3.4-1.9,5.5
		C108.4,173.5,106.4,175.4,103.5,177.2z"/>
	<path fill="#F1F2F2" d="M138.4,155.9c-2.9,1.7-5.5,2.6-7.8,2.6c-2.3,0-4.3-0.2-5.8-0.8c-4-1.5-7.6-4.9-10.8-10.2l-15.5-25.6
		c-3.2-5.3-4.6-10.1-4.1-14.3c0.1-0.8,0.3-1.7,0.6-2.6c0.3-0.9,0.7-1.9,1.4-2.9c0.6-1,1.4-2,2.3-3c1-1,2.2-1.9,3.6-2.8
		c2.9-1.8,5.5-2.6,7.8-2.7c2.3,0,4.2,0.3,5.8,0.8c4,1.5,7.6,4.9,10.8,10.2l15.5,25.6c3.2,5.3,4.6,10.1,4.1,14.3
		c-0.2,1.6-0.8,3.4-1.9,5.5C143.3,152.2,141.3,154.1,138.4,155.9z M106.9,104c-0.6,0.4-1.2,0.8-1.9,1.4c-0.7,0.6-1.2,1.3-1.5,2.3
		c-0.4,1-0.4,2.3-0.1,3.8c0.3,1.5,1.2,3.5,2.6,5.8l15.5,25.6c1.4,2.4,2.8,4.1,4,5c1.2,1,2.4,1.6,3.4,1.7c1,0.1,2,0,2.8-0.3
		c0.8-0.3,1.5-0.7,2.1-1c0.5-0.3,1.2-0.8,1.8-1.3c0.7-0.6,1.2-1.3,1.6-2.3c0.4-1,0.4-2.3,0.1-3.8c-0.3-1.5-1.2-3.5-2.6-5.9
		l-15.5-25.6c-1.4-2.3-2.7-4-3.9-5c-1.2-1-2.4-1.6-3.4-1.7c-1-0.1-2,0-2.8,0.3C108.2,103.3,107.5,103.7,106.9,104z"/>
	<path fill="#F1F2F2" d="M122.4,84l7.6-4.6l28.2,46.5l-7.6,4.6L122.4,84z M158.6,143.5l-5.2-8.6l7.6-4.6l5.2,8.6L158.6,143.5z"/>
</g>
</svg>
