<!-- Generator: Adobe Illustrator 19.0.0, SVG Export Plug-In  -->
<svg version="1.1"
	 xmlns="http://www.w3.org/2000/svg" xmlns:xlink="http://www.w3.org/1999/xlink" xmlns:a="http://ns.adobe.com/AdobeSVGViewerExtensions/3.0/"
	 x="0px" y="0px" width="140.7px" height="140.7px" viewBox="0 0 140.7 140.7" enable-background="new 0 0 140.7 140.7"
	 xml:space="preserve">
<defs>
</defs>
<g>
	<circle opacity="0.6" fill="#D3E0E2" cx="70.3" cy="70.3" r="70.3"/>
	<g>
		<path fill="#C0C7C9" d="M36.6,46.5c10.4-8.7,13.5-8.4,18.6-11l5.5,12.1c-3.8,2.6-7.5,6-10.2,10.4c5-3,8.9-5.1,12-6.6l8.4,18.2
			L95,4.5C87.3,1.6,79,0,70.3,0C60.1,0,50.4,2.2,41.7,6.1l4.1,8.9c-8,3.8-21.5,12-28.2,26.4c15.9-12.3,26.1-17.2,31.5-19.2l3.4,7.4
			C46.6,33.6,40.7,39.1,36.6,46.5z"/>
	</g>
	<g>
		<path fill="#C0C7C9" d="M105.1,94c-10.4,8.7-13.5,8.4-18.6,11L81,92.9c3.8-2.6,7.5-6,10.2-10.4c-5,3-8.9,5.1-12,6.6l-8.4-18.2
			L46.7,136c7.7,2.9,16,4.5,24.7,4.5c10.2,0,19.9-2.2,28.7-6.1l-4.1-8.9c8-3.8,21.5-12,28.2-26.4c-15.9,12.3-26.1,17.2-31.5,19.2
			l-3.4-7.4C95.1,106.8,101,101.3,105.1,94z"/>
	</g>
</g>
</svg>
