<!-- Generator: Adobe Illustrator 18.1.1, SVG Export Plug-In  -->
<svg version="1.1"
	 xmlns="http://www.w3.org/2000/svg" xmlns:xlink="http://www.w3.org/1999/xlink" xmlns:a="http://ns.adobe.com/AdobeSVGViewerExtensions/3.0/"
	 x="0px" y="0px" width="141.1px" height="114.8px" viewBox="0 0 141.1 114.8" enable-background="new 0 0 141.1 114.8"
	 xml:space="preserve">
<defs>
</defs>
<g>
	<path fill="#FF642E" d="M141.1,2.2c0,0-43.4-9.4-76,10.4C32.5,32.5,23.5,54,32.3,68.5s32,16.3,64.6-3.5
		C129.5,45.1,141.1,2.2,141.1,2.2z"/>
	<path fill="#C1392B" d="M128.1,10.1C125.8,6.3,123.1,3,120,0c12.4,0.3,21.1,2.2,21.1,2.2s-2.3,8.5-7.7,19.7
		C132.1,17.9,130.4,13.9,128.1,10.1z"/>
	<path fill="#C1392B" d="M45.2,60.6c4.8,8,11.6,14,19.4,18c-15.6,3.1-26.8-1-32.3-10.1c-5.5-9-4-20.9,5.9-33.3
		C38.1,43.8,40.4,52.6,45.2,60.6z"/>
	<path opacity="0.4" fill="#FFFFFF" d="M141.1,2.2c0,0-36,2.7-68.6,22.6c-19,11.6-49,29.2-40.2,43.6C23.5,54,32.5,32.5,65.1,12.7
		C97.7-7.2,141.1,2.2,141.1,2.2z"/>
	<g>
		<path fill="#FF642E" d="M37.7,77.3c-1,0.6-2.3,0.3-2.9-0.7L27.2,64c-0.6-1-0.3-2.3,0.7-2.9l0,0c1-0.6,2.3-0.3,2.9,0.7l7.7,12.6
			C39,75.4,38.7,76.7,37.7,77.3L37.7,77.3z"/>
		<path fill="#FF7F52" d="M35.2,73.2c-1,0.6-2.1,0.5-2.6-0.2l-5.7-9.4c-0.4-0.7,0-1.8,1-2.4l0,0c1-0.6,2.1-0.5,2.6,0.2l5.7,9.4
			C36.6,71.5,36.2,72.6,35.2,73.2L35.2,73.2z"/>
		<path fill="#C1392B" d="M35.1,81c-1,0.6-2.4,0.1-3.1-1l-9.2-15.1c-0.7-1.2-0.5-2.6,0.5-3.2l0,0c1-0.6,2.4-0.1,3.1,1l9.2,15.1
			C36.3,79,36.1,80.4,35.1,81L35.1,81z"/>
		<path fill="#CF5346" d="M33,77.5c-1,0.6-2.2,0.3-2.8-0.7l-7.5-12.3c-0.6-1-0.3-2.2,0.7-2.8l0,0c1-0.6,2.2-0.3,2.8,0.7l7.5,12.3
			C34.3,75.6,33.9,76.9,33,77.5L33,77.5z"/>
	</g>
	<polygon fill="#C1392B" points="52.4,80 49.4,113.9 51.5,114.8 79.1,74.1 77.2,72.8 	"/>
	<polygon fill="#FF7F52" points="51.1,77.9 49.4,113.9 77.2,72.8 	"/>
	<polygon fill="#FF7F52" points="31.5,45.7 0,32.8 0.2,30.6 49,24.7 49.3,27 	"/>
	<polygon fill="#C1392B" points="32.8,47.8 0,32.8 49.3,27 	"/>
	<circle fill="#C1392B" cx="96.2" cy="29.6" r="12.2"/>
	<circle fill="#4EC7CC" cx="96.2" cy="29.6" r="9.9"/>
	<path fill="#2AABB1" d="M103.2,26.7c-2.8-4.7-8.9-6.2-13.6-3.3c-0.9,0.6-1.8,1.3-2.4,2.1c0.8-1.8,2.1-3.3,3.9-4.4
		c4.7-2.8,10.8-1.4,13.6,3.3c2.3,3.7,1.8,8.4-0.9,11.5C105,33.1,104.9,29.6,103.2,26.7z"/>
</g>
</svg>
