<!-- Generator: Adobe Illustrator 18.1.1, SVG Export Plug-In  -->
<svg version="1.1"
	 xmlns="http://www.w3.org/2000/svg" xmlns:xlink="http://www.w3.org/1999/xlink" xmlns:a="http://ns.adobe.com/AdobeSVGViewerExtensions/3.0/"
	 x="0px" y="0px" width="109.6px" height="123.3px" viewBox="0 0 109.6 123.3" enable-background="new 0 0 109.6 123.3"
	 xml:space="preserve">
<defs>
</defs>
<path fill="#BE4734" d="M0,25.5C16.6,7.5,32,0.2,56.6,0c21.7-0.2,41.4,8.3,53,24.8L56.6,87.3L0,25.5z"/>
<circle fill="#FFFFFF" stroke="#BE4734" stroke-width="2.8346" stroke-miterlimit="10" cx="56.6" cy="73.2" r="48.7"/>
<path fill="none" d="M8.1,68.9c0-26.9,21.8-47.7,48.7-47.7s48.7,20.8,48.7,47.7"/>
<text transform="matrix(0.7824 -0.6228 0.6228 0.7824 23.1088 34.0635)"><tspan x="0" y="0" fill="#FFFFFF" font-family="'OstrichSans-Black'" font-size="19">b</tspan><tspan x="6.7" y="-0.1" fill="#FFFFFF" font-family="'OstrichSans-Black'" font-size="19" rotate="8.3">r</tspan><tspan x="14" y="1" fill="#FFFFFF" font-family="'OstrichSans-Black'" font-size="19" rotate="16.9">o</tspan><tspan x="20.9" y="3.1" fill="#FFFFFF" font-family="'OstrichSans-Black'" font-size="19" rotate="25.3">u</tspan><tspan x="27.5" y="6.1" fill="#FFFFFF" font-family="'OstrichSans-Black'" font-size="19" rotate="33.5">g</tspan><tspan x="33.6" y="10.2" fill="#FFFFFF" font-family="'OstrichSans-Black'" font-size="19" rotate="41.7">h</tspan><tspan x="39.1" y="14.9" fill="#FFFFFF" font-family="'OstrichSans-Black'" font-size="19" rotate="50.4">t</tspan><tspan x="44.4" y="21.4" fill="#FFFFFF" font-family="'OstrichSans-Black'" font-size="19" rotate="58.3"> </tspan><tspan x="47.3" y="26" fill="#FFFFFF" font-family="'OstrichSans-Black'" font-size="19" rotate="65.4">b</tspan><tspan x="50.2" y="31.9" fill="#FFFFFF" font-family="'OstrichSans-Black'" font-size="19" rotate="74.7">y</tspan></text>
</svg>
